<svg viewBox="0 0 601 463" fill="none" xmlns="http://www.w3.org/2000/svg">
<g clip-path="url(#clip0_3_1600)">
<path d="M464.975 404.768C405.456 433.196 341.897 455.171 276.086 459.559C210.275 463.947 141.792 449.586 88.3585 410.916C34.9251 372.246 -1.20651 307.472 2.93125 241.643C7.06901 175.815 56.034 112.917 120.853 100.683C136.617 97.7065 152.82 97.5814 168.567 94.525C222.411 84.0778 263.807 41.5027 313.96 19.3125C381.281 -10.474 464.787 0.411107 522.224 46.4716C579.661 92.5321 608.429 171.677 593.987 243.86C579.545 316.043 529.803 367.099 464.975 404.768Z" fill="white"/>
<path d="M463.625 402.453C406.984 429.46 346.544 450.81 283.673 456.298C226.951 461.249 167.959 452.714 117.314 425.787C69.8949 400.567 31.6541 358.493 14.5222 307.213C6.34498 282.735 3.08303 256.273 6.7382 230.633C10.1878 206.459 19.5447 183.268 33.37 163.187C47.1953 143.106 65.4086 126.403 86.9196 115.259C97.5633 109.745 108.967 105.723 120.737 103.417C136.769 100.272 153.231 100.218 169.273 97.0991C223.081 86.643 263.386 45.6676 311.878 23.1646C359.475 1.09063 415.5 -0.0622187 464.689 17.5255C489.337 26.3372 512.26 40.0195 531.358 57.9468C550.045 75.4809 565.032 96.7149 575.81 119.933C597.356 166.369 601.038 219.945 584.603 268.526C568.714 315.498 535.075 353.461 495.28 382.032C485.074 389.361 474.475 396.126 463.616 402.444C460.631 404.178 463.33 408.816 466.324 407.074C510.025 381.621 550.483 348.001 575.166 303.138C600.234 257.587 606.633 203.948 593.558 153.678C580.385 103.006 548.427 57.4642 503.519 30.1086C457.941 2.35073 401.416 -6.6308 349.386 4.89773C322.325 10.8944 297.874 23.2004 274.486 37.7674C251.045 52.3702 228.461 68.671 203.277 80.2532C190.381 86.1873 176.815 90.611 162.775 92.8273C146.689 95.3654 130.281 95.5352 114.391 99.3244C90.673 104.981 68.9654 117.52 51.2526 134.16C14.2005 168.978 -4.67415 220.276 0.99181 270.751C7.0063 324.372 37.1503 373.989 79.1534 407.279C124.713 443.384 182.848 460.552 240.392 462.759C303.415 465.181 365.821 449.407 423.865 425.868C438.209 420.05 452.356 413.749 466.333 407.082C469.443 405.599 466.726 400.97 463.625 402.453Z" fill="white"/>
<path d="M391.04 365.159H323.398V427.503H391.04V365.159Z" fill="#DEDEDD"/>
<path d="M391.04 402.649L323.398 384.722V365.159H391.04V402.649Z" fill="#C7C6C5"/>
<path d="M192.696 167.995V367.063C192.696 374.65 198.934 380.808 206.629 380.808H510.91C518.605 380.808 524.843 374.659 524.843 367.063V167.995H192.696Z" fill="#E8E7E7"/>
<path d="M524.843 353.711V154.643C524.843 147.056 518.605 140.898 510.91 140.898H206.629C198.934 140.898 192.696 147.047 192.696 154.643V353.711H524.843Z" fill="black"/>
<path d="M513.654 153.696H203.894V341.003H513.654V153.696Z" fill="#212120"/>
<path d="M363.533 143.41H354.006C352.437 143.41 351.164 144.682 351.164 146.251V148.119C351.164 149.689 352.437 150.961 354.006 150.961H363.533C365.102 150.961 366.375 149.689 366.375 148.119V146.251C366.375 144.682 365.102 143.41 363.533 143.41Z" fill="#353535"/>
<path d="M358.77 149.701C360.087 149.701 361.156 148.633 361.156 147.315C361.156 145.997 360.087 144.929 358.77 144.929C357.452 144.929 356.383 145.997 356.383 147.315C356.383 148.633 357.452 149.701 358.77 149.701Z" fill="#818282"/>
<path opacity="0.05" d="M449.595 341.003H513.654V153.696H258.328L449.595 341.003Z" fill="white"/>
<path d="M423.258 430.944V426.448C423.258 424.259 421.462 422.462 419.272 422.462H294.192C292.002 422.462 290.206 424.259 290.206 426.448V430.944H423.258Z" fill="#E8E7E7"/>
<path d="M423.258 427.503H290.206V430.935H423.258V427.503Z" fill="#D1D1D1"/>
<path d="M288.446 164.76H219.337V168.263H288.446V164.76Z" fill="#ECAA20"/>
<path d="M268.534 172.168H231.947V175.672H268.534V172.168Z" fill="#33BAA3"/>
<path d="M323.952 172.168H275.183V175.672H323.952V172.168Z" fill="#33BAA3"/>
<path d="M268.534 172.168H231.947V175.672H268.534V172.168Z" fill="#981C50"/>
<path d="M323.952 172.168H275.183V175.672H323.952V172.168Z" fill="#33BAA3"/>
<path d="M277.015 178.925H240.428V182.428H277.015V178.925Z" fill="#33BAA3"/>
<path d="M395.187 178.925H279.723V182.428H395.187V178.925Z" fill="#6C60A9"/>
<path d="M248.525 185.69H231.947V189.193H248.525V185.69Z" fill="#6C60A9"/>
<path d="M299.563 185.69H250.795V189.193H299.563V185.69Z" fill="#00B1E7"/>
<path d="M316.498 185.69H303.03V189.193H316.498V185.69Z" fill="#33BAA3"/>
<path d="M254.968 192.446H236.674V195.949H254.968V192.446Z" fill="#981C50"/>
<path d="M327.41 192.446H309.116V195.949H327.41V192.446Z" fill="#981C50"/>
<path d="M362.452 199.211H344.158V202.714H362.452V199.211Z" fill="#6C60A9"/>
<path d="M306.507 192.446H257.739V195.949H306.507V192.446Z" fill="#6C60A9"/>
<path d="M291.672 199.211H231.947V202.714H291.672V199.211Z" fill="#33BAA3"/>
<path d="M342.058 199.211H293.289V202.714H342.058V199.211Z" fill="#981C50"/>
<path d="M248.525 205.976H236.674V209.48H248.525V205.976Z" fill="#6C60A9"/>
<path d="M279.714 205.976H251.858V209.48H279.714V205.976Z" fill="#6C60A9"/>
<path d="M311.717 205.976H283.861V209.48H311.717V205.976Z" fill="#00B1E7"/>
<path d="M343.175 205.976H315.319V209.48H343.175V205.976Z" fill="#33BAA3"/>
<path d="M256.166 212.733H231.947V216.236H256.166V212.733Z" fill="#33BAA3"/>
<path d="M308.241 212.733H259.472V216.236H308.241V212.733Z" fill="#33BAA3"/>
<path d="M268.534 219.498H251.858V223.001H268.534V219.498Z" fill="#00B1E7"/>
<path d="M301.583 219.498H271.653V223.001H301.583V219.498Z" fill="#33BAA3"/>
<path d="M334.399 219.498H304.469V223.001H334.399V219.498Z" fill="#981C50"/>
<path d="M268.534 226.263H231.947V229.766H268.534V226.263Z" fill="#33BAA3"/>
<path d="M320.422 226.263H271.653V229.766H320.422V226.263Z" fill="#981C50"/>
<path d="M252.359 235.959H219.337V239.463H252.359V235.959Z" fill="#ECAA20"/>
<path d="M272.744 243.359H248.525V246.862H272.744V243.359Z" fill="#981C50"/>
<path d="M323.952 243.359H275.183V246.862H323.952V243.359Z" fill="#33BAA3"/>
<path d="M245.817 243.359H231.947V246.862H245.817V243.359Z" fill="#00B1E7"/>
<path d="M323.952 243.359H275.183V246.862H323.952V243.359Z" fill="#6C60A9"/>
<path d="M260.634 250.124H231.947V253.628H260.634V250.124Z" fill="#33BAA3"/>
<path d="M311.717 250.124H262.949V253.628H311.717V250.124Z" fill="#00B1E7"/>
<path d="M363.354 250.124H314.586V253.628H363.354V250.124Z" fill="#33BAA3"/>
<path d="M387.716 205.976H363.497V209.48H387.716V205.976Z" fill="#981C50"/>
<path d="M454.546 212.733H430.327V216.236H454.546V212.733Z" fill="#981C50"/>
<path d="M438.915 205.976H390.147V209.48H438.915V205.976Z" fill="#33BAA3"/>
<path d="M360.78 205.976H346.91V209.48H360.78V205.976Z" fill="#00B1E7"/>
<path d="M438.915 205.976H390.147V209.48H438.915V205.976Z" fill="#6C60A9"/>
<path d="M340.905 212.733H312.218V216.236H340.905V212.733Z" fill="#33BAA3"/>
<path d="M391.988 212.733H343.219V216.236H391.988V212.733Z" fill="#00B1E7"/>
<path d="M427.601 212.733H394.857V216.236H427.601V212.733Z" fill="#33BAA3"/>
<path d="M416.314 322.245H392.095V325.748H416.314V322.245Z" fill="#981C50"/>
<path d="M435.278 329.01H411.059V332.513H435.278V329.01Z" fill="#981C50"/>
<path d="M467.522 322.245H418.754V325.748H467.522V322.245Z" fill="#33BAA3"/>
<path d="M467.522 322.245H418.754V325.748H467.522V322.245Z" fill="#6C60A9"/>
<path d="M372.72 329.01H323.952V332.513H372.72V329.01Z" fill="#00B1E7"/>
<path d="M408.324 329.01H375.58V332.513H408.324V329.01Z" fill="#33BAA3"/>
<path d="M285.112 256.881H248.525V260.384H285.112V256.881Z" fill="#981C50"/>
<path d="M322.897 256.881H287.337V260.384H322.897V256.881Z" fill="#6C60A9"/>
<path d="M336.133 256.881H325.399V260.384H336.133V256.881Z" fill="#6C60A9"/>
<path d="M268.534 263.646H248.525V267.149H268.534V263.646Z" fill="#981C50"/>
<path d="M299.563 263.646H271.653V267.149H299.563V263.646Z" fill="#00B1E7"/>
<path d="M263.556 308.08H219.337V311.583H263.556V308.08Z" fill="#ECAA20"/>
<path d="M272.744 315.488H248.525V318.992H272.744V315.488Z" fill="#981C50"/>
<path d="M323.952 315.488H275.183V318.992H323.952V315.488Z" fill="#33BAA3"/>
<path d="M245.817 315.488H231.947V318.992H245.817V315.488Z" fill="#00B1E7"/>
<path d="M323.952 315.488H275.183V318.992H323.952V315.488Z" fill="#6C60A9"/>
<path d="M284.942 322.245H256.255V325.748H284.942V322.245Z" fill="#33BAA3"/>
<path d="M336.025 322.245H287.257V325.748H336.025V322.245Z" fill="#00B1E7"/>
<path d="M387.662 322.245H338.894V325.748H387.662V322.245Z" fill="#33BAA3"/>
<path d="M267.962 329.01H231.375V332.513H267.962V329.01Z" fill="#981C50"/>
<path d="M305.747 329.01H270.188V332.513H305.747V329.01Z" fill="#6C60A9"/>
<path d="M318.983 329.01H308.25V332.513H318.983V329.01Z" fill="#6C60A9"/>
<path d="M278.517 274.12H219.337V277.23H278.517V274.12Z" fill="#ECAA20"/>
<path d="M294.523 280.688H257.935V283.798H294.523V280.688Z" fill="#981C50"/>
<path d="M254.718 280.688H231.947V283.798H254.718V280.688Z" fill="#33BAA3"/>
<path d="M306.14 280.688H297.677V283.798H306.14V280.688Z" fill="#981C50"/>
<path d="M264.504 286.694H231.947V289.804H264.504V286.694Z" fill="#981C50"/>
<path d="M315.587 286.694H266.818V289.804H315.587V286.694Z" fill="#00B1E7"/>
<path d="M336.606 286.694H317.964V289.804H336.606V286.694Z" fill="#6C60A9"/>
<path d="M275.174 292.691H238.587V295.801H275.174V292.691Z" fill="#981C50"/>
<path d="M328.697 292.691H279.929V295.801H328.697V292.691Z" fill="#33BAA3"/>
<path d="M275.174 298.696H238.587V301.806H275.174V298.696Z" fill="#6C60A9"/>
<path d="M307.821 298.696H278.517V301.806H307.821V298.696Z" fill="#00B1E7"/>
<path d="M318.777 376.25C320.851 376.286 323.871 380.415 322.361 388.216C320.851 396.018 320.6 396.778 320.77 397.904C320.94 399.039 322.692 401.586 323.067 404.794C323.442 408.003 323.63 425.93 324.765 428.057C324.765 428.057 322.924 429.335 320.475 428.057C320.475 428.057 315.14 401.541 314.809 399.468C314.479 397.395 310.189 376.116 318.768 376.259L318.777 376.25Z" fill="#FDE3CA"/>
<path d="M307.955 371.201C311.252 371.844 312.396 380.629 308.625 394.115C308.625 394.115 307.83 396.912 307.74 398.378C307.642 399.843 308.688 403.758 308.634 405.786C308.589 407.815 306.981 414.276 306.418 416.636C305.855 418.995 304.434 430.175 304.434 430.175C304.434 430.175 301.511 430.22 300.144 428.575C300.144 428.575 301.467 401.255 301.61 398.619C301.753 395.974 302.932 378.752 303.263 377.054C303.594 375.356 303.888 370.405 307.964 371.21L307.955 371.201Z" fill="#FDE3CA"/>
<path d="M321.905 356.026C321.905 356.026 325.48 362.63 325.14 369.467C324.801 376.304 322.37 388.208 322.37 388.208C322.37 388.208 309.858 389.226 302.342 385.911C302.342 385.911 302.119 364.579 304.157 356.026C304.157 356.026 310.689 358.689 321.905 356.026Z" fill="#3B235F"/>
<path d="M292.145 342.21C292.145 342.21 283.941 339.841 283.2 338.76C282.458 337.679 282.458 332.737 281.645 332.737C280.831 332.737 280.626 336.186 280.626 336.186C280.626 336.186 276.703 334.524 275.755 333.729C274.808 332.933 274.942 338.26 275.755 339.189C276.569 340.118 280.081 342.138 281.502 342.21C282.923 342.281 290.197 347.25 290.197 347.25C290.197 347.25 292.431 345.597 292.137 342.21H292.145Z" fill="#FDE3CA"/>
<path d="M304.693 327.786C304.693 327.786 297.025 341.906 295.524 342.612C294.63 343.032 293.549 342.63 292.145 342.21C292.145 342.21 292.378 344.989 290.206 347.25C290.206 347.25 295.273 350.047 297.919 348.036C300.573 346.035 305.926 336.901 306.873 335.319C307.812 333.729 309.34 330.145 304.693 327.786Z" fill="#35488F"/>
<path d="M339.332 338.823L346.017 332.299C346.017 332.299 345.177 326.785 346.097 326.195C347.027 325.605 347.867 328.974 347.867 328.974C347.867 328.974 349.252 324.005 350.011 324.425C350.771 324.845 353.971 326.266 350.896 331.825C347.822 337.384 342.791 343.068 342.791 343.068C342.791 343.068 339.761 342.192 339.332 338.823Z" fill="#FDE3CA"/>
<path d="M322.522 334.587C324.953 334.158 329.868 331.566 327.008 327.946C324.148 324.327 323.818 325.676 323.71 322.495C323.603 319.304 321.065 319.421 320.851 318.232C320.636 317.043 320.475 316.141 321.172 314.836C321.869 313.531 321.708 310.35 320.413 309.322C319.117 308.294 318.259 307.91 317.589 306.248C317.249 305.39 314.899 304.139 312.691 305.765C310.475 307.383 309.599 305.765 307.955 306.194C306.319 306.623 304.961 308.571 305.452 310.028C305.935 311.485 306.534 311.923 306.266 313.701C305.998 315.48 306.069 317.866 307.544 318.965C309.018 320.073 307.776 322.343 306.158 322.933C304.541 323.523 303.62 331.146 306.918 333.46C310.216 335.784 322.531 334.595 322.531 334.595L322.522 334.587Z" fill="#714B43"/>
<path d="M315.39 311.404C315.39 311.404 316.382 317.463 313.603 319.456C310.823 321.449 309.581 321.369 308.205 320.663C306.838 319.957 307.329 309.912 307.704 309.706C308.08 309.501 313.469 306.346 315.381 311.404H315.39Z" fill="#FDE3CA"/>
<path d="M307.964 326.597C307.964 326.597 310.859 325.954 310.913 323.442C310.958 320.931 308.214 320.663 308.214 320.663C308.214 320.663 310.082 316.757 310.252 316.757C310.421 316.757 315.283 316.614 315.283 316.614C315.283 316.614 315.399 320.788 316.355 322.531C317.312 324.273 318.974 325.435 318.974 325.435C318.974 325.435 318.706 331.003 313.21 331.825C307.463 332.683 307.982 326.597 307.982 326.597H307.964Z" fill="#FDE3CA"/>
<path d="M316.284 315.658C315.417 315.882 313.996 315.515 313.37 314.452C312.62 313.165 313.773 311.288 312.566 310.984C311.36 310.68 311.422 311.002 310.18 311.083C308.938 311.163 307.258 310.162 307.392 309.456C307.535 308.759 308.598 306.954 311.664 307.41C314.729 307.874 316.311 308.089 317.356 310.296C318.402 312.504 319.26 316.168 317.821 316.329C316.382 316.489 316.284 315.649 316.284 315.649V315.658Z" fill="#714B43"/>
<path d="M314.934 315.006C314.934 315.006 315.56 313.415 316.758 313.379C317.955 313.344 317.356 315.283 316.829 315.774C316.302 316.275 314.559 317.285 314.559 317.285L314.934 315.006Z" fill="#FDE3CA"/>
<path d="M318.956 325.435C318.956 325.435 317.401 331.521 312.575 331.807C307.749 332.093 307.955 326.597 307.955 326.597C307.955 326.597 306.024 327.446 305.086 327.374C304.148 327.303 302.316 336.696 302.888 338.537C303.459 340.369 305.729 342.603 305.837 344.587C305.944 346.571 304.148 356.035 304.148 356.035C304.148 356.035 312.611 359.279 321.896 356.035C321.896 356.035 319.805 349.27 320.922 345.302C322.039 341.343 324.238 336.624 324.309 333.38C324.381 330.136 323.773 325.256 318.947 325.426L318.956 325.435Z" fill="#3E50A2"/>
<path d="M322.549 326.731C322.549 326.731 332.567 338.206 334.622 339.073C336.678 339.94 337.142 340.154 339.341 338.823C339.341 338.823 340.717 341.709 342.799 343.068C342.799 343.068 338.662 347.348 336.535 347.241C334.408 347.134 323.398 337.929 323.398 337.929L321.414 330.967L322.557 326.731H322.549Z" fill="#3E50A2"/>
<path d="M304.443 430.175C304.443 430.175 305.184 433.079 304.568 433.464C303.942 433.848 302.396 433.196 301.341 433.526C300.296 433.857 297.57 434.617 294.192 434.357C290.814 434.107 290.635 433.705 290.796 433.062C290.948 432.418 295.05 431.051 297.231 430.005C299.411 428.96 300.144 428.566 300.144 428.566C300.144 428.566 301.976 429.96 304.434 430.166L304.443 430.175Z" fill="#541B53"/>
<path d="M324.774 428.048C324.774 428.048 325.918 430.112 325.417 431.489C324.917 432.856 322.352 433.133 320.985 434.098C319.608 435.054 317.285 436.127 314.899 435.796C312.521 435.466 312.933 434.277 314.353 433.553C315.774 432.82 318.107 431.542 318.741 430.72C319.385 429.898 320.484 428.057 320.484 428.057C320.484 428.057 321.851 428.647 324.774 428.057V428.048Z" fill="#541B53"/>
<path d="M378.627 364.632C378.627 364.632 375.553 391.791 372.72 399.11C372.72 399.11 372.577 407.502 372.22 410.585C371.54 416.519 368.77 424.339 368.725 425.715C368.725 425.715 365.901 426.627 364.57 425.295C364.57 425.295 365.731 401.184 365.571 398.601C365.401 396.027 364.829 387.51 367.572 363.953L378.627 364.632Z" fill="#2998BA"/>
<path d="M386.465 363.193C386.465 363.193 377.135 364.301 373.864 363.953C373.864 363.953 373.399 386.483 376.652 399.691C376.652 399.691 376.849 405.107 377.242 406.591C377.635 408.065 380.164 426.591 380.164 426.591C380.164 426.591 383.319 427.378 384.463 426.591C384.463 426.591 386.599 411.908 385.813 408.164C385.026 404.419 383.73 400.183 383.73 400.183C383.73 400.183 385.16 393.543 385.911 389.539C386.662 385.535 388.011 370.834 386.465 363.193Z" fill="#2FA6CB"/>
<path d="M372.738 321.941C371.228 321.351 369.118 320.243 369.011 318.178C368.913 316.114 369.413 310.573 370.522 309.063C371.63 307.561 376.661 306.015 380.432 307.722C384.204 309.429 384.856 313.504 384.963 314.461C385.062 315.417 385.169 318.277 386.572 319.287C387.984 320.296 389.897 321.905 390.701 323.862C391.505 325.828 390.755 327.607 390.951 329.207C391.157 330.806 393.82 335.132 395.679 336.392C397.538 337.652 398.297 346.356 391.657 350.628C385.017 354.9 379.181 353.443 377.019 352.487C374.856 351.531 372.693 341.977 373.801 337.947C374.909 333.925 376.59 323.657 376.59 323.657L372.738 321.932V321.941Z" fill="#A14A24"/>
<path d="M372.738 322.504C372.738 322.504 375.303 325.998 375.356 329.206C375.356 329.206 377.519 331.047 379.887 329.117L379.941 327.553L377.394 319.626L372.747 322.513L372.738 322.504Z" fill="#FDE3CA"/>
<path d="M376.009 308.571C373.748 308.464 371.129 308.777 370.727 311.19C370.325 313.603 369.574 319.421 370.727 321.941C371.88 324.47 377.117 322.423 378.377 321.029C379.637 319.635 382.604 308.875 376.009 308.571Z" fill="#FDE3CA"/>
<path d="M379.601 324.452C379.575 324.273 377.144 319.412 375.669 318.625C374.195 317.839 372.488 316.82 372.371 315.292C372.255 313.764 373.238 310.966 370.629 310.189C370.629 310.189 372.246 306.775 377.984 308.545C383.712 310.314 380.987 318.715 380.656 319.823C380.325 320.931 379.601 324.443 379.601 324.443V324.452Z" fill="#A14A24"/>
<path d="M368.725 363.801C368.725 363.801 380.03 366.017 386.465 363.193C386.492 363.184 386.51 363.175 386.536 363.158L386.42 362.8C386.09 361.915 383.998 356.187 384.356 351.495C384.74 346.392 386.411 340.404 386.411 340.404C386.411 340.404 387.904 332.2 387.904 332.031C387.904 331.861 385.187 329.591 385.187 329.591L379.932 327.535C379.932 327.535 379.19 329.591 377.162 329.734C375.133 329.886 375.285 328.331 375.285 328.331C375.285 328.331 371.996 329.796 369.914 330.484L371.433 348.376L368.716 363.783L368.725 363.801Z" fill="#AD587B"/>
<path d="M375.258 328.143C375.258 328.143 374.15 332.397 373.971 337.598C373.792 342.808 374.177 354.346 373.819 357C373.462 359.654 371.683 377.001 369.95 380.245C368.225 383.489 365.982 385.661 364.793 386.116C364.793 386.116 364.9 373.024 366.08 368.743C367.269 364.462 369.53 354.748 369.789 350.423C370.048 346.097 367.966 343.622 367.876 341.638C367.742 338.653 368.725 336.713 368.725 336.713C368.725 336.713 358.913 339.01 356.544 339.082C354.176 339.162 351.879 338.492 350.485 337.151C349.091 335.811 342.29 324.443 342.29 324.443L344.819 322.388C344.819 322.388 352.013 331.745 353.121 332.692C354.23 333.648 354.819 334.158 357.089 333.8C359.359 333.443 375.258 328.134 375.258 328.134V328.143Z" fill="#F17AA9"/>
<path d="M379.932 327.544C379.932 327.544 377.85 336.383 377.85 341.781C377.85 347.178 378.002 362.049 377.85 365.705C377.698 369.36 378.672 386.67 386.322 387.948C386.322 387.948 388.94 371.63 386.992 362.961C385.044 354.292 383.551 347.25 387.368 341.182C391.192 335.114 389.325 330.878 387.707 330.109C386.09 329.341 383.82 328.822 382.622 328.438C381.425 328.054 379.932 327.553 379.932 327.553V327.544Z" fill="#F17AA9"/>
<path d="M386.25 332.415C387.117 331.396 388.324 330.592 389.039 331.628C389.754 332.665 399.414 346.544 400.076 348.43C400.737 350.306 401.497 352.8 399.262 354.936C397.028 357.072 387.975 362.818 387.975 362.818L385.741 360.173C385.741 360.173 394.079 353.917 394.329 352.29C394.58 350.664 394.615 349.341 394.017 348.608C393.418 347.876 384.114 337.554 384.472 335.981C384.829 334.408 386.25 332.424 386.25 332.424V332.415Z" fill="#F17AA9"/>
<path d="M342.29 324.452C342.29 324.452 339.698 322.888 339.457 321.628C339.216 320.359 339.886 318.616 339.6 317.213C339.314 315.801 337.902 313.245 338.188 313.013C338.474 312.772 339.144 313.04 339.832 313.969C340.521 314.899 343.577 318.08 344.086 319.582C344.587 321.083 344.81 322.406 344.81 322.406L342.281 324.461L342.29 324.452Z" fill="#FDE3CA"/>
<path d="M385.741 360.173C385.741 360.173 382.988 361.763 382.801 362.988C382.613 364.212 383.811 367.68 384.794 367.742C385.777 367.805 385.178 365.329 385.741 364.632C386.295 363.935 387.975 362.818 387.975 362.818L385.741 360.173Z" fill="#FDE3CA"/>
<path d="M371.96 435.224C372.228 435.626 376.179 435.912 378.618 435.957C381.058 436.002 385.008 435.778 385.401 435.224C385.535 435.037 385.473 433.982 385.321 432.677C385.035 430.121 384.445 426.591 384.445 426.591C382.926 426.895 380.146 426.591 380.146 426.591C380.146 426.591 380.254 430.336 379.995 431.48C379.852 432.096 378.225 432.668 376.59 433.124C375.178 433.517 373.766 433.821 373.319 433.982C372.354 434.331 371.692 434.813 371.951 435.224H371.96Z" fill="#FFE4CB"/>
<path d="M371.96 435.224C372.228 435.626 376.179 435.912 378.618 435.957C381.058 436.002 385.008 435.778 385.401 435.224C385.535 435.037 385.473 433.982 385.321 432.677C385.044 433.017 384.624 433.196 384.311 433.303C383.078 433.732 379.092 434.527 376.581 433.124C375.169 433.517 373.757 433.821 373.31 433.982C372.345 434.331 371.683 434.813 371.943 435.224H371.96Z" fill="#1E7189"/>
<path d="M355.901 434C356.151 434.393 359.958 434.67 362.309 434.706C364.659 434.751 368.466 434.536 368.841 434C368.967 433.821 368.904 432.802 368.77 431.551C368.493 429.094 368.725 425.715 368.725 425.715C367.26 426.01 364.57 425.295 364.57 425.295C364.57 425.295 363.89 429.29 363.64 430.398C363.506 430.988 361.933 431.542 360.36 431.98C359.002 432.356 357.635 432.65 357.206 432.802C356.276 433.142 355.642 433.607 355.892 434H355.901Z" fill="#FFE4CB"/>
<path d="M355.901 434C356.151 434.393 359.958 434.67 362.309 434.706C364.659 434.751 368.466 434.536 368.841 434C368.967 433.821 368.904 432.802 368.77 431.551C368.368 431.927 368.109 432.078 367.805 432.15C366 432.561 362.782 433.33 360.369 431.98C359.011 432.356 357.644 432.65 357.215 432.802C356.285 433.142 355.651 433.607 355.901 434Z" fill="#1E7189"/>
<path d="M203.84 365.079L201.821 393.811L203.42 429.657H208.3C208.3 429.657 213.885 408.315 209.426 395.384L213.885 364.427L203.84 365.079Z" fill="#764534"/>
<path d="M219.212 364.427C219.212 364.427 220.257 366.723 219.212 373.56C218.166 380.388 215.869 392.864 215.869 392.864C215.869 392.864 219.98 396.975 220.955 402.694C221.929 408.405 223.189 429.666 223.189 429.666H218.309C218.309 429.666 210.436 400.817 206.396 393.078C206.316 392.935 206.396 392.73 206.396 392.73L206.119 364.436H219.221L219.212 364.427Z" fill="#9C5C46"/>
<path d="M187.754 343.631C187.754 343.631 187.236 339.564 186.199 339.135C185.162 338.706 185.35 342.344 185.35 342.344C185.35 342.344 183.036 339.806 182.249 339.689C181.454 339.564 179.756 342.433 180.06 343.407C180.363 344.381 182.812 346.624 185.6 346.875C188.398 347.125 187.754 343.64 187.754 343.64V343.631Z" fill="#FDE3CA"/>
<path d="M210.686 332.156C208.97 331.217 206.897 334.595 203.912 339.153C200.927 343.711 198.273 347.858 187.754 343.631C187.754 343.631 186.843 346.285 185.6 346.866C185.6 346.866 193.786 353.568 198.773 352.585C203.769 351.593 207.388 346.705 210.043 341.897C212.697 337.089 212.929 333.389 210.686 332.165V332.156Z" fill="#3F61AC"/>
<path d="M204.975 309.474C204.975 309.474 204.287 311.172 204.287 313.799C204.287 316.427 203.072 317.964 203.072 317.964L204.636 318.581C204.636 318.581 204.609 322.289 206.182 322.289C207.755 322.289 212.009 321.843 212.009 318.125C212.009 314.407 212.572 309.465 204.975 309.465V309.474Z" fill="#FDE3CA"/>
<path d="M207.299 322.236C207.371 322.236 209.596 322.96 209.766 324.488C209.935 326.016 210.23 328.688 210.23 328.688L216.513 328.322L215.11 316.302L207.022 317.142L207.299 322.236Z" fill="#FDE3CA"/>
<path d="M215.807 322.298C215.807 322.298 212.751 321.226 211.848 316.838C211.848 316.838 210.507 315.828 210.856 314.202C211.204 312.584 209.864 313.612 209.14 313.281C208.425 312.95 208.702 311.771 207.665 311.824C206.638 311.878 206.084 313.46 204.037 312.396C201.991 311.324 202.268 307.722 202.911 307.168C203.555 306.614 204.716 305.783 206.816 305.81L205.235 307.079C205.235 307.079 206.656 306.641 208.237 306.677C209.819 306.712 211.767 304.961 211.767 304.961C211.767 304.961 211.517 306.909 209.748 307.794C209.748 307.794 212.786 306.802 214.055 307.588C215.324 308.384 215.601 308.857 215.601 308.857C215.601 308.857 218.935 308.455 218.935 311.547C218.935 314.639 217.424 317.776 216.853 318.679C216.281 319.582 215.798 322.289 215.798 322.289L215.807 322.298Z" fill="#704A44"/>
<path d="M211.419 317.231C211.419 317.231 211.803 314.488 213.608 314.505C215.414 314.523 214.654 317.839 212.795 318.062C210.936 318.286 211.41 317.231 211.41 317.231H211.419Z" fill="#FDE3CA"/>
<path d="M213.001 329.475C210.632 329.028 207.433 330.315 206.128 335.185C204.824 340.065 203.662 345.829 203.805 348.564C203.948 351.307 203.483 356.741 202.366 358.743C201.249 360.745 201.624 365.615 205.476 365.901C209.328 366.178 211.75 366.875 212.348 367.295C212.956 367.715 219.596 369.011 221.41 365.669C223.224 362.326 221.267 358.099 221.41 356.285C221.553 354.471 223.734 342.21 222.384 338.769C221.035 335.328 219.444 330.681 212.992 329.475H213.001Z" fill="#7EADDC"/>
<path d="M208.327 329.904C208.023 329.412 210.74 327.231 213.314 326.588C215.878 325.945 222.483 325.945 225.664 329.671C228.846 333.398 223.653 338.76 222.081 337.956C220.499 337.151 218.273 330.806 214.904 330.118C211.535 329.421 209.337 330.878 208.854 330.574C208.371 330.27 208.327 329.913 208.327 329.913V329.904Z" fill="#3F61AC"/>
<path d="M204.77 364.248C204.77 364.248 200.909 362.398 199.881 363.095C198.854 363.792 202.116 365.848 202.116 365.848C202.116 365.848 196.861 366.518 196.968 367.224C197.075 367.93 198.478 371.022 200.865 370.647C203.251 370.271 205.413 370.039 207.013 368.913C207.013 368.913 207.683 366.705 204.761 364.248H204.77Z" fill="#FDE3CA"/>
<path d="M212.027 332.156C209.453 333.273 210.811 340.503 211.365 341.933C211.919 343.362 214.904 349.761 214.028 353.372C213.162 356.973 213.465 360.146 204.77 364.248C204.77 364.248 206.906 366.607 207.022 368.913C207.022 368.913 220.07 362.818 222.831 357.912C225.593 353.005 224.038 345.043 221.929 340.878C219.82 336.713 216.361 330.279 212.027 332.156Z" fill="#3F61AC"/>
<path d="M223.18 429.657L223.931 433.062C224.118 433.928 223.466 434.751 222.572 434.751H210.338C210.338 434.751 209.346 434.295 210.069 433.893C210.793 433.491 218.3 429.657 218.3 429.657H223.18Z" fill="#331D16"/>
<path d="M208.3 429.657L209.06 433.07C209.247 433.937 208.595 434.751 207.71 434.751H195.467C195.467 434.751 194.475 434.295 195.199 433.893C195.922 433.491 203.429 429.657 203.429 429.657H208.309H208.3Z" fill="#331D16"/>
<path d="M259.821 405.768C256.478 406.626 252.975 406.626 249.633 405.768C249.526 406.188 249.418 406.609 249.311 407.029C252.868 407.94 256.586 407.94 260.143 407.029C260.035 406.609 259.928 406.188 259.821 405.768Z" fill="#ABB9B8"/>
<path d="M249.025 406.171L247.184 406.001L244.869 431.024C244.869 431.024 244.771 432.999 245.245 433.303L246.532 433.097L249.025 406.18V406.171Z" fill="#EDB68D"/>
<path d="M248.954 406.814L248.391 408.852C247.694 408.619 247.032 408.575 246.541 408.601L247.175 406.323L248.963 406.814H248.954Z" fill="#D09E7D"/>
<path d="M248.391 408.843L241.134 435.054H239.82C239.418 434.652 239.901 432.561 239.901 432.561L246.532 408.584C247.023 408.566 247.685 408.601 248.382 408.834L248.391 408.843Z" fill="#EDB68D"/>
<path d="M248.954 406.814L246.183 416.805L248.382 413.186L248.954 406.814Z" fill="#D09E7D"/>
<path d="M260.804 406.171L262.645 406.001L264.96 431.024C264.96 431.024 265.058 432.999 264.584 433.303L263.297 433.097L260.804 406.18V406.171Z" fill="#EDB68D"/>
<path d="M260.875 406.814L261.438 408.852C262.135 408.619 262.797 408.575 263.288 408.601L262.654 406.323L260.866 406.814H260.875Z" fill="#D09E7D"/>
<path d="M261.438 408.843L268.695 435.054H270.009C270.411 434.652 269.928 432.561 269.928 432.561L263.297 408.584C262.806 408.566 262.144 408.601 261.447 408.834L261.438 408.843Z" fill="#EDB68D"/>
<path d="M260.875 406.814L263.646 416.805L261.447 413.186L260.875 406.814Z" fill="#D09E7D"/>
<path d="M265.237 405.089V406.394C263.53 406.394 261.814 406.608 260.143 407.037C260.035 406.617 259.928 406.197 259.821 405.777C261.599 405.322 263.413 405.098 265.237 405.098V405.089Z" fill="#ABB9B8"/>
<path d="M244.217 405.089V406.394C245.924 406.394 247.64 406.608 249.311 407.037C249.418 406.617 249.526 406.197 249.633 405.777C247.854 405.322 246.04 405.098 244.217 405.098V405.089Z" fill="#ABB9B8"/>
<path d="M254.727 406.43C255.603 406.43 257.551 406.465 259.973 405.751C261.555 405.277 263.842 405.125 265.237 405.116C266.184 405.107 266.979 405.384 266.979 405.384C267.944 402.033 266.541 399.012 265.728 396.179C264.852 393.096 266.55 389.914 267.944 387.135C269.339 384.356 269.589 381.04 266.979 379.342C264.37 377.644 259.821 379.932 254.727 379.932C249.633 379.932 245.084 377.644 242.474 379.342C239.865 381.04 240.115 384.356 241.509 387.135C242.903 389.914 244.601 393.096 243.726 396.179C242.921 399.021 241.518 402.042 242.474 405.384C242.474 405.384 243.261 405.107 244.217 405.116C245.611 405.134 247.899 405.286 249.481 405.751C251.894 406.465 253.851 406.43 254.727 406.43Z" fill="#D7E9E7"/>
<path d="M254.727 405.089C254.727 405.089 263.047 405.384 264.852 404.035C267.694 401.899 263.771 398.458 264.236 393.704C264.62 389.754 266.041 385.589 264.852 382.756C262.85 377.975 258.302 382.032 254.727 382.032C251.152 382.032 246.603 377.975 244.601 382.756C243.413 385.589 244.834 389.754 245.218 393.704C245.683 398.458 241.759 401.908 244.601 404.035C246.407 405.384 254.727 405.089 254.727 405.089Z" fill="#DFEDEC"/>
<path d="M255.004 406.582C254.95 406.582 254.897 406.582 254.852 406.582H254.736H254.62C253.654 406.582 251.626 406.582 249.141 405.849C247.765 405.438 245.629 405.277 244.217 405.268C244.208 405.268 244.19 405.268 244.181 405.268C243.502 405.268 242.912 405.474 242.903 405.474C242.26 405.697 241.554 405.366 241.331 404.732C241.107 404.097 241.429 403.391 242.063 403.159C242.162 403.123 243.1 402.792 244.244 402.801C245.039 402.801 247.81 402.882 249.847 403.49C251.983 404.124 253.762 404.115 254.62 404.124H254.745H254.87C255.719 404.124 257.506 404.124 259.642 403.49C261.68 402.882 264.441 402.81 265.245 402.801C266.38 402.792 267.319 403.123 267.426 403.159C268.07 403.391 268.391 404.106 268.159 404.741C267.927 405.375 267.221 405.706 266.577 405.474C266.55 405.474 265.952 405.25 265.263 405.268C263.851 405.286 261.715 405.447 260.339 405.849C257.98 406.546 256.032 406.582 255.013 406.582H255.004Z" fill="#CFDCDB"/>
<path d="M243.207 392.765C243.207 392.765 233.01 394.204 232.117 398.78C231.42 402.328 245.477 406.224 254.396 403.892C254.396 403.892 268.686 408.351 278.338 397.672C278.338 397.672 274.933 392.059 265.871 393.078C256.818 394.097 243.216 392.756 243.216 392.756L243.207 392.765Z" fill="#764534"/>
<path d="M254.655 357.652C257.033 357.652 264.388 357.831 267.149 359.52C269.911 361.209 277.632 375.249 277.632 375.249C277.632 375.249 272.672 375.714 271.314 377.045L267.578 372.13L265.853 393.105C265.853 393.105 259.857 395.08 255.263 395.08C250.67 395.08 243.198 392.783 243.198 392.783L242.483 371.093L236.63 378.207C236.63 378.207 232.501 375.803 231.134 375.982C231.134 375.982 236.272 363.846 241.402 360.646C246.541 357.447 254.655 357.661 254.655 357.661V357.652Z" fill="#FBB03B"/>
<path d="M231.143 375.964C231.143 375.964 228.372 382.416 230.937 383.489C233.511 384.561 235.504 384.597 238.328 383.936C241.152 383.274 249.32 381.442 249.32 381.442C249.32 381.442 247.667 379.029 248.266 377.555L236.397 378.708L236.63 378.189C236.63 378.189 233.841 375.857 231.134 375.964H231.143Z" fill="#FDE3CA"/>
<path d="M277.641 375.24C277.641 375.24 280.331 382.408 277.757 383.48C275.183 384.552 273.19 384.588 270.366 383.927C267.542 383.265 259.374 381.433 259.374 381.433C259.374 381.433 261.027 379.02 260.429 377.546L272.297 378.699L271.323 377.028C271.323 377.028 274.933 375.124 277.641 375.231V375.24Z" fill="#FDE3CA"/>
<path d="M265.683 384.329H243.869C243.431 384.329 243.064 383.971 243.064 383.525L241.5 369.047C241.5 368.609 241.858 368.243 242.305 368.243H267.247C267.685 368.243 268.052 368.6 268.052 369.047L266.488 383.525C266.488 383.963 266.13 384.329 265.683 384.329Z" fill="#EAEAEA"/>
<path d="M235.075 396.081C238.81 395.116 245.102 399.405 244.557 407.833C244.021 416.26 245.379 428.54 245.379 428.54C245.379 428.54 240.803 427.297 238.48 429.111C238.48 429.111 233.457 413.481 232.698 407.654C231.938 401.827 230.544 397.252 235.075 396.09V396.081Z" fill="#9C5C46"/>
<path d="M245.388 428.531C245.441 428.647 247.765 434.107 245.924 435.019C244.083 435.939 236.326 435.671 235.843 435.18C235.361 434.688 234.735 433.911 235.468 432.91C236.201 431.909 238.489 429.094 238.489 429.094C238.489 429.094 239.498 428.021 241.742 427.851C243.985 427.691 245.397 428.522 245.397 428.522L245.388 428.531Z" fill="#331D16"/>
<path d="M275.854 396.081C272.118 395.116 265.826 399.405 266.372 407.833C266.917 416.26 265.549 428.54 265.549 428.54C265.549 428.54 270.125 427.297 272.449 429.111C272.449 429.111 277.471 413.481 278.231 407.654C278.99 401.827 280.385 397.252 275.854 396.09V396.081Z" fill="#9C5C46"/>
<path d="M265.54 428.531C265.487 428.647 263.163 434.107 265.004 435.019C266.845 435.939 274.602 435.671 275.085 435.18C275.568 434.688 276.193 433.911 275.46 432.91C274.728 431.909 272.44 429.094 272.44 429.094C272.44 429.094 271.43 428.021 269.187 427.851C266.944 427.691 265.532 428.522 265.532 428.522L265.54 428.531Z" fill="#331D16"/>
<path d="M250.348 354.927H258.614V358.796C258.614 360.512 257.22 361.915 255.495 361.915H253.458C251.742 361.915 250.339 360.521 250.339 358.796V354.927H250.348Z" fill="#F0D6BE"/>
<path d="M254.209 353.819C252.77 353.738 248.677 353.148 247.899 351.709C247.122 350.271 245.102 345.195 247.774 343.005C247.774 343.005 247.461 340.342 253.806 340.342C260.152 340.342 262.618 344.354 260.884 351.182C260.884 351.182 258.15 354.042 254.209 353.819Z" fill="#572C3D"/>
<path d="M254.253 358.484V358.466C250.982 358.466 248.274 354.998 248.274 351.727V345.659C248.274 344.408 249.302 343.38 250.553 343.38H257.873C259.124 343.38 260.152 344.408 260.152 345.659V351.727C260.152 354.998 257.524 358.484 254.253 358.484Z" fill="#FDE3CA"/>
<path d="M248.838 351.37C248.838 351.37 247.863 349.717 247.023 350.717C246.183 351.727 247.703 354.292 249.034 354.221L248.838 351.361V351.37Z" fill="#FDE3CA"/>
<path d="M259.472 351.37C259.472 351.37 260.446 349.717 261.286 350.717C262.127 351.727 260.607 354.292 259.276 354.221L259.472 351.361V351.37Z" fill="#FDE3CA"/>
<path d="M248.266 349.583C248.266 349.502 248.444 346.857 249.338 345.65C249.338 345.65 253.833 349.216 260.598 345.65C260.598 345.65 260.286 342.201 257.086 342.281C253.887 342.362 248.945 343.041 248.855 343.068C248.775 343.094 247.89 344.783 247.89 344.783L248.257 349.583H248.266Z" fill="#572C3D"/>
<path d="M178.862 397.815C178.862 397.815 178.674 403.481 180.158 406.045C181.632 408.601 182.178 417.663 182.178 417.663C182.178 417.663 185.225 418.548 186.709 417.86L186.119 398.503C186.119 398.503 181.087 398.262 178.871 397.815H178.862Z" fill="#2A2B2A"/>
<path d="M182.178 418.387C182.178 418.387 180.909 419.987 181.561 420.952C182.213 421.917 185.118 424.044 188.246 424.464C191.374 424.893 194.269 425.51 195.082 424.813C195.896 424.116 193.268 423.535 191.454 422.418C189.64 421.301 186.709 418.584 186.709 418.584L182.178 418.387Z" fill="#541B53"/>
<path d="M159.925 395.259C159.925 395.259 180.06 400.129 181.186 402.784C182.321 405.438 187.093 426.904 187.093 426.904C187.093 426.904 184.68 429.165 181.972 428.039C181.972 428.039 179.514 418.834 178.773 417.654C178.031 416.475 175.028 411.3 175.421 407.314C175.421 407.314 152.534 407.163 151.596 401.657C150.657 396.143 159.916 395.259 159.916 395.259H159.925Z" fill="#1E1E1E"/>
<path d="M181.981 428.781C181.981 428.781 181.203 432.123 182.812 433.008C184.421 433.893 191.222 435.635 194.653 434.938C198.094 434.241 198.049 433.124 196.816 432.311C195.583 431.498 187.102 427.646 187.102 427.646C187.102 427.646 185.377 429.612 181.981 428.781Z" fill="#541B53"/>
<path d="M169.371 351.978C170.238 351.593 171.418 350.941 171.659 349.261C171.9 347.581 171.945 346.607 171.972 346.097C172.016 345.32 170.98 340.521 164.545 340.351C158.111 340.181 158.146 347.634 157.977 349.037C157.807 350.44 156.198 358.073 153.633 358.993C153.633 358.993 153.669 360.494 157.905 360.155C162.15 359.815 166.967 353.792 166.967 353.792L169.362 351.978H169.371Z" fill="#A14A24"/>
<path d="M168.191 372.327C168.191 372.327 168.066 376.992 170.738 377.626C173.411 378.261 175.913 378.895 175.913 378.895C175.913 378.895 174.644 380.718 174.939 382.542C174.939 382.542 168.915 383.605 166.779 381.782C164.635 379.959 163.92 373.721 163.92 373.721L168.2 372.318L168.191 372.327Z" fill="#0097B0"/>
<path d="M158.951 354.945C158.951 354.945 155.439 357.93 152.963 358.787C150.479 359.645 151.068 366.607 151.417 370.495C151.765 374.391 148.763 393.954 148.11 394.267C148.11 394.267 163.231 394.544 168.745 389.718C168.745 389.718 165.546 382.694 167.709 371.63C169.88 360.575 163.026 358.198 163.026 358.198L158.96 354.945H158.951Z" fill="#323233"/>
<path d="M163.124 357.617C163.124 357.617 167.03 359.493 167.745 361.763C168.468 364.033 169.389 369.279 168.728 373.891C168.066 378.502 167.494 387.519 170.443 389.486C170.443 389.486 168.245 391.505 166.601 391.461C166.601 391.461 163.16 387.868 163.705 381.299C164.25 374.74 164.831 370.146 164.5 367.126C164.179 364.105 163.124 357.608 163.124 357.608V357.617Z" fill="#00A8C5"/>
<path d="M175.913 378.904L184.072 380.021C184.072 380.021 182.696 382.041 182.982 382.854L174.939 382.551C174.939 382.551 174.438 380.683 175.913 378.904Z" fill="#FDE3CA"/>
<path d="M147.869 394.767C147.869 394.767 176.556 386.545 179.47 386.697C182.374 386.849 184.984 387.323 185.529 388.663C186.664 391.461 186.119 398.494 186.119 398.494C186.119 398.494 180.748 399.486 178.933 398.753C178.933 398.753 178.585 397.18 179.47 396.242C179.47 396.242 159.496 406.43 154.053 404.508C148.611 402.587 148.164 399.638 147.869 394.758V394.767Z" fill="#2A2B2A"/>
<path d="M162.525 348.564C162.132 350.289 161.203 356.509 164.876 357.536C168.558 358.564 171.498 349.297 171.427 345.543C171.355 341.79 163.696 343.407 162.525 348.564Z" fill="#FDE3CA"/>
<path d="M162.123 349.824C162.231 349.851 163.964 350.342 165.77 349.243C167.575 348.144 167.879 346.24 168.933 345.892C169.988 345.543 171.427 345.892 171.427 345.892C171.427 345.892 172.025 343.407 169.612 342.817C167.199 342.227 161.069 344.48 160.97 346.964C160.872 349.448 162.123 349.815 162.123 349.815V349.824Z" fill="#A14A24"/>
<path d="M163.562 350.226C163.517 350.003 163.92 347.036 161.9 347.795C159.88 348.564 161.632 352.424 162.731 351.933C163.83 351.441 163.562 350.226 163.562 350.226Z" fill="#FDE3CA"/>
<path d="M165.063 356.678L162.123 358.859C162.123 358.859 160.112 358.689 158.951 354.936L162.472 350.86C162.472 350.86 161.676 354.962 165.072 356.678H165.063Z" fill="#FDE3CA"/>
<path d="M158.951 354.945C158.951 354.945 160.64 360.128 160.738 365.472C160.836 370.816 158.7 381.594 158.718 385.241C158.736 388.887 159.192 392.327 159.192 392.327C159.192 392.327 154.402 396.322 147.36 396.474C147.36 396.474 147.663 392.926 148.611 389.191C149.558 385.446 150.908 373.167 150.756 371.12C150.604 369.074 150.005 360.78 152.051 358.939C154.098 357.098 158.942 354.954 158.942 354.954L158.951 354.945Z" fill="#00A8C5"/>
<path d="M154.241 358.519C155.85 358.948 156.279 362.362 154.965 366.053C153.651 369.744 151.533 375.151 151.908 375.919C152.293 376.697 154.455 377.966 154.455 377.966C154.455 377.966 152.463 379.834 152.373 382.542C152.373 382.542 146.949 382.461 145.84 379.619C144.741 376.777 148.468 363.971 148.468 363.971C148.468 363.971 150.881 357.626 154.232 358.519H154.241Z" fill="#0097B0"/>
<path d="M154.455 377.966C154.455 377.966 163.339 381.192 165.063 380.978C166.797 380.763 168.745 379.029 170.443 379.155C172.141 379.28 173.366 379.914 173.366 382.551C173.366 382.551 172.115 383.444 171.427 383.105C170.738 382.765 171.203 380.987 170.908 381.022C170.613 381.067 168.218 384.204 166.779 383.989C165.349 383.775 163.911 383.096 163.911 383.096L152.373 382.542C152.373 382.542 152.248 379.53 154.455 377.966Z" fill="#FDE3CA"/>
<path d="M182.946 384.677H167.682C167.298 384.677 166.985 384.365 166.985 383.98C166.985 383.596 167.298 383.283 167.682 383.283H182.946C183.33 383.283 183.643 383.596 183.643 383.98C183.643 384.365 183.33 384.677 182.946 384.677Z" fill="#D1D1D1"/>
<path d="M196.521 384.677H181.57C181.57 384.677 181.543 384.677 181.525 384.677C181.302 384.651 181.186 384.409 181.266 384.204L187.692 368.931C187.692 368.734 187.852 368.582 188.04 368.582H202.991C203.188 368.582 203.34 368.743 203.34 368.931L196.861 384.329C196.861 384.526 196.7 384.677 196.512 384.677H196.521Z" fill="#EAEAEA"/>
<path d="M138.682 392.551H143.928C145.081 392.551 145.233 391.666 145.125 390.513L144.285 372.488H140.827C139.638 372.488 138.673 373.453 138.673 374.642V392.551H138.682Z" fill="#C89B60"/>
<path d="M138.691 410.416H174.367V404.741H138.691V410.416Z" fill="#DBB87A"/>
<path opacity="0.6" d="M138.691 410.416H174.367V409.763H138.691V410.416Z" fill="#996930"/>
<path d="M169.21 434.366H174.367V410.416H169.21V434.366Z" fill="#E8C380"/>
<path d="M143.847 434.357H138.691V376.366C138.691 374.221 140.434 372.479 142.578 372.479H143.847V434.357Z" fill="#E8C380"/>
<path d="M171.73 407.583C172.046 407.583 172.302 407.327 172.302 407.011C172.302 406.695 172.046 406.439 171.73 406.439C171.414 406.439 171.158 406.695 171.158 407.011C171.158 407.327 171.414 407.583 171.73 407.583Z" fill="#E8E7E7"/>
<path d="M141.318 407.583C141.634 407.583 141.89 407.327 141.89 407.011C141.89 406.695 141.634 406.439 141.318 406.439C141.002 406.439 140.746 406.695 140.746 407.011C140.746 407.327 141.002 407.583 141.318 407.583Z" fill="#E8E7E7"/>
<path d="M141.318 389.459C141.634 389.459 141.89 389.203 141.89 388.887C141.89 388.571 141.634 388.315 141.318 388.315C141.002 388.315 140.746 388.571 140.746 388.887C140.746 389.203 141.002 389.459 141.318 389.459Z" fill="#E8E7E7"/>
<path d="M141.318 378.457C141.634 378.457 141.89 378.201 141.89 377.885C141.89 377.57 141.634 377.314 141.318 377.314C141.002 377.314 140.746 377.57 140.746 377.885C140.746 378.201 141.002 378.457 141.318 378.457Z" fill="#E8E7E7"/>
<path d="M175.251 388.065V391.89H334.372V388.065H175.251Z" fill="#B27A37"/>
<path d="M340.744 384.329H168.138C167.358 384.329 166.726 384.961 166.726 385.741V386.661C166.726 387.441 167.358 388.073 168.138 388.073H340.744C341.524 388.073 342.156 387.441 342.156 386.661V385.741C342.156 384.961 341.524 384.329 340.744 384.329Z" fill="#E4C080"/>
<path d="M175.251 388.073H171.427V434.366H175.251V388.073Z" fill="#C59651"/>
<path d="M338.197 388.073H334.372V434.366H338.197V388.073Z" fill="#C59651"/>
<path d="M312.307 373.39C312.307 373.39 314.398 367.385 319.492 370.852C319.492 370.852 315.319 361.442 310.555 373.775L312.307 373.39Z" fill="#67A846"/>
<path d="M310.555 373.775C310.555 373.775 311.726 362.746 318.241 365.258C318.241 365.258 312.977 365.821 312.307 373.39L310.555 373.775Z" fill="#67A846"/>
<path d="M307.883 373.444C307.883 373.444 303.37 368.18 301.038 374.025C301.038 374.025 301.788 366.929 308.053 370.432C308.053 370.432 309.394 371.773 309.974 373.694L307.883 373.444Z" fill="#67A846"/>
<path d="M311.056 373.775C311.056 373.775 309.635 358.153 302.199 367.009C302.199 367.009 307.213 362.746 309.965 373.694L311.047 373.775H311.056Z" fill="#67A846"/>
<path d="M311.056 373.775C311.056 373.775 311.896 361.075 320.162 363.417C320.162 363.417 314.068 359.404 310.386 366.259C310.386 366.259 309.385 367.93 310.216 371.272C311.047 374.615 311.047 373.775 311.047 373.775H311.056Z" fill="#67A846"/>
<path d="M309.76 373.319C309.76 373.319 308.133 368.43 303.996 368.681C303.996 368.681 306.838 367.179 310.216 371.272L309.965 373.694L309.76 373.319Z" fill="#67A846"/>
<path d="M316.641 374.516L316.525 375.16H303.862L303.745 374.516C303.602 373.703 304.157 373.042 304.979 373.042H315.417C316.239 373.042 316.793 373.703 316.65 374.516H316.641Z" fill="#F0962A"/>
<path d="M315.917 375.061L315.783 375.821H304.603L304.46 375.061H315.917Z" fill="#D18733"/>
<path d="M315.783 375.821L314.479 383.042C314.345 383.775 313.63 384.374 312.879 384.374H307.508C306.766 384.374 306.042 383.775 305.908 383.042L304.603 375.821H315.783Z" fill="#F0962A"/>
<path d="M218.613 375.964C217.746 376.679 216.736 376.893 216.361 376.438C215.986 375.982 216.379 375.026 217.255 374.311C218.122 373.596 219.131 373.381 219.507 373.837C219.882 374.293 219.489 375.249 218.613 375.964Z" fill="#6BB94D"/>
<path d="M219.114 374.159C219.248 374.329 219.507 374.114 219.373 373.944C219.239 373.775 218.98 373.989 219.114 374.159Z" fill="#67A846"/>
<path d="M219.158 374.686C219.292 374.856 219.551 374.641 219.417 374.472C219.283 374.302 219.024 374.516 219.158 374.686Z" fill="#67A846"/>
<path d="M218.202 374.677C218.336 374.847 218.595 374.632 218.461 374.463C218.327 374.293 218.068 374.507 218.202 374.677Z" fill="#67A846"/>
<path d="M218.381 375.258C218.515 375.428 218.774 375.213 218.64 375.044C218.506 374.874 218.247 375.088 218.381 375.258Z" fill="#67A846"/>
<path d="M217.576 375.776C217.71 375.946 217.97 375.732 217.836 375.562C217.702 375.392 217.442 375.607 217.576 375.776Z" fill="#67A846"/>
<path d="M216.844 375.481C216.978 375.651 217.237 375.437 217.103 375.267C216.969 375.097 216.71 375.312 216.844 375.481Z" fill="#67A846"/>
<path d="M217.451 375.088C217.585 375.258 217.845 375.044 217.71 374.874C217.576 374.704 217.317 374.918 217.451 375.088Z" fill="#67A846"/>
<path d="M217.827 375.383C217.961 375.553 218.22 375.338 218.086 375.169C217.952 374.999 217.693 375.213 217.827 375.383Z" fill="#67A846"/>
<path d="M217.666 374.561C217.8 374.731 218.059 374.516 217.925 374.347C217.791 374.177 217.532 374.391 217.666 374.561Z" fill="#67A846"/>
<path d="M218.309 374.025C218.443 374.195 218.702 373.98 218.568 373.81C218.434 373.64 218.175 373.855 218.309 374.025Z" fill="#67A846"/>
<path d="M218.64 374.355C218.774 374.525 219.033 374.311 218.899 374.141C218.765 373.971 218.506 374.186 218.64 374.355Z" fill="#67A846"/>
<path d="M218.676 374.847C218.81 375.017 219.069 374.802 218.935 374.632C218.801 374.463 218.542 374.677 218.676 374.847Z" fill="#67A846"/>
<path d="M218.229 375.812C218.363 375.982 218.622 375.767 218.488 375.598C218.354 375.428 218.095 375.642 218.229 375.812Z" fill="#67A846"/>
<path d="M217.389 376.5C217.523 376.67 217.782 376.456 217.648 376.286C217.514 376.116 217.255 376.33 217.389 376.5Z" fill="#67A846"/>
<path d="M216.558 376.33C216.692 376.5 216.951 376.286 216.817 376.116C216.683 375.946 216.424 376.161 216.558 376.33Z" fill="#67A846"/>
<path d="M217.022 376.053C217.156 376.223 217.416 376.009 217.282 375.839C217.147 375.669 216.888 375.884 217.022 376.053Z" fill="#67A846"/>
<path d="M217.308 375.562C217.442 375.732 217.702 375.517 217.568 375.347C217.433 375.178 217.174 375.392 217.308 375.562Z" fill="#67A846"/>
<path d="M216.987 374.838C217.121 375.008 217.38 374.793 217.246 374.624C217.112 374.454 216.853 374.668 216.987 374.838Z" fill="#67A846"/>
<path d="M217.961 374.981C218.095 375.151 218.354 374.936 218.22 374.767C218.086 374.597 217.827 374.811 217.961 374.981Z" fill="#67A846"/>
<path d="M218.014 374.239C218.148 374.409 218.408 374.195 218.274 374.025C218.139 373.855 217.88 374.069 218.014 374.239Z" fill="#67A846"/>
<path d="M218.667 375.526C218.801 375.696 219.06 375.481 218.926 375.312C218.792 375.142 218.533 375.356 218.667 375.526Z" fill="#67A846"/>
<path d="M219.024 375.079C219.158 375.249 219.417 375.035 219.283 374.865C219.149 374.695 218.89 374.91 219.024 375.079Z" fill="#67A846"/>
<path d="M218.845 373.989C218.98 374.159 219.239 373.944 219.105 373.775C218.971 373.605 218.711 373.819 218.845 373.989Z" fill="#67A846"/>
<path d="M217.755 376.179C217.889 376.348 218.148 376.134 218.014 375.964C217.88 375.794 217.621 376.009 217.755 376.179Z" fill="#67A846"/>
<path d="M217.943 375.678C218.077 375.848 218.336 375.633 218.202 375.464C218.068 375.294 217.809 375.508 217.943 375.678Z" fill="#67A846"/>
<path d="M216.415 375.884C216.549 376.053 216.808 375.839 216.674 375.669C216.54 375.499 216.281 375.714 216.415 375.884Z" fill="#67A846"/>
<path d="M216.683 375.285C216.817 375.455 217.076 375.24 216.942 375.07C216.808 374.901 216.549 375.115 216.683 375.285Z" fill="#67A846"/>
<path d="M217.058 375.204C217.192 375.374 217.451 375.16 217.317 374.99C217.183 374.82 216.924 375.035 217.058 375.204Z" fill="#67A846"/>
<path d="M217.29 374.552C217.425 374.722 217.684 374.507 217.55 374.338C217.416 374.168 217.156 374.382 217.29 374.552Z" fill="#67A846"/>
<path d="M217.567 374.212C217.702 374.382 217.961 374.168 217.827 373.998C217.693 373.828 217.433 374.043 217.567 374.212Z" fill="#67A846"/>
<path d="M216.915 376.384C217.049 376.554 217.308 376.339 217.174 376.17C217.04 376 216.781 376.214 216.915 376.384Z" fill="#67A846"/>
<path d="M217.469 376.107C217.603 376.277 217.862 376.062 217.728 375.893C217.594 375.723 217.335 375.937 217.469 376.107Z" fill="#67A846"/>
<path d="M216.745 375.785C216.879 375.955 217.139 375.741 217.004 375.571C216.87 375.401 216.611 375.616 216.745 375.785Z" fill="#67A846"/>
<path d="M213.644 371.808C214.842 372.943 215.333 374.364 214.734 374.999C214.145 375.624 212.688 375.222 211.49 374.087C210.293 372.952 209.801 371.531 210.391 370.897C210.981 370.271 212.438 370.673 213.635 371.808H213.644Z" fill="#6BB94D"/>
<path d="M210.936 371.406C211.151 371.174 210.793 370.843 210.579 371.067C210.364 371.299 210.722 371.63 210.936 371.406Z" fill="#67A846"/>
<path d="M211.696 371.245C211.91 371.013 211.553 370.682 211.338 370.906C211.124 371.138 211.481 371.469 211.696 371.245Z" fill="#67A846"/>
<path d="M211.857 372.64C212.071 372.407 211.714 372.077 211.499 372.3C211.285 372.532 211.642 372.863 211.857 372.64Z" fill="#67A846"/>
<path d="M212.67 372.282C212.885 372.05 212.527 371.719 212.313 371.942C212.098 372.175 212.456 372.506 212.67 372.282Z" fill="#67A846"/>
<path d="M213.564 373.355C213.778 373.122 213.421 372.792 213.206 373.015C212.992 373.247 213.349 373.578 213.564 373.355Z" fill="#67A846"/>
<path d="M213.278 374.472C213.492 374.239 213.135 373.909 212.92 374.132C212.706 374.364 213.063 374.695 213.278 374.472Z" fill="#67A846"/>
<path d="M212.581 373.658C212.795 373.426 212.438 373.095 212.223 373.319C212.009 373.551 212.366 373.882 212.581 373.658Z" fill="#67A846"/>
<path d="M212.947 373.06C213.162 372.827 212.804 372.497 212.59 372.72C212.375 372.952 212.733 373.283 212.947 373.06Z" fill="#67A846"/>
<path d="M211.776 373.444C211.991 373.212 211.633 372.881 211.419 373.104C211.204 373.337 211.562 373.667 211.776 373.444Z" fill="#67A846"/>
<path d="M210.892 372.595C211.106 372.363 210.749 372.032 210.534 372.255C210.32 372.488 210.677 372.818 210.892 372.595Z" fill="#67A846"/>
<path d="M211.312 372.059C211.526 371.826 211.169 371.496 210.954 371.719C210.74 371.951 211.097 372.282 211.312 372.059Z" fill="#67A846"/>
<path d="M212.027 371.925C212.241 371.692 211.884 371.362 211.669 371.585C211.455 371.817 211.812 372.148 212.027 371.925Z" fill="#67A846"/>
<path d="M213.501 372.398C213.716 372.166 213.358 371.835 213.144 372.059C212.929 372.291 213.287 372.622 213.501 372.398Z" fill="#67A846"/>
<path d="M214.645 373.497C214.86 373.265 214.502 372.934 214.288 373.158C214.073 373.39 214.431 373.721 214.645 373.497Z" fill="#67A846"/>
<path d="M214.556 374.731C214.77 374.498 214.413 374.168 214.198 374.391C213.984 374.624 214.341 374.954 214.556 374.731Z" fill="#67A846"/>
<path d="M214.064 374.114C214.279 373.882 213.921 373.551 213.707 373.775C213.492 374.007 213.85 374.338 214.064 374.114Z" fill="#67A846"/>
<path d="M213.305 373.775C213.519 373.542 213.162 373.212 212.947 373.435C212.733 373.667 213.09 373.998 213.305 373.775Z" fill="#67A846"/>
<path d="M212.304 374.382C212.518 374.15 212.161 373.819 211.946 374.043C211.732 374.275 212.089 374.606 212.304 374.382Z" fill="#67A846"/>
<path d="M212.339 372.934C212.554 372.702 212.196 372.371 211.982 372.595C211.767 372.827 212.125 373.158 212.339 372.934Z" fill="#67A846"/>
<path d="M211.258 372.997C211.473 372.765 211.115 372.434 210.901 372.657C210.686 372.89 211.044 373.22 211.258 372.997Z" fill="#67A846"/>
<path d="M213.001 371.808C213.215 371.576 212.858 371.245 212.643 371.469C212.429 371.701 212.786 372.032 213.001 371.808Z" fill="#67A846"/>
<path d="M212.295 371.371C212.509 371.138 212.152 370.808 211.937 371.031C211.723 371.263 212.08 371.594 212.295 371.371Z" fill="#67A846"/>
<path d="M210.74 371.826C210.954 371.594 210.597 371.263 210.382 371.487C210.168 371.719 210.525 372.05 210.74 371.826Z" fill="#67A846"/>
<path d="M214.109 373.015C214.323 372.783 213.966 372.452 213.751 372.675C213.537 372.908 213.894 373.238 214.109 373.015Z" fill="#67A846"/>
<path d="M213.358 372.836C213.573 372.604 213.215 372.273 213.001 372.497C212.786 372.729 213.144 373.06 213.358 372.836Z" fill="#67A846"/>
<path d="M213.921 375.017C214.136 374.784 213.778 374.454 213.564 374.677C213.349 374.91 213.707 375.24 213.921 375.017Z" fill="#67A846"/>
<path d="M213.001 374.731C213.215 374.498 212.858 374.168 212.643 374.391C212.429 374.624 212.786 374.954 213.001 374.731Z" fill="#67A846"/>
<path d="M212.831 374.204C213.045 373.971 212.688 373.64 212.473 373.864C212.259 374.096 212.616 374.427 212.831 374.204Z" fill="#67A846"/>
<path d="M211.839 373.989C212.053 373.757 211.696 373.426 211.481 373.649C211.267 373.882 211.624 374.212 211.839 373.989Z" fill="#67A846"/>
<path d="M211.303 373.64C211.517 373.408 211.16 373.077 210.945 373.301C210.731 373.533 211.088 373.864 211.303 373.64Z" fill="#67A846"/>
<path d="M214.556 374.204C214.77 373.971 214.413 373.64 214.198 373.864C213.984 374.096 214.341 374.427 214.556 374.204Z" fill="#67A846"/>
<path d="M214.064 373.444C214.279 373.212 213.921 372.881 213.707 373.104C213.492 373.337 213.85 373.667 214.064 373.444Z" fill="#67A846"/>
<path d="M213.725 374.561C213.939 374.329 213.582 373.998 213.367 374.221C213.153 374.454 213.51 374.784 213.725 374.561Z" fill="#67A846"/>
<path d="M217.934 372.729C217.934 375.848 216.611 378.377 214.976 378.377C213.34 378.377 212.018 375.848 212.018 372.729C212.018 369.61 213.34 367.081 214.976 367.081C216.611 367.081 217.934 369.61 217.934 372.729Z" fill="#6BB94D"/>
<path d="M214.976 368.484C215.575 368.484 215.575 367.554 214.976 367.554C214.377 367.554 214.377 368.484 214.976 368.484Z" fill="#67A846"/>
<path d="M216.173 369.315C216.772 369.315 216.772 368.386 216.173 368.386C215.575 368.386 215.575 369.315 216.173 369.315Z" fill="#67A846"/>
<path d="M214.484 371.353C215.083 371.353 215.083 370.423 214.484 370.423C213.885 370.423 213.885 371.353 214.484 371.353Z" fill="#67A846"/>
<path d="M216.021 371.996C216.62 371.996 216.62 371.067 216.021 371.067C215.423 371.067 215.423 371.996 216.021 371.996Z" fill="#67A846"/>
<path d="M215.718 374.624C216.316 374.624 216.316 373.694 215.718 373.694C215.119 373.694 215.119 374.624 215.718 374.624Z" fill="#67A846"/>
<path d="M213.805 375.669C214.404 375.669 214.404 374.74 213.805 374.74C213.206 374.74 213.206 375.669 213.805 375.669Z" fill="#67A846"/>
<path d="M214.02 373.667C214.618 373.667 214.618 372.738 214.02 372.738C213.421 372.738 213.421 373.667 214.02 373.667Z" fill="#67A846"/>
<path d="M215.315 373.39C215.914 373.39 215.914 372.461 215.315 372.461C214.717 372.461 214.717 373.39 215.315 373.39Z" fill="#67A846"/>
<path d="M213.278 372.273C213.877 372.273 213.877 371.344 213.278 371.344C212.679 371.344 212.679 372.273 213.278 372.273Z" fill="#67A846"/>
<path d="M213.278 369.959C213.877 369.959 213.877 369.029 213.278 369.029C212.679 369.029 212.679 369.959 213.278 369.959Z" fill="#67A846"/>
<path d="M214.574 369.842C215.172 369.842 215.172 368.913 214.574 368.913C213.975 368.913 213.975 369.842 214.574 369.842Z" fill="#67A846"/>
<path d="M215.682 370.638C216.281 370.638 216.281 369.708 215.682 369.708C215.083 369.708 215.083 370.638 215.682 370.638Z" fill="#67A846"/>
<path d="M216.951 373.292C217.55 373.292 217.55 372.363 216.951 372.363C216.352 372.363 216.352 373.292 216.951 373.292Z" fill="#67A846"/>
<path d="M216.915 376.286C217.514 376.286 217.514 375.356 216.915 375.356C216.316 375.356 216.316 376.286 216.915 376.286Z" fill="#67A846"/>
<path d="M215.101 377.769C215.7 377.769 215.7 376.84 215.101 376.84C214.502 376.84 214.502 377.769 215.101 377.769Z" fill="#67A846"/>
<path d="M215.315 376.286C215.914 376.286 215.914 375.356 215.315 375.356C214.717 375.356 214.717 376.286 215.315 376.286Z" fill="#67A846"/>
<path d="M214.788 374.802C215.387 374.802 215.387 373.873 214.788 373.873C214.189 373.873 214.189 374.802 214.788 374.802Z" fill="#67A846"/>
<path d="M212.661 374.221C213.26 374.221 213.26 373.292 212.661 373.292C212.062 373.292 212.062 374.221 212.661 374.221Z" fill="#67A846"/>
<path d="M214.699 372.398C215.297 372.398 215.297 371.469 214.699 371.469C214.1 371.469 214.1 372.398 214.699 372.398Z" fill="#67A846"/>
<path d="M213.215 370.977C213.814 370.977 213.814 370.048 213.215 370.048C212.616 370.048 212.616 370.977 213.215 370.977Z" fill="#67A846"/>
<path d="M217.103 371.844C217.702 371.844 217.702 370.915 217.103 370.915C216.504 370.915 216.504 371.844 217.103 371.844Z" fill="#67A846"/>
<path d="M216.79 370.298C217.389 370.298 217.389 369.369 216.79 369.369C216.191 369.369 216.191 370.298 216.79 370.298Z" fill="#67A846"/>
<path d="M214.145 368.761C214.743 368.761 214.743 367.832 214.145 367.832C213.546 367.832 213.546 368.761 214.145 368.761Z" fill="#67A846"/>
<path d="M216.888 374.927C217.487 374.927 217.487 373.998 216.888 373.998C216.29 373.998 216.29 374.927 216.888 374.927Z" fill="#67A846"/>
<path d="M216.147 373.667C216.745 373.667 216.745 372.738 216.147 372.738C215.548 372.738 215.548 373.667 216.147 373.667Z" fill="#67A846"/>
<path d="M213.894 377.278C214.493 377.278 214.493 376.348 213.894 376.348C213.296 376.348 213.296 377.278 213.894 377.278Z" fill="#67A846"/>
<path d="M213.09 375.642C213.689 375.642 213.689 374.713 213.09 374.713C212.491 374.713 212.491 375.642 213.09 375.642Z" fill="#67A846"/>
<path d="M213.582 374.713C214.18 374.713 214.18 373.783 213.582 373.783C212.983 373.783 212.983 374.713 213.582 374.713Z" fill="#67A846"/>
<path d="M212.599 373.077C213.197 373.077 213.197 372.148 212.599 372.148C212 372.148 212 373.077 212.599 373.077Z" fill="#67A846"/>
<path d="M212.384 371.871C212.983 371.871 212.983 370.942 212.384 370.942C211.785 370.942 211.785 371.871 212.384 371.871Z" fill="#67A846"/>
<path d="M215.834 377.09C216.432 377.09 216.432 376.161 215.834 376.161C215.235 376.161 215.235 377.09 215.834 377.09Z" fill="#67A846"/>
<path d="M216.236 375.419C216.835 375.419 216.835 374.489 216.236 374.489C215.637 374.489 215.637 375.419 216.236 375.419Z" fill="#67A846"/>
<path d="M214.261 376.411C214.86 376.411 214.86 375.481 214.261 375.481C213.662 375.481 213.662 376.411 214.261 376.411Z" fill="#67A846"/>
<path d="M211.097 378.457V382.175C211.097 383.462 212.152 384.517 213.439 384.517H216.486C217.773 384.517 218.828 383.462 218.828 382.175V378.457H211.097Z" fill="#C6C5C4"/>
<path d="M219.721 377.278H210.195V378.457H219.721V377.278Z" fill="#C6C5C4"/>
<path d="M218.828 378.457H211.097V379.047H218.828V378.457Z" fill="#AAAAAA"/>
<path d="M110.96 362.255C110.96 362.255 116.59 362.881 119.7 362.148C119.7 362.148 123.275 394.32 123.114 397.135C122.962 399.951 121.157 429.889 121.157 429.889L115.839 430.434C115.839 430.434 114.901 417.538 114.552 414.643C114.204 411.747 114.356 402.524 116.313 398.467C116.313 398.467 108.261 372.827 108.806 368.144C109.351 363.452 110.951 362.255 110.951 362.255H110.96Z" fill="#191818"/>
<path d="M104.847 359.896C104.847 359.896 101.201 364.284 101.817 367.51C102.434 370.736 103.292 398.619 103.292 398.619C103.292 398.619 100.825 404.196 100.7 407.172C100.575 410.147 100.7 429.728 100.7 429.728C100.7 429.728 102.783 428.656 104.168 429.728C104.883 430.282 104.838 430.22 104.838 430.22C104.838 430.22 110.236 403.329 110.862 398.369C111.478 393.409 114.543 362.577 114.543 362.577C114.543 362.577 110.593 363.068 104.838 359.896H104.847Z" fill="#212120"/>
<path d="M115.973 329.278C116.295 329.332 129.763 332.057 131.577 330.1C133.391 328.152 140.469 319.26 140.469 319.26L143.597 321.476C143.597 321.476 134.83 336.106 133.454 336.356C132.078 336.606 122.372 336.544 122.122 337.732C121.872 338.921 119.691 362.157 119.691 362.157C119.691 362.157 110.79 364.033 104.847 359.905C104.847 359.905 105.553 353.801 104.927 351.2C104.302 348.599 103.784 343.246 103.846 341.182C103.909 339.117 98.3321 346.884 98.5823 348.51C98.8325 350.137 104.472 358.484 104.472 358.484C104.472 358.484 102.22 360.45 102.407 361.835C102.407 361.835 92.264 352.576 92.0763 348.385C91.8886 344.194 99.7798 332.46 101.782 331.754C103.784 331.047 110.048 328.912 110.048 328.912C110.048 328.912 111.746 329.224 114.195 329.037C116.644 328.849 115.982 329.287 115.982 329.287L115.973 329.278Z" fill="#EDECED"/>
<path d="M115.866 321.351C116.715 319.68 119.852 313.817 119.691 312.387C119.53 310.957 119.012 311.369 118.333 310.68C117.654 309.983 117.493 309.17 116.796 309.251C116.099 309.331 116.429 309.983 115.169 310.064C113.909 310.144 109.673 310.511 108.931 311.655C108.198 312.798 108.565 314.47 108.565 314.47C108.565 314.47 106.938 315.694 107.18 317.481C107.421 319.278 107.984 321.753 110.576 323.675L115.866 321.351Z" fill="#714B43"/>
<path d="M118.333 325.265C118.333 325.265 115.634 326.15 115.419 329.484L110.361 329.064C110.361 329.064 110.361 317.928 112.425 315.399L118.333 325.265Z" fill="#FDE3CA"/>
<path d="M111.746 317.678C111.997 319.537 110.987 325.65 119.253 325.775C119.253 325.775 120.647 322.995 120.263 319.573C119.879 316.15 119.548 314.255 118.663 313.79C117.779 313.326 111.827 312.691 111.496 314.675C111.156 316.659 111.746 317.669 111.746 317.669V317.678Z" fill="#FDE3CA"/>
<path d="M111.496 318.983C111.496 318.983 111.174 316.623 109.816 317.133C108.458 317.642 109.155 320.145 111.174 320.851L111.496 318.983Z" fill="#FDE3CA"/>
<path d="M110.164 327.115L114.821 329.332L113.114 332.102L109.28 328.876L110.164 327.115Z" fill="#C1272D"/>
<path d="M114.821 329.332L115.947 331.78L116.313 329.081L115.67 328.125L114.821 329.332Z" fill="#C1272D"/>
<path d="M104.472 358.475L107.475 361.29L104.266 364.212L102.407 361.826C102.407 361.826 102.005 360.36 104.472 358.475Z" fill="#FDE3CA"/>
<path d="M115.839 430.443C115.839 430.443 114.937 435.439 115.839 435.832C116.742 436.225 122.98 436.833 126.483 436.109C129.986 435.385 130.156 434.661 129.039 434.331C127.922 434 123.722 433.696 121.148 429.898L115.83 430.443H115.839Z" fill="#191818"/>
<path d="M102.854 429.254C101.969 429.254 100.057 429.004 98.5376 432.802C97.0183 436.601 97.5188 436.118 98.7253 436.243C99.9318 436.368 105.508 436.636 106.572 436.243C107.635 435.85 105.723 429.246 102.854 429.254Z" fill="#191818"/>
<path d="M140.478 319.26C140.478 319.26 140.55 312.977 141.104 312.423C141.658 311.869 142.534 314.443 142.534 314.443C142.534 314.443 144.929 309.099 145.751 309.242C146.573 309.385 148.191 311.771 148.28 312.602C148.369 313.433 147.726 315.542 146.805 316.74C145.885 317.937 144.544 319.912 143.606 321.467L140.478 319.251V319.26Z" fill="#FDE3CA"/>
</g>
<defs>
<clipPath id="clip0_3_1600">
<rect width="600.181" height="463" fill="white"/>
</clipPath>
</defs>
</svg>
