<svg viewBox="0 0 477 339" fill="none" xmlns="http://www.w3.org/2000/svg">
<g clip-path="url(#clip0_3_2359)">
<path d="M452.723 214.281C452.723 257.894 439.693 298.455 417.318 332.306C415.987 334.316 414.628 336.299 413.232 338.262H63.643C62.2469 336.299 60.888 334.316 59.5571 332.306C37.1825 298.455 24.1523 257.894 24.1523 214.281C24.1523 95.939 120.091 0 238.433 0C356.775 0 452.714 95.939 452.714 214.281H452.723Z" fill="#E5E6EB"/>
<path d="M476.875 335.284C476.875 336.103 476.54 336.848 476 337.388C475.684 337.704 475.293 337.955 474.865 338.095C474.558 338.207 474.232 338.262 473.897 338.262H2.97832C2.80148 338.262 2.62464 338.244 2.45711 338.216C1.06103 337.965 0 336.745 0 335.284C0 334.456 0.335061 333.711 0.874881 333.181C1.29371 332.762 1.84283 332.464 2.45711 332.352C2.62464 332.315 2.80148 332.306 2.97832 332.306H473.888C474.232 332.306 474.548 332.362 474.855 332.473C476.028 332.873 476.866 333.981 476.866 335.293L476.875 335.284Z" fill="#050F64"/>
<path d="M404.763 73.5924H72.1125C64.3559 73.5924 58.0679 79.8804 58.0679 87.637V289.269C58.0679 297.026 64.3559 303.314 72.1125 303.314H404.763C412.519 303.314 418.807 297.026 418.807 289.269V87.637C418.807 79.8804 412.519 73.5924 404.763 73.5924Z" fill="#050F64"/>
<path d="M70.6885 86.213V279.04H406.187V86.213H70.6885Z" fill="#403F41"/>
<path d="M300.745 303.304H176.14V311.672H300.745V303.304Z" fill="#155BCD"/>
<path d="M319.229 332.334H157.646L176.14 310.899H300.736L319.229 332.334Z" fill="#155BCD"/>
<path d="M125.201 124.67C125.694 125.08 125.936 125.62 125.936 126.281C125.936 127.137 125.611 127.835 124.959 128.384C124.317 128.924 123.358 129.203 122.083 129.203C120.501 129.203 119.189 128.71 118.128 127.733L118.947 126.346L118.965 126.327L118.984 126.346C119.421 126.904 119.859 127.314 120.287 127.574C120.752 127.844 121.357 127.984 122.12 127.984C122.837 127.984 123.423 127.844 123.852 127.574C124.27 127.314 124.484 126.951 124.484 126.495C124.484 126.104 124.317 125.778 123.973 125.517C123.647 125.257 123.032 124.987 122.139 124.698C119.803 124.028 118.63 123.07 118.63 121.804C118.63 121.097 118.928 120.529 119.524 120.091C120.11 119.673 120.957 119.458 122.055 119.458C122.902 119.458 123.61 119.579 124.177 119.821C124.819 120.091 125.35 120.464 125.769 120.92L124.931 121.943L124.913 121.962C124.615 121.497 124.205 121.152 123.684 120.92C123.153 120.678 122.623 120.547 122.092 120.547C121.506 120.547 121.031 120.65 120.659 120.855C120.278 121.069 120.091 121.357 120.091 121.711C120.091 122.064 120.278 122.362 120.659 122.651C121.05 122.939 121.739 123.219 122.716 123.507C123.833 123.833 124.652 124.224 125.182 124.67H125.201ZM118.993 126.262L118.956 126.327C118.919 126.262 118.9 126.225 118.919 126.225L119.002 126.262H118.993ZM119.179 126.262C119.179 126.318 119.114 126.318 118.993 126.262L119.058 126.16L119.179 126.243V126.262ZM124.959 122.055C124.959 122.055 124.95 122.083 124.922 122.055L124.903 122.037C124.903 122.037 124.875 122.018 124.866 122.018L124.801 122.102L124.698 121.999C124.698 121.934 124.754 121.934 124.866 122.018L124.931 121.953C124.931 121.953 124.968 122.027 124.968 122.055H124.959Z" fill="#00ADEE"/>
<path d="M138.287 121.301V120.054H146.673V121.301H138.287ZM138.287 124.503V123.256H146.673V124.503H138.287Z" fill="#E6E7E7"/>
<path d="M165.781 117.932C166.479 119.105 166.823 120.696 166.823 122.707C166.823 124.717 166.479 126.392 165.799 127.528C165.12 128.654 164.143 129.222 162.877 129.222C161.611 129.222 160.643 128.654 159.954 127.528C159.275 126.402 158.931 124.791 158.931 122.707C158.931 120.622 159.275 119.105 159.973 117.932C160.671 116.778 161.63 116.201 162.868 116.201C164.105 116.201 165.073 116.778 165.762 117.932H165.781ZM161.062 118.872C160.624 119.821 160.41 121.106 160.41 122.707C160.41 123.591 160.476 124.373 160.597 125.052L164.924 119.458C164.72 118.807 164.45 118.304 164.105 117.969C163.752 117.616 163.342 117.439 162.877 117.439C162.104 117.439 161.499 117.913 161.062 118.872ZM164.692 126.606C165.129 125.666 165.343 124.373 165.343 122.707C165.343 121.878 165.297 121.199 165.204 120.668L160.876 126.178C161.295 127.379 161.965 127.975 162.877 127.975C163.668 127.975 164.273 127.519 164.692 126.606Z" fill="#D6DE22"/>
<path d="M125.815 147.166C125.424 146.673 125.099 146.356 124.838 146.207C124.568 146.04 124.196 145.965 123.74 145.965C123.098 145.965 122.595 146.161 122.232 146.533C121.86 146.924 121.683 147.538 121.683 148.367V149.139H124.745V150.303H121.683V158.465H120.277V150.303H118.258V149.139H120.277V148.367C120.277 147.166 120.594 146.273 121.218 145.677C121.841 145.081 122.669 144.774 123.712 144.774C124.335 144.774 124.894 144.886 125.387 145.1C125.908 145.333 126.318 145.649 126.634 146.059L125.862 147.138L125.843 147.157L125.815 147.166ZM125.592 147.203C125.592 147.203 125.62 147.166 125.676 147.185C125.685 147.194 125.713 147.203 125.741 147.203L125.778 147.222L125.713 147.306L125.592 147.222V147.203ZM125.778 147.222L125.815 147.157L125.88 147.296L125.862 147.278C125.862 147.278 125.797 147.213 125.778 147.213V147.222Z" fill="#EB008B"/>
<path d="M132.265 158.642C131.437 158.642 130.692 158.437 130.041 158.028C129.389 157.618 128.877 157.05 128.505 156.315C128.142 155.58 127.956 154.742 127.956 153.802C127.956 152.862 128.142 152.024 128.505 151.289C128.877 150.554 129.38 149.986 130.041 149.577C130.72 149.158 131.465 148.944 132.265 148.944C133.066 148.944 133.81 149.158 134.49 149.577C135.141 149.986 135.653 150.554 136.016 151.289C136.388 152.024 136.565 152.862 136.565 153.802C136.565 154.742 136.379 155.58 136.016 156.315C135.653 157.05 135.141 157.618 134.49 158.028C133.838 158.437 133.094 158.642 132.265 158.642ZM133.699 156.948C134.108 156.632 134.434 156.203 134.676 155.664C134.909 155.142 135.02 154.519 135.02 153.784C135.02 152.723 134.76 151.848 134.248 151.168C133.745 150.498 133.084 150.172 132.265 150.172C131.446 150.172 130.785 150.507 130.283 151.168C129.762 151.848 129.51 152.723 129.51 153.784C129.51 154.519 129.622 155.142 129.855 155.664C130.097 156.203 130.422 156.641 130.832 156.948C131.251 157.264 131.725 157.413 132.265 157.413C132.805 157.413 133.27 157.255 133.699 156.948Z" fill="#EB008B"/>
<path d="M146.059 151.103C145.677 150.74 145.351 150.489 145.081 150.368C144.821 150.247 144.514 150.182 144.141 150.182C143.648 150.182 143.192 150.303 142.755 150.554C142.308 150.815 141.954 151.178 141.693 151.652C141.424 152.155 141.284 152.778 141.284 153.532V158.493H139.795V149.149H141.321L141.284 150.861C141.545 150.247 141.935 149.772 142.466 149.428C142.987 149.083 143.574 148.916 144.244 148.916C145.24 148.916 146.059 149.26 146.71 149.94L146.059 151.084V151.103ZM145.835 151.168C145.835 151.168 145.854 151.131 145.9 151.131C145.928 151.131 145.966 151.15 146.021 151.168L145.984 151.271L145.845 151.187V151.168H145.835ZM146.021 151.168L146.059 151.103L146.142 151.205C146.142 151.205 146.105 151.205 146.077 151.196C146.049 151.196 146.031 151.178 146.012 151.168H146.021Z" fill="#EB008B"/>
<path d="M159.815 158.474V157.292H162.207V150.331H159.945V149.149H163.677V157.292H165.864V158.474H159.824H159.815ZM162.123 146.878C161.918 146.673 161.816 146.431 161.816 146.142C161.816 145.826 161.909 145.575 162.104 145.388C162.309 145.184 162.56 145.081 162.858 145.081C163.156 145.081 163.398 145.193 163.612 145.407C163.817 145.612 163.919 145.854 163.919 146.142C163.919 146.431 163.817 146.673 163.612 146.878C163.407 147.082 163.156 147.185 162.858 147.185C162.56 147.185 162.328 147.082 162.123 146.878Z" fill="#00ADEE"/>
<path d="M180.225 158.474V157.292H182.617V150.331H180.356V149.149H184.088V157.292H186.275V158.474H180.235H180.225ZM182.534 146.878C182.329 146.673 182.227 146.431 182.227 146.142C182.227 145.826 182.32 145.575 182.515 145.388C182.72 145.184 182.971 145.081 183.269 145.081C183.567 145.081 183.809 145.193 184.023 145.407C184.228 145.612 184.33 145.854 184.33 146.142C184.33 146.431 184.228 146.673 184.023 146.878C183.818 147.082 183.567 147.185 183.269 147.185C182.971 147.185 182.738 147.082 182.534 146.878Z" fill="#EB008B"/>
<path d="M189.859 149.149H191.292V150.805C191.646 150.247 192.111 149.791 192.679 149.437C193.218 149.093 193.814 148.925 194.456 148.925C195.285 148.925 195.945 149.242 196.439 149.865C196.941 150.517 197.193 151.503 197.193 152.825V158.474H195.769V152.862C195.769 151.95 195.61 151.28 195.303 150.842C195.005 150.424 194.587 150.21 194.056 150.21C193.637 150.21 193.209 150.331 192.772 150.582C192.353 150.824 191.999 151.178 191.711 151.624C191.441 152.043 191.301 152.546 191.301 153.113V158.484H189.868V149.158L189.859 149.149Z" fill="#EB008B"/>
<path d="M217.501 151.103C217.119 150.74 216.794 150.489 216.524 150.368C216.263 150.247 215.956 150.182 215.584 150.182C215.09 150.182 214.634 150.303 214.197 150.554C213.75 150.815 213.396 151.178 213.136 151.652C212.866 152.155 212.726 152.778 212.726 153.532V158.493H211.237V149.149H212.764L212.726 150.861C212.987 150.247 213.378 149.772 213.908 149.428C214.43 149.083 215.016 148.916 215.686 148.916C216.682 148.916 217.501 149.26 218.152 149.94L217.501 151.084V151.103ZM217.278 151.168C217.278 151.168 217.296 151.131 217.343 151.131C217.371 151.131 217.408 151.15 217.464 151.168L217.426 151.271L217.287 151.187V151.168H217.278ZM217.464 151.168L217.501 151.103L217.585 151.205C217.585 151.205 217.547 151.205 217.52 151.196C217.492 151.196 217.473 151.178 217.454 151.168H217.464Z" fill="#00A69C"/>
<path d="M223.988 148.944C225.338 148.944 226.352 149.288 227.05 149.986C227.748 150.684 228.093 151.857 228.093 153.514V158.474H226.501V157.041C225.933 158.139 224.872 158.698 223.318 158.698C222.294 158.698 221.484 158.456 220.889 157.981C220.302 157.516 220.014 156.901 220.014 156.12C220.014 155.45 220.228 154.882 220.647 154.407C221.066 153.932 221.643 153.56 222.359 153.281C223.095 153.011 223.876 152.871 224.705 152.871C225.477 152.871 226.185 152.909 226.808 152.992C226.724 151.941 226.455 151.205 225.989 150.787C225.514 150.349 224.816 150.135 223.886 150.135C223.411 150.135 222.964 150.228 222.555 150.396C222.08 150.6 221.68 150.861 221.373 151.168L220.656 150.228C221.531 149.353 222.639 148.925 223.979 148.925L223.988 148.944ZM225.85 156.678C226.436 156.11 226.752 155.254 226.808 154.128C226.24 154.035 225.58 153.988 224.826 153.988C223.774 153.988 222.964 154.156 222.378 154.5C221.782 154.854 221.475 155.375 221.475 156.055C221.475 157.078 222.136 157.59 223.458 157.59C224.453 157.59 225.245 157.292 225.85 156.697V156.678Z" fill="#00A69C"/>
<path d="M230.68 149.149H232.113V150.805C232.467 150.247 232.932 149.791 233.5 149.437C234.04 149.093 234.636 148.925 235.278 148.925C236.106 148.925 236.767 149.242 237.26 149.865C237.763 150.517 238.014 151.503 238.014 152.825V158.474H236.59V152.862C236.59 151.95 236.432 151.28 236.125 150.842C235.827 150.424 235.408 150.21 234.878 150.21C234.459 150.21 234.031 150.331 233.593 150.582C233.174 150.824 232.821 151.178 232.532 151.624C232.262 152.043 232.123 152.546 232.123 153.113V158.484H230.689V149.158L230.68 149.149Z" fill="#00A69C"/>
<path d="M248.587 150.089C247.917 150.089 247.377 150.228 246.958 150.517C247.191 151.01 247.303 151.513 247.303 152.043C247.303 152.639 247.163 153.197 246.893 153.7C246.623 154.202 246.242 154.603 245.749 154.882C245.255 155.17 244.687 155.31 244.036 155.31C243.533 155.31 243.049 155.217 242.584 155.021C242.342 155.338 242.221 155.617 242.221 155.878C242.221 156.203 242.435 156.445 242.854 156.594C243.245 156.734 243.989 156.799 245.078 156.799C246.4 156.799 247.303 157.004 247.796 157.413C248.271 157.804 248.513 158.391 248.513 159.172C248.513 159.954 248.187 160.643 247.535 161.174C246.865 161.713 245.851 161.993 244.473 161.993C243.096 161.993 242.109 161.788 241.355 161.378C240.592 160.969 240.211 160.373 240.211 159.582C240.211 159.089 240.35 158.67 240.62 158.316C240.89 157.963 241.244 157.683 241.663 157.479C241.216 157.162 240.992 156.753 240.992 156.231C240.992 155.692 241.272 155.114 241.83 154.519C241.486 154.221 241.234 153.858 241.058 153.439C240.881 153.03 240.788 152.564 240.788 152.052C240.788 151.457 240.927 150.908 241.197 150.396C241.458 149.902 241.839 149.521 242.342 149.232C242.835 148.944 243.403 148.804 244.055 148.804C245.05 148.804 245.842 149.121 246.447 149.763C246.772 149.446 247.107 149.223 247.442 149.093C247.768 148.953 248.159 148.888 248.606 148.888L248.95 148.907L249.136 150.107C249.053 150.098 248.876 150.089 248.606 150.089H248.587ZM246.977 158.642C246.837 158.437 246.614 158.298 246.307 158.232C245.897 158.139 245.386 158.093 244.771 158.093C243.775 158.093 242.994 158 242.426 157.823C242.1 158.037 241.877 158.27 241.756 158.493C241.616 158.735 241.551 159.042 241.551 159.414C241.551 159.861 241.812 160.224 242.323 160.494C242.826 160.755 243.552 160.885 244.483 160.885C245.358 160.885 246.018 160.745 246.484 160.475C246.931 160.206 247.154 159.843 247.154 159.396C247.154 159.079 247.089 158.828 246.968 158.642H246.977ZM245.507 153.495C245.888 153.113 246.074 152.629 246.074 152.043C246.074 151.457 245.879 150.973 245.507 150.591C245.116 150.2 244.622 149.996 244.036 149.996C243.45 149.996 242.966 150.191 242.565 150.591C242.184 150.973 241.998 151.457 241.998 152.043C241.998 152.629 242.184 153.113 242.565 153.495C242.956 153.886 243.45 154.091 244.036 154.091C244.622 154.091 245.106 153.895 245.507 153.495Z" fill="#00A69C"/>
<path d="M251.873 157.413C251.044 156.557 250.625 155.366 250.625 153.839C250.625 152.806 250.812 151.931 251.193 151.205C251.603 150.433 252.115 149.856 252.729 149.493C253.371 149.111 254.097 148.925 254.916 148.925C256.061 148.925 256.982 149.297 257.671 150.051C258.369 150.796 258.713 151.903 258.713 153.355C258.713 153.393 258.704 153.625 258.676 154.026H252.04C252.105 155.18 252.431 156.045 252.999 156.622C253.585 157.209 254.33 157.497 255.223 157.497C256.201 157.497 257.01 157.153 257.634 156.455L258.453 157.246C257.662 158.195 256.573 158.679 255.186 158.679C253.799 158.679 252.692 158.26 251.882 157.413H251.873ZM257.224 152.881C257.224 151.987 257.01 151.289 256.573 150.796C256.126 150.293 255.54 150.042 254.814 150.042C254.144 150.042 253.557 150.284 253.036 150.759C252.533 151.224 252.217 151.931 252.096 152.881H257.215H257.224Z" fill="#00A69C"/>
<path d="M264.949 159.908C264.102 158.996 263.46 157.981 263.013 156.864C262.548 155.71 262.315 154.547 262.315 153.374C262.315 152.201 262.539 151.029 262.985 149.921C263.451 148.795 264.084 147.808 264.884 146.961C265.703 146.105 266.662 145.416 267.76 144.904L268.151 146.17C266.829 146.878 265.768 147.892 264.968 149.214C264.167 150.535 263.767 151.941 263.767 153.439C263.767 154.938 264.177 156.408 264.996 157.721C265.824 159.07 266.922 160.094 268.281 160.801L267.89 162.03C266.773 161.527 265.796 160.82 264.949 159.908Z" fill="#F6921D"/>
<path d="M274.731 158.474V147.51L272.162 148.264L271.837 147.464L275.159 145.733H276.155V158.465H274.722L274.731 158.474Z" fill="#8BC53F"/>
<path d="M288.245 147.417C288.943 148.59 289.288 150.182 289.288 152.192C289.288 154.202 288.943 155.878 288.264 157.013C287.584 158.139 286.607 158.707 285.341 158.707C284.076 158.707 283.108 158.139 282.419 157.013C281.74 155.887 281.395 154.277 281.395 152.192C281.395 150.107 281.74 148.59 282.438 147.417C283.136 146.263 284.094 145.686 285.332 145.686C286.57 145.686 287.538 146.263 288.227 147.417H288.245ZM283.527 148.357C283.089 149.307 282.875 150.591 282.875 152.192C282.875 153.076 282.94 153.858 283.061 154.537L287.389 148.944C287.184 148.292 286.914 147.79 286.57 147.455C286.216 147.101 285.807 146.924 285.341 146.924C284.569 146.924 283.964 147.399 283.527 148.357ZM287.156 156.092C287.594 155.152 287.808 153.858 287.808 152.192C287.808 151.364 287.761 150.684 287.668 150.154L283.34 155.664C283.759 156.864 284.429 157.46 285.341 157.46C286.133 157.46 286.738 157.004 287.156 156.092Z" fill="#8BC53F"/>
<path d="M298.446 147.417C299.144 148.59 299.488 150.182 299.488 152.192C299.488 154.202 299.144 155.878 298.465 157.013C297.785 158.139 296.808 158.707 295.542 158.707C294.276 158.707 293.308 158.139 292.62 157.013C291.94 155.887 291.596 154.277 291.596 152.192C291.596 150.107 291.94 148.59 292.638 147.417C293.336 146.263 294.295 145.686 295.533 145.686C296.771 145.686 297.739 146.263 298.427 147.417H298.446ZM293.727 148.357C293.29 149.307 293.076 150.591 293.076 152.192C293.076 153.076 293.141 153.858 293.262 154.537L297.59 148.944C297.385 148.292 297.115 147.79 296.771 147.455C296.417 147.101 296.008 146.924 295.542 146.924C294.77 146.924 294.165 147.399 293.727 148.357ZM297.357 156.092C297.795 155.152 298.009 153.858 298.009 152.192C298.009 151.364 297.962 150.684 297.869 150.154L293.541 155.664C293.96 156.864 294.63 157.46 295.542 157.46C296.333 157.46 296.938 157.004 297.357 156.092Z" fill="#8BC53F"/>
<path d="M302.979 160.801C304.337 160.094 305.436 159.07 306.264 157.721C307.083 156.399 307.493 154.975 307.493 153.439C307.493 151.903 307.092 150.535 306.292 149.214C305.492 147.892 304.431 146.878 303.109 146.17L303.5 144.904C304.598 145.426 305.557 146.105 306.376 146.961C307.176 147.808 307.809 148.795 308.274 149.921C308.721 151.019 308.945 152.173 308.945 153.374C308.945 154.575 308.712 155.71 308.247 156.864C307.8 157.981 307.148 158.996 306.311 159.908C305.464 160.82 304.486 161.527 303.37 162.03L302.979 160.801Z" fill="#F6921D"/>
<path d="M314.873 151.838C314.631 151.606 314.501 151.336 314.501 151.019C314.501 150.675 314.613 150.396 314.845 150.182C315.106 149.949 315.385 149.837 315.702 149.837C316.018 149.837 316.297 149.949 316.558 150.182C316.8 150.396 316.921 150.675 316.921 151.019C316.921 151.336 316.8 151.606 316.558 151.838C316.297 152.071 316.018 152.183 315.702 152.183C315.385 152.183 315.125 152.071 314.864 151.838H314.873ZM314.855 158.353C314.622 158.121 314.51 157.851 314.51 157.534C314.51 157.19 314.622 156.911 314.855 156.697C315.115 156.464 315.395 156.352 315.711 156.352C316.027 156.352 316.307 156.464 316.567 156.697C316.809 156.929 316.93 157.209 316.93 157.534C316.93 157.86 316.809 158.13 316.567 158.353C316.307 158.586 316.027 158.698 315.711 158.698C315.367 158.698 315.087 158.586 314.855 158.353Z" fill="#E6E7E7"/>
<path d="M159.815 187.96V186.778H162.207V179.816H159.945V178.634H163.677V186.778H165.864V187.96H159.824H159.815ZM162.123 176.363C161.918 176.158 161.816 175.916 161.816 175.628C161.816 175.311 161.909 175.06 162.104 174.874C162.309 174.669 162.56 174.567 162.858 174.567C163.156 174.567 163.398 174.678 163.612 174.892C163.817 175.097 163.919 175.339 163.919 175.628C163.919 175.916 163.817 176.158 163.612 176.363C163.407 176.568 163.156 176.67 162.858 176.67C162.56 176.67 162.328 176.568 162.123 176.363Z" fill="#EB008B"/>
<path d="M176.838 176.651C176.447 176.158 176.121 175.842 175.86 175.693C175.59 175.525 175.218 175.451 174.762 175.451C174.12 175.451 173.617 175.646 173.254 176.019C172.882 176.409 172.705 177.024 172.705 177.852V178.625H175.767V179.788H172.705V187.95H171.3V179.788H169.28V178.625H171.3V177.852C171.3 176.651 171.616 175.758 172.24 175.162C172.863 174.567 173.692 174.259 174.734 174.259C175.358 174.259 175.916 174.371 176.409 174.585C176.931 174.818 177.34 175.134 177.657 175.544L176.884 176.624L176.866 176.642L176.838 176.651ZM176.614 176.689C176.614 176.689 176.642 176.651 176.698 176.67C176.707 176.679 176.735 176.689 176.763 176.689L176.8 176.707L176.735 176.791L176.614 176.707V176.689ZM176.8 176.707L176.838 176.642L176.903 176.782L176.884 176.763C176.884 176.763 176.819 176.698 176.8 176.698V176.707Z" fill="#EB008B"/>
<path d="M190.436 187.96V186.778H192.828V179.816H190.566V178.634H194.298V186.778H196.485V187.96H190.445H190.436ZM192.744 176.363C192.539 176.158 192.437 175.916 192.437 175.628C192.437 175.311 192.53 175.06 192.725 174.874C192.93 174.669 193.181 174.567 193.479 174.567C193.777 174.567 194.019 174.678 194.233 174.892C194.438 175.097 194.54 175.339 194.54 175.628C194.54 175.916 194.438 176.158 194.233 176.363C194.028 176.568 193.777 176.67 193.479 176.67C193.181 176.67 192.948 176.568 192.744 176.363Z" fill="#00ADEE"/>
<path d="M210.521 180.002C210.167 179.769 209.888 179.453 209.683 179.043C209.478 178.634 209.376 178.178 209.376 177.675C209.376 177.173 209.478 176.735 209.683 176.326C209.86 175.972 210.139 175.656 210.521 175.386C210.874 175.144 211.256 175.013 211.665 175.013C212.075 175.013 212.466 175.134 212.81 175.386C213.173 175.646 213.452 175.963 213.648 176.344C213.853 176.754 213.955 177.201 213.955 177.694C213.955 178.457 213.741 179.09 213.303 179.593C212.866 180.095 212.326 180.346 211.675 180.346C211.265 180.346 210.883 180.235 210.53 180.002H210.521ZM209.748 187.96L216.794 175.246H217.957L210.856 187.96H209.757H209.748ZM212.382 178.876C212.568 178.606 212.67 178.206 212.67 177.675C212.67 177.145 212.568 176.726 212.363 176.475C212.159 176.214 211.917 176.084 211.628 176.084C211.367 176.084 211.135 176.214 210.93 176.475C210.725 176.735 210.623 177.135 210.623 177.675C210.623 178.215 210.725 178.587 210.93 178.857C211.135 179.127 211.377 179.267 211.665 179.267C211.954 179.267 212.205 179.136 212.382 178.876ZM215.239 187.82C214.886 187.587 214.606 187.271 214.402 186.861C214.197 186.452 214.094 186.015 214.094 185.531C214.094 185.047 214.197 184.609 214.402 184.2C214.606 183.809 214.886 183.483 215.239 183.222C215.565 182.99 215.947 182.878 216.384 182.878C217.008 182.878 217.547 183.139 217.994 183.65C218.432 184.144 218.646 184.767 218.646 185.531C218.646 186.005 218.543 186.452 218.339 186.861C218.134 187.271 217.855 187.587 217.501 187.82C217.147 188.053 216.775 188.165 216.375 188.165C215.975 188.165 215.584 188.053 215.23 187.82H215.239ZM217.138 186.74C217.343 186.48 217.445 186.089 217.445 185.558C217.445 185.065 217.343 184.674 217.138 184.376C216.933 184.079 216.673 183.93 216.365 183.93C216.058 183.93 215.816 184.069 215.612 184.339C215.407 184.609 215.304 185.009 215.304 185.521C215.304 186.08 215.416 186.489 215.63 186.75C215.863 187.02 216.123 187.159 216.403 187.159C216.682 187.159 216.933 187.02 217.138 186.75V186.74Z" fill="#E6E7E7"/>
<path d="M230.708 186.815L232.365 185.14C233.565 183.939 234.394 183.083 234.859 182.543C235.399 181.919 235.836 181.296 236.162 180.681C236.488 180.067 236.655 179.425 236.655 178.746C236.655 177.917 236.46 177.312 236.06 176.949C235.669 176.586 235.138 176.4 234.487 176.4C233.872 176.4 233.333 176.53 232.858 176.791C232.365 177.052 232.039 177.331 231.881 177.647C231.825 177.74 231.741 177.899 231.639 178.113C231.555 178.28 231.518 178.364 231.518 178.383C231.518 178.401 231.518 178.401 231.536 178.401L231.62 178.364C231.62 178.364 231.685 178.364 231.704 178.429L231.639 178.55L231.453 178.448L230.41 177.629C230.82 176.828 231.378 176.214 232.085 175.795C232.793 175.376 233.593 175.162 234.477 175.162C235.548 175.162 236.432 175.488 237.111 176.14C237.791 176.791 238.135 177.675 238.135 178.792C238.135 179.518 237.958 180.225 237.605 180.933C237.26 181.612 236.814 182.273 236.255 182.915C235.734 183.502 234.971 184.293 233.947 185.307L232.56 186.713H237.298C237.474 186.713 237.633 186.703 237.763 186.675C237.875 186.666 237.968 186.61 238.051 186.508H238.191V187.96H230.717V186.815H230.708Z" fill="#D6DE22"/>
<path d="M250.542 180.263V179.015H258.928V180.263H250.542ZM250.542 183.464V182.217H258.928V183.464H250.542Z" fill="#E6E7E7"/>
<path d="M260.752 180.263V179.015H269.138V180.263H260.752ZM260.752 183.464V182.217H269.138V183.464H260.752Z" fill="#E6E7E7"/>
<path d="M284.932 187.96V176.996L282.363 177.75L282.037 176.949L285.36 175.218H286.356V187.95H284.923L284.932 187.96Z" fill="#D6DE22"/>
<path d="M294.463 181.324C294.221 181.091 294.09 180.821 294.09 180.505C294.09 180.16 294.202 179.881 294.435 179.667C294.695 179.434 294.974 179.323 295.291 179.323C295.607 179.323 295.887 179.434 296.147 179.667C296.389 179.881 296.51 180.16 296.51 180.505C296.51 180.821 296.389 181.091 296.147 181.324C295.887 181.556 295.607 181.668 295.291 181.668C294.974 181.668 294.714 181.556 294.453 181.324H294.463ZM294.444 187.839C294.211 187.606 294.1 187.336 294.1 187.02C294.1 186.675 294.211 186.396 294.444 186.182C294.705 185.949 294.984 185.838 295.3 185.838C295.617 185.838 295.896 185.949 296.157 186.182C296.399 186.415 296.52 186.694 296.52 187.02C296.52 187.345 296.399 187.615 296.157 187.839C295.896 188.071 295.617 188.183 295.3 188.183C294.956 188.183 294.677 188.071 294.444 187.839Z" fill="#E6E7E7"/>
<path d="M206.844 213.117C207.337 213.527 207.579 214.067 207.579 214.727C207.579 215.584 207.254 216.282 206.602 216.831C205.96 217.371 205.001 217.65 203.726 217.65C202.144 217.65 200.832 217.157 199.771 216.179L200.59 214.793L200.608 214.774L200.627 214.793C201.064 215.351 201.502 215.76 201.93 216.021C202.395 216.291 203 216.431 203.763 216.431C204.48 216.431 205.066 216.291 205.495 216.021C205.913 215.76 206.127 215.397 206.127 214.941C206.127 214.551 205.96 214.225 205.616 213.964C205.29 213.704 204.676 213.434 203.782 213.145C201.446 212.475 200.273 211.516 200.273 210.251C200.273 209.543 200.571 208.975 201.167 208.538C201.753 208.119 202.6 207.905 203.698 207.905C204.545 207.905 205.253 208.026 205.82 208.277C206.463 208.547 206.993 208.92 207.412 209.376L206.574 210.399L206.556 210.418C206.258 209.953 205.848 209.608 205.327 209.376C204.797 209.134 204.266 209.013 203.736 209.013C203.149 209.013 202.674 209.115 202.302 209.32C201.921 209.534 201.734 209.822 201.734 210.176C201.734 210.53 201.921 210.828 202.302 211.116C202.693 211.405 203.382 211.684 204.359 211.972C205.476 212.298 206.295 212.689 206.826 213.136L206.844 213.117ZM200.636 214.709L200.599 214.774C200.562 214.709 200.543 214.672 200.562 214.672L200.646 214.709H200.636ZM200.822 214.709C200.822 214.765 200.757 214.765 200.636 214.709L200.701 214.606L200.822 214.69V214.709ZM206.602 210.502C206.602 210.502 206.593 210.53 206.565 210.502L206.546 210.483C206.546 210.483 206.518 210.465 206.509 210.465L206.444 210.548L206.342 210.446C206.342 210.381 206.397 210.381 206.509 210.465L206.574 210.399C206.574 210.399 206.611 210.474 206.611 210.502H206.602Z" fill="#00ADEE"/>
<path d="M223.541 215.323V211.507H219.93V210.26H223.541V206.77H224.826V210.26H228.316V211.507H224.826V215.323H223.541Z" fill="#E6E7E7"/>
<path d="M230.131 209.748V208.501H238.517V209.748H230.131ZM230.131 212.95V211.703H238.517V212.95H230.131Z" fill="#E6E7E7"/>
<path d="M251.668 217.445V216.263H254.06V209.301H251.798V208.119H255.53V216.263H257.718V217.445H251.677H251.668ZM253.976 205.848C253.771 205.644 253.669 205.402 253.669 205.113C253.669 204.797 253.762 204.545 253.957 204.359C254.162 204.154 254.414 204.052 254.711 204.052C255.009 204.052 255.251 204.164 255.465 204.378C255.67 204.582 255.772 204.824 255.772 205.113C255.772 205.402 255.67 205.644 255.465 205.848C255.26 206.053 255.009 206.155 254.711 206.155C254.414 206.155 254.181 206.053 253.976 205.848Z" fill="#00ADEE"/>
<path d="M118.183 237.595H119.673V239.429C119.877 238.749 120.231 238.237 120.734 237.902C121.236 237.558 121.832 237.391 122.511 237.391C123.191 237.391 123.87 237.577 124.475 237.94C125.071 238.303 125.545 238.842 125.88 239.55C126.234 240.285 126.411 241.16 126.411 242.184C126.411 243.208 126.225 244.12 125.862 244.874C125.499 245.637 125.006 246.204 124.391 246.586C123.796 246.968 123.153 247.154 122.474 247.154C121.906 247.154 121.376 247.024 120.901 246.763C120.38 246.493 119.98 246.13 119.7 245.683V250.318H118.193V237.586L118.183 237.595ZM124.103 245.004C124.624 244.417 124.875 243.496 124.875 242.249C124.875 241.076 124.652 240.192 124.205 239.578C123.758 238.963 123.116 238.656 122.288 238.656C121.459 238.656 120.864 238.973 120.389 239.615C119.914 240.257 119.673 241.244 119.673 242.575C119.682 243.654 119.924 244.464 120.389 245.022C120.836 245.581 121.45 245.86 122.223 245.86C122.958 245.86 123.582 245.572 124.103 245.004Z" fill="#F6921D"/>
<path d="M135.858 239.559C135.476 239.196 135.151 238.945 134.881 238.824C134.62 238.703 134.313 238.638 133.941 238.638C133.447 238.638 132.991 238.759 132.554 239.001C132.107 239.261 131.753 239.624 131.493 240.099C131.223 240.602 131.083 241.225 131.083 241.979V246.94H129.594V237.595H131.121L131.083 239.308C131.344 238.694 131.735 238.219 132.265 237.874C132.786 237.53 133.373 237.363 134.043 237.363C135.039 237.363 135.858 237.707 136.509 238.386L135.858 239.531V239.55V239.559ZM135.635 239.624C135.635 239.624 135.653 239.587 135.7 239.587C135.728 239.587 135.765 239.596 135.821 239.624L135.783 239.727L135.644 239.643V239.624H135.635ZM135.821 239.624L135.858 239.559L135.942 239.661C135.942 239.661 135.904 239.661 135.877 239.652C135.849 239.652 135.83 239.634 135.811 239.624H135.821Z" fill="#F6921D"/>
<path d="M139.404 246.921V245.739H141.796V238.777H139.534V237.595H143.266V245.739H145.454V246.921H139.413H139.404ZM141.712 235.324C141.507 235.12 141.405 234.878 141.405 234.589C141.405 234.273 141.498 234.021 141.694 233.835C141.898 233.63 142.15 233.528 142.447 233.528C142.745 233.528 142.987 233.64 143.201 233.854C143.406 234.059 143.508 234.301 143.508 234.589C143.508 234.878 143.406 235.12 143.201 235.324C142.997 235.529 142.745 235.631 142.447 235.631C142.15 235.631 141.917 235.529 141.712 235.324Z" fill="#F6921D"/>
<path d="M149.046 237.595H150.48V239.252C150.833 238.694 151.299 238.237 151.866 237.884C152.406 237.539 153.002 237.372 153.644 237.372C154.472 237.372 155.133 237.688 155.626 238.312C156.129 238.963 156.38 239.95 156.38 241.272V246.921H154.956V241.309C154.956 240.397 154.798 239.727 154.491 239.289C154.193 238.87 153.774 238.656 153.244 238.656C152.825 238.656 152.397 238.777 151.959 239.019C151.541 239.261 151.187 239.615 150.898 240.062C150.629 240.481 150.489 240.983 150.489 241.551V246.921H149.056V237.595H149.046Z" fill="#F6921D"/>
<path d="M166.842 246.065C165.957 246.735 164.971 247.061 163.882 247.061C162.793 247.061 162.123 246.744 161.695 246.121C161.257 245.479 161.043 244.464 161.043 243.059C161.043 243.021 161.053 242.612 161.08 241.858L161.267 238.796H159.21V237.595H161.35L161.49 235.11L163.119 234.84L163.324 234.822L163.342 234.943C163.203 235.12 163.128 235.231 163.119 235.287C163.091 235.371 163.063 235.52 163.035 235.734L162.812 237.595H165.911V238.796H162.728L162.542 241.96C162.542 242.1 162.542 242.249 162.532 242.416C162.532 242.584 162.523 242.724 162.514 242.817C162.514 242.91 162.504 242.984 162.504 243.04C162.504 244.129 162.625 244.864 162.867 245.246C163.109 245.637 163.519 245.842 164.096 245.842C164.478 245.842 164.85 245.767 165.222 245.618C165.548 245.478 165.939 245.246 166.386 244.901L166.832 246.065H166.842Z" fill="#F6921D"/>
<path d="M173.105 248.354C172.258 247.442 171.616 246.428 171.169 245.311C170.704 244.157 170.471 242.993 170.471 241.821C170.471 240.648 170.695 239.475 171.142 238.368C171.607 237.242 172.24 236.255 173.04 235.408C173.859 234.552 174.818 233.863 175.916 233.342L176.307 234.608C174.985 235.315 173.924 236.329 173.124 237.651C172.324 238.973 171.923 240.378 171.923 241.877C171.923 243.375 172.333 244.846 173.152 246.167C173.98 247.517 175.079 248.541 176.437 249.248L176.046 250.476C174.93 249.974 173.952 249.267 173.105 248.354Z" fill="#F6921D"/>
<path d="M186.433 242.593C186.927 243.003 187.169 243.543 187.169 244.203C187.169 245.06 186.843 245.758 186.191 246.307C185.549 246.847 184.591 247.126 183.315 247.126C181.733 247.126 180.421 246.633 179.36 245.655L180.179 244.269L180.198 244.25L180.216 244.269C180.654 244.827 181.091 245.236 181.519 245.497C181.984 245.767 182.589 245.907 183.353 245.907C184.069 245.907 184.656 245.767 185.084 245.497C185.503 245.236 185.717 244.874 185.717 244.417C185.717 244.027 185.549 243.701 185.205 243.44C184.879 243.18 184.265 242.91 183.371 242.621C181.035 241.951 179.862 240.992 179.862 239.727C179.862 239.019 180.16 238.452 180.756 238.014C181.342 237.595 182.189 237.381 183.288 237.381C184.134 237.381 184.842 237.502 185.41 237.753C186.052 238.023 186.582 238.396 187.001 238.852L186.163 239.876L186.145 239.894C185.847 239.429 185.437 239.084 184.916 238.852C184.386 238.61 183.855 238.489 183.325 238.489C182.738 238.489 182.264 238.591 181.891 238.796C181.51 239.01 181.324 239.298 181.324 239.652C181.324 240.006 181.51 240.304 181.891 240.592C182.282 240.881 182.971 241.16 183.948 241.448C185.065 241.774 185.884 242.165 186.415 242.612L186.433 242.593ZM180.225 244.185L180.188 244.25C180.151 244.185 180.132 244.148 180.151 244.148L180.235 244.185H180.225ZM180.412 244.185C180.412 244.241 180.346 244.241 180.225 244.185L180.291 244.082L180.412 244.166V244.185ZM186.191 239.978C186.191 239.978 186.182 240.006 186.154 239.978L186.136 239.959C186.136 239.959 186.108 239.941 186.098 239.941L186.033 240.024L185.931 239.922C185.931 239.857 185.987 239.857 186.098 239.941L186.163 239.876C186.163 239.876 186.201 239.95 186.201 239.978H186.191Z" fill="#00ADEE"/>
<path d="M190.724 249.248C192.083 248.541 193.181 247.517 194.009 246.167C194.828 244.846 195.238 243.422 195.238 241.877C195.238 240.332 194.838 238.973 194.037 237.651C193.237 236.329 192.176 235.315 190.854 234.608L191.245 233.342C192.343 233.863 193.302 234.542 194.121 235.408C194.922 236.255 195.554 237.242 196.02 238.368C196.467 239.466 196.69 240.62 196.69 241.821C196.69 243.021 196.457 244.157 195.992 245.311C195.545 246.428 194.894 247.442 194.056 248.354C193.209 249.267 192.232 249.974 191.115 250.476L190.724 249.248Z" fill="#F6921D"/>
<path d="M74.9668 25.7914L74.9093 40.7759C74.9075 41.2437 75.2852 41.6243 75.753 41.6261L77.4189 41.6325C77.8867 41.6343 78.2674 41.2566 78.2691 40.7888L78.3267 25.8043C78.3285 25.3365 77.9507 24.9559 77.483 24.9541L75.817 24.9477C75.3492 24.9459 74.9686 25.3236 74.9668 25.7914Z" fill="#FFBD00"/>
<path d="M47.5308 36.5743L46.3483 37.7478C46.0162 38.0773 46.0142 38.6136 46.3437 38.9456L56.8986 49.582C57.2281 49.914 57.7644 49.916 58.0964 49.5866L59.279 48.413C59.611 48.0836 59.6131 47.5473 59.2836 47.2153L48.7286 36.5789C48.3991 36.2469 47.8628 36.2448 47.5308 36.5743Z" fill="#FFBD00"/>
<path d="M34.5671 65.9713L34.5607 67.6373C34.559 68.105 34.9367 68.4857 35.4044 68.4875L50.389 68.545C50.8568 68.5468 51.2374 68.1691 51.2392 67.7013L51.2456 66.0353C51.2474 65.5676 50.8697 65.1869 50.4019 65.1851L35.4173 65.1276C34.9496 65.1258 34.5689 65.5035 34.5671 65.9713Z" fill="#FFBD00"/>
<path d="M56.8292 84.1762L46.1929 94.7312C45.8608 95.0607 45.8588 95.5969 46.1883 95.9289L47.3618 97.1115C47.6912 97.4435 48.2275 97.4456 48.5595 97.1161L59.1959 86.5611C59.5279 86.2316 59.53 85.6954 59.2005 85.3633L58.027 84.1808C57.6975 83.8488 57.1612 83.8467 56.8292 84.1762Z" fill="#FFBD00"/>
<path d="M94.9773 84.2461L93.7948 85.4196C93.4628 85.7491 93.4607 86.2853 93.7902 86.6174L104.345 97.2537C104.675 97.5857 105.211 97.5878 105.543 97.2583L106.726 96.0848C107.058 95.7553 107.06 95.2191 106.73 94.887L96.1751 84.2507C95.8456 83.9187 95.3094 83.9166 94.9773 84.2461Z" fill="#FFBD00"/>
<path d="M101.838 66.1306L101.831 67.7966C101.829 68.2644 102.207 68.645 102.675 68.6468L117.659 68.7043C118.127 68.7061 118.508 68.3284 118.51 67.8606L118.516 66.1947C118.518 65.7269 118.14 65.3462 117.672 65.3445L102.688 65.2869C102.22 65.2851 101.839 65.6629 101.838 66.1306Z" fill="#FFBD00"/>
<path d="M104.508 36.7231L93.8712 47.2781C93.5392 47.6076 93.5371 48.1438 93.8666 48.4759L95.0401 49.6584C95.3696 49.9904 95.9059 49.9925 96.2379 49.663L106.874 39.108C107.206 38.7785 107.208 38.2423 106.879 37.9102L105.705 36.7277C105.376 36.3957 104.84 36.3936 104.508 36.7231Z" fill="#FFBD00"/>
<path d="M98.3497 66.9935C98.3217 73.2108 95.7064 78.8137 91.5275 82.7786C90.1407 84.1002 89.0517 85.6732 88.3072 87.4043C87.5719 89.1261 87.1717 91.0062 87.1624 92.9235C87.1624 94.9339 86.3992 96.7674 85.1706 98.1728C84.1189 99.3641 82.7135 100.239 81.122 100.639C80.4891 100.797 79.8376 100.881 79.1581 100.881L73.5552 100.863C71.3494 100.863 69.3576 99.9505 67.9243 98.5078C66.4817 97.0559 65.5975 95.0642 65.6068 92.8583C65.6254 88.9865 64.0246 85.3102 61.251 82.6111C57.1465 78.6183 54.5963 73.0246 54.6243 66.8446C54.6336 63.7639 55.2944 60.8228 56.4671 58.161C56.6718 57.7049 56.8859 57.2488 57.1186 56.8114C60.767 49.8682 68.0453 45.1029 76.3939 45.075C88.5491 45.0284 98.3962 54.8848 98.3497 67.0214V66.9935Z" fill="#FFBD00"/>
<path d="M85.1706 98.1635C84.1189 99.3548 82.7135 100.23 81.122 100.63C80.4891 100.788 79.8376 100.872 79.1581 100.872L73.5552 100.853C71.3494 100.853 69.3576 99.9412 67.9243 98.4985C66.4817 97.0466 65.5975 95.0549 65.6068 92.849C65.6254 88.9772 64.0246 85.3009 61.251 82.6018C57.1465 78.609 54.5963 73.0153 54.6243 66.8353C54.6336 63.7546 55.2944 60.8135 56.4671 58.1516C57.8352 66.2862 61.2324 77.52 69.6927 85.0961C69.6927 85.0961 67.3286 99.7271 85.1799 98.1821L85.1706 98.1635Z" fill="#DCA000"/>
<path d="M94.4399 66.2333C96.3781 64.5848 94.8664 59.6235 91.0634 55.1519C87.2604 50.6802 82.6062 48.3915 80.668 50.0399C78.7297 51.6883 80.2414 56.6496 84.0444 61.1213C87.8474 65.593 92.5016 67.8817 94.4399 66.2333Z" fill="white"/>
<path d="M86.9576 100.714C86.9576 101.3 86.7157 101.821 86.3341 102.203C86.2317 102.305 86.1107 102.398 85.9897 102.482C85.6546 102.696 85.2637 102.817 84.8449 102.817L67.8592 102.752C67.4404 102.752 67.0401 102.622 66.7144 102.408C66.1373 102.026 65.7558 101.374 65.7651 100.639C65.7651 100.053 66.007 99.5316 66.3886 99.15C66.7702 98.7684 67.3008 98.5358 67.8778 98.5358L84.8635 98.6009C86.0269 98.6009 86.967 99.5503 86.9576 100.714Z" fill="#155BCD"/>
<path d="M85.9245 104.846C85.9245 105.432 85.6825 105.954 85.3009 106.335C85.1985 106.438 85.0868 106.531 84.9658 106.605C84.668 106.801 84.3143 106.922 83.942 106.94C83.8955 106.94 83.8583 106.94 83.8117 106.94L68.8643 106.884C68.8643 106.884 68.7805 106.884 68.734 106.884C68.3524 106.856 68.008 106.735 67.7102 106.54C67.1332 106.158 66.7609 105.516 66.7609 104.772C66.7609 104.185 67.0029 103.664 67.3844 103.282C67.766 102.901 68.2966 102.668 68.8736 102.668L83.821 102.724C84.9844 102.724 85.9245 103.673 85.9152 104.837L85.9245 104.846Z" fill="#155BCD"/>
<path d="M78.3111 115.866L74.4021 115.847C72.5965 115.847 71.1353 114.367 71.1353 112.562V108.941L81.6152 108.978V112.599C81.5966 114.405 80.126 115.866 78.3111 115.866Z" fill="#155BCD"/>
<path d="M84.1282 109.044C84.1282 109.63 83.8862 110.151 83.5046 110.533C83.4022 110.635 83.2812 110.728 83.1602 110.812C82.8344 111.026 82.4342 111.147 82.0154 111.147L70.735 111.101C70.3162 111.101 69.916 110.97 69.5902 110.756C69.0132 110.375 68.6316 109.723 68.6316 108.988C68.6316 108.401 68.8736 107.88 69.2552 107.499C69.6368 107.117 70.1673 106.884 70.7443 106.884L82.0247 106.931C83.1881 106.931 84.1281 107.88 84.1188 109.044H84.1282Z" fill="#155BCD"/>
<path d="M85.9897 102.473C85.6546 102.687 85.2637 102.808 84.8449 102.808L67.8591 102.743C67.4403 102.743 67.0401 102.612 66.7144 102.398L85.9897 102.473Z" fill="#050F64"/>
<path d="M84.9658 106.605L83.942 106.94L68.7433 106.884C68.3617 106.856 68.0173 106.735 67.7195 106.54L84.9751 106.605H84.9658Z" fill="#050F64"/>
<path d="M83.1603 110.812C82.8345 111.026 82.4343 111.147 82.0155 111.147L70.7351 111.101C70.3163 111.101 69.9161 110.97 69.5903 110.756L83.1603 110.812Z" fill="#050F64"/>
<path d="M84.5842 66.1093C83.7745 65.3554 82.6483 64.9552 81.4942 65.0111C80.4239 65.0669 79.4745 65.5044 78.823 66.2489C78.0319 67.1517 77.7806 68.3151 77.6317 69.3389C77.5107 70.1766 77.4549 71.945 77.4363 74.0298C77.1477 74.0205 75.8354 74.0205 75.5376 74.0298C75.519 71.9543 75.4631 70.1766 75.3421 69.3389C75.1932 68.3151 74.9419 67.1517 74.1508 66.2489C73.4993 65.5044 72.55 65.0669 71.4796 65.0111C70.3162 64.9552 69.19 65.3554 68.3896 66.1093C66.9563 67.4496 66.5189 69.7578 67.3472 71.7123C68.0453 73.3783 69.553 74.7185 71.4796 75.398C72.1497 75.6399 72.8757 75.7982 73.6482 75.8819C73.6482 80.2749 73.5458 98.4334 73.5458 98.5171L75.4631 98.5544C75.4631 98.2286 75.5655 80.2563 75.5655 75.9378C75.8726 75.9285 77.1384 75.9285 77.4363 75.9378C77.4363 80.2563 77.5293 98.2286 77.5386 98.5544L79.4559 98.5171C79.4559 98.4334 79.3536 80.2749 79.3536 75.8819C80.1261 75.7982 80.8427 75.6399 81.5221 75.398C83.4487 74.7185 84.9565 73.369 85.6546 71.7123C86.4736 69.7578 86.0455 67.4496 84.6121 66.1093H84.5842ZM72.1032 73.5924C70.7071 73.0991 69.5809 72.1218 69.097 70.9677C68.5851 69.7578 68.8364 68.2965 69.6833 67.5054C70.0835 67.1331 70.6606 66.9191 71.2562 66.9191C71.2935 66.9191 71.34 66.9191 71.3772 66.9191C71.9264 66.947 72.401 67.1517 72.7082 67.5054C73.1642 68.0266 73.3411 68.855 73.4435 69.5995C73.5458 70.3534 73.6017 71.9915 73.6203 73.946C73.0805 73.8716 72.5686 73.7506 72.1032 73.583V73.5924ZM83.8676 70.9677C83.3836 72.1125 82.2667 73.0991 80.8613 73.5924C80.3867 73.7599 79.8841 73.8809 79.3442 73.9553C79.3629 72.0008 79.4187 70.3534 79.5211 69.6089C79.6235 68.8643 79.791 68.0452 80.2564 67.5147C80.5635 67.161 81.0382 66.9563 81.5873 66.9284C81.6245 66.9284 81.6711 66.9284 81.7083 66.9284C82.3039 66.9284 82.881 67.1424 83.2812 67.5147C84.1282 68.3058 84.3795 69.7671 83.8676 70.977V70.9677Z" fill="#DCA000"/>
<path d="M369.33 248.112L371.536 240.592L364.769 237.623C364.807 235.957 364.63 234.319 364.248 232.746L370.233 228.409L366.473 221.531L359.585 224.221C358.468 223.048 357.184 222.006 355.76 221.14L356.923 213.843L349.403 211.637L346.434 218.404C344.768 218.367 343.13 218.543 341.557 218.925L337.22 212.94L330.342 216.701L333.032 223.588C331.859 224.705 330.817 225.989 329.951 227.413L322.654 226.25L320.448 233.77L327.215 236.739C327.177 238.405 327.354 240.043 327.736 241.616L321.751 245.953L325.511 252.831L332.399 250.141C333.516 251.314 334.8 252.357 336.224 253.222L335.061 260.519L342.581 262.725L345.55 255.958C347.216 255.996 348.854 255.819 350.427 255.437L354.764 261.422L361.642 257.662L358.952 250.774C360.125 249.657 361.167 248.373 362.033 246.949L369.33 248.112Z" fill="#84A9FF"/>
<path d="M360.46 236.441L359.753 236.423C359.836 237.949 359.669 239.513 359.213 241.067C358.617 243.096 357.593 244.883 356.262 246.363L356.663 246.968C358.115 245.385 359.241 243.459 359.883 241.262C360.358 239.652 360.535 238.033 360.451 236.441H360.46ZM352.949 249.071C349.785 250.923 345.894 251.519 342.106 250.402C337.713 249.108 334.456 245.823 333.013 241.811L332.287 241.867C333.767 246.158 337.229 249.704 341.901 251.072C345.866 252.236 349.943 251.621 353.256 249.695L352.94 249.062L352.949 249.071ZM350.073 223.281C342.413 221.028 334.344 225.431 332.092 233.1C332.064 233.202 332.036 233.295 332.008 233.398L332.724 233.444C332.734 233.398 332.752 233.342 332.771 233.295C334.912 226.008 342.59 221.81 349.878 223.951C351.106 224.314 352.251 224.835 353.293 225.477L353.936 225.058C352.772 224.295 351.479 223.69 350.073 223.271V223.281Z" fill="white"/>
<path d="M344.526 242.165C341.771 241.355 340.198 238.461 340.999 235.706C341.706 233.314 343.986 231.806 346.378 231.983L346.583 231.294C343.809 231.015 341.138 232.737 340.329 235.501C339.407 238.628 341.203 241.914 344.331 242.835C344.414 242.863 344.489 242.882 344.573 242.9L344.908 242.258C344.787 242.23 344.656 242.202 344.535 242.165H344.526ZM349.803 232.662L349.403 233.239C350.892 234.533 351.581 236.627 350.985 238.638C350.436 240.518 348.91 241.849 347.132 242.249L347.188 242.956C349.254 242.528 351.032 241.002 351.665 238.833C352.344 236.525 351.534 234.124 349.803 232.653V232.662Z" fill="white"/>
<path d="M439.749 255.791L438.632 245.283L428.673 245.069C427.873 242.975 426.802 241.03 425.508 239.261L430.73 230.773L422.512 224.137L415.317 231.034C413.316 230.14 411.185 229.507 408.97 229.163L406.661 219.474L396.153 220.591L395.939 230.55C393.845 231.35 391.9 232.42 390.132 233.714L381.643 228.493L375.007 236.711L381.904 243.906C381.011 245.907 380.378 248.038 380.033 250.253L370.344 252.561L371.461 263.069L381.42 263.283C382.221 265.377 383.291 267.323 384.585 269.091L379.363 277.579L387.581 284.215L394.776 277.319C396.777 278.212 398.908 278.845 401.124 279.189L403.432 288.878L413.94 287.761L414.154 277.803C416.248 277.002 418.193 275.932 419.961 274.638L428.45 279.859L435.086 271.641L428.189 264.447C429.082 262.446 429.715 260.314 430.06 258.099L439.749 255.791Z" fill="#84A9FF"/>
<path d="M422.688 245.814L421.795 246.158C422.688 248.01 423.284 250.048 423.517 252.217C423.815 255.056 423.461 257.811 422.567 260.333L423.377 260.882C424.373 258.164 424.782 255.186 424.457 252.115C424.215 249.871 423.6 247.749 422.688 245.814ZM419.831 265.415C416.843 269.352 412.301 272.097 407.006 272.656C400.872 273.307 395.111 270.887 391.258 266.634L390.383 267.081C394.432 271.669 400.565 274.294 407.108 273.605C412.646 273.019 417.402 270.152 420.548 266.038L419.831 265.415ZM402.976 234.766C392.272 235.901 384.482 245.544 385.627 256.247C385.646 256.387 385.655 256.526 385.673 256.666L386.586 256.359C386.586 256.293 386.567 256.219 386.558 256.154C385.469 245.972 392.877 236.795 403.069 235.715C404.791 235.529 406.484 235.594 408.113 235.864L408.7 235.008C406.857 234.654 404.93 234.561 402.966 234.775L402.976 234.766Z" fill="white"/>
<path d="M405.786 261.152C401.943 261.561 398.48 258.769 398.071 254.925C397.717 251.584 399.783 248.531 402.855 247.526L402.752 246.567C399.16 247.647 396.712 251.165 397.131 255.028C397.596 259.393 401.524 262.567 405.889 262.101C406 262.092 406.112 262.073 406.224 262.055L406.308 261.077C406.14 261.105 405.973 261.133 405.796 261.152H405.786ZM407.462 246.595L407.257 247.526C409.779 248.373 411.715 250.625 412.013 253.436C412.292 256.061 411.082 258.499 409.063 259.914L409.5 260.77C411.855 259.169 413.279 256.359 412.953 253.334C412.609 250.104 410.366 247.526 407.462 246.595Z" fill="white"/>
</g>
<defs>
<clipPath id="clip0_3_2359">
<rect width="476.875" height="338.262" fill="white"/>
</clipPath>
</defs>
</svg>
