<svg viewBox="0 0 441 312" fill="none" xmlns="http://www.w3.org/2000/svg">
<g clip-path="url(#clip0_3_2286)">
<path d="M418.602 197.485C418.602 237.681 406.554 275.063 385.865 306.26C384.634 308.113 383.378 309.94 382.087 311.75H58.8474C57.5566 309.94 56.3001 308.113 55.0694 306.26C34.3807 275.063 22.3324 237.681 22.3324 197.485C22.3324 88.4194 111.043 0 220.467 0C329.892 0 418.602 88.4194 418.602 197.485Z" fill="#E5E6EB"/>
<path d="M440.943 309.005C440.943 309.76 440.633 310.446 440.134 310.943C439.747 311.329 439.239 311.604 438.671 311.707C438.516 311.741 438.353 311.75 438.189 311.75H2.7539C1.23065 311.75 0 310.523 0 309.005C0 308.241 0.309814 307.555 0.808959 307.066C1.3081 306.569 1.99658 306.26 2.7539 306.26H438.181C438.344 306.26 438.499 306.277 438.663 306.303C439.953 306.526 440.935 307.649 440.935 309.005H440.943Z" fill="#050F64"/>
<path d="M52.5221 288.178C52.5221 298.154 58.7614 306.243 66.4465 306.243H414.635C422.328 306.243 428.559 298.154 428.559 288.178H52.5221Z" fill="#155BCD"/>
<path d="M391.373 84.242H89.717V273.09H391.373V84.242Z" fill="#84A9FF"/>
<path d="M396.657 64.3245H84.4416C78.6145 64.3245 73.8907 69.0328 73.8907 74.8408V274.205C73.8907 280.013 78.6145 284.721 84.4416 284.721H396.657C402.484 284.721 407.208 280.013 407.208 274.205V74.8408C407.208 69.0328 402.484 64.3245 396.657 64.3245Z" fill="#050F64"/>
<path d="M391.373 80.099H89.717V268.947H391.373V80.099Z" fill="white"/>
<path d="M391.373 246.928H89.717V268.947H391.373V246.928Z" fill="#84A9FF"/>
<path d="M197.033 288.178H121.172L121.439 284.833L121.774 280.664H196.431L197.033 288.178Z" fill="#E5E6EB"/>
<path d="M359.918 288.178H284.057L284.332 284.833L284.659 280.664H359.316L359.918 288.178Z" fill="#E5E6EB"/>
<path d="M145.346 64.3074C129.502 92.5796 106.18 111.897 75.4053 122.259L53.2019 95.6419L123.142 37.6906L145.346 64.3074Z" fill="#050F64"/>
<path d="M16.4954 111.155L14.5074 111.162L14.6877 157.954L16.6757 157.946L16.4954 111.155Z" fill="#050F64"/>
<path d="M98.323 77.7744L14.3977 111.005L72.9784 47.3835L146.43 1.60403L98.323 77.7744Z" fill="#155BCD"/>
<path d="M13.8928 110.411L15.1637 111.935L79.8174 58.3579L78.5465 56.8342L13.8928 110.411Z" fill="#050F64"/>
<path d="M18.8212 148.987H18.7867C18.6404 147.76 17.6077 146.808 16.3426 146.817H14.8968C13.6318 146.825 12.5991 147.786 12.47 149.013H12.4355L9.7677 167.746C13.7264 169.548 17.6766 169.531 21.6267 167.703L18.8212 148.987Z" fill="#050F64"/>
<path d="M367.121 255.78H140.948V260.103H367.121V255.78Z" fill="white"/>
<path d="M333.016 266.193H263.273C257.189 266.193 252.249 261.27 252.249 255.205C252.249 249.141 257.189 244.217 263.273 244.217H333.016V266.202V266.193Z" fill="#155BCD"/>
<path d="M416.408 264.907H331.518C326.14 264.907 321.777 260.558 321.777 255.197C321.777 249.835 326.14 245.487 331.518 245.487H416.408V264.907Z" fill="white"/>
<path d="M332.095 266.193H421.003V263.628H332.095C327.181 263.628 323.179 259.846 323.179 255.197C323.179 250.547 327.181 246.765 332.095 246.765H421.003V244.2H332.095C325.761 244.2 320.606 249.132 320.606 255.188C320.606 261.244 325.761 266.176 332.095 266.176V266.193Z" fill="#050F64"/>
<path d="M348.963 250.505H416.408V249.441H348.963V250.505Z" fill="#E6E6E6"/>
<path d="M330.064 256.26H416.399V255.197H330.064V256.26Z" fill="#E6E6E6"/>
<path d="M373.877 258.619H416.408V257.555H373.877V258.619Z" fill="#E6E6E6"/>
<path d="M350.4 266.193H420.143C426.227 266.193 431.167 271.117 431.167 277.181C431.167 283.246 426.227 288.169 420.143 288.169H350.4V266.185V266.193Z" fill="#FFBD00"/>
<path d="M267.008 267.471H351.897C357.276 267.471 361.639 271.82 361.639 277.181C361.639 282.542 357.276 286.891 351.897 286.891H267.008V267.471Z" fill="white"/>
<path d="M351.312 288.178H262.404V285.613H351.312C356.226 285.613 360.228 281.83 360.228 277.181C360.228 272.532 356.226 268.749 351.312 268.749H262.404V266.185H351.312C357.646 266.185 362.801 271.117 362.801 277.173C362.801 283.229 357.646 288.161 351.312 288.161V288.178Z" fill="#DCA000"/>
<path d="M334.453 271.417H267.008V272.481H334.453V271.417Z" fill="#E6E6E6"/>
<path d="M353.343 277.181H267.008V278.245H353.343V277.181Z" fill="#E6E6E6"/>
<path d="M309.539 279.532H267.008V280.595H309.539V279.532Z" fill="#E6E6E6"/>
<path d="M254.461 244.208H324.203V222.223H254.461C248.368 222.223 243.437 227.147 243.437 233.211C243.437 239.285 248.376 244.2 254.461 244.2V244.208Z" fill="#FFBD00"/>
<path d="M322.706 242.93H407.595V223.51H322.706C317.327 223.51 312.964 227.859 312.964 233.22C312.964 238.581 317.327 242.93 322.706 242.93Z" fill="white"/>
<path d="M323.283 244.208H412.191V241.644H323.283C318.369 241.644 314.367 237.861 314.367 233.212C314.367 228.563 318.369 224.78 323.283 224.78H412.191V222.215H323.283C316.949 222.215 311.794 227.147 311.794 233.203C311.794 239.259 316.949 244.191 323.283 244.191V244.208Z" fill="#DCA000"/>
<path d="M340.15 228.528H407.595V227.465H340.15V228.528Z" fill="#E6E6E6"/>
<path d="M321.26 234.284H407.595V233.22H321.26V234.284Z" fill="#E6E6E6"/>
<path d="M365.064 236.626H407.595V235.562H365.064V236.626Z" fill="#E6E6E6"/>
<path d="M390.426 230.141C393.61 230.141 396.183 232.706 396.183 235.879H396.201V261.321L388.705 255.668L379.393 261.321V233.066C379.393 231.479 378.059 230.15 376.467 230.15H390.435L390.426 230.141Z" fill="#84A9FF"/>
<path d="M396.201 288.169H378.619C383.516 281.556 383.516 274.231 378.619 266.185H396.201C401.098 274.222 401.098 281.547 396.201 288.169Z" fill="#DCA000"/>
<path d="M113.065 257.933L101.869 251.5V264.375L113.065 257.933Z" fill="white"/>
<path d="M124.881 251.5H121.697V264.375H124.881V251.5Z" fill="white"/>
<path d="M131.284 251.5H128.1V264.375H131.284V251.5Z" fill="white"/>
<path d="M281.75 279.3H263.127C263.144 278.674 263.265 278.065 263.652 277.567C264.091 276.993 264.805 276.701 265.519 276.572C266.234 276.452 266.957 276.478 267.68 276.444C269.444 276.358 271.191 275.852 272.731 274.985C273.532 274.539 274.289 273.982 275.158 273.664L280.236 273.793C280.933 274.539 281.38 275.517 281.595 276.521C281.793 277.43 281.81 278.365 281.759 279.291L281.75 279.3Z" fill="#050F64"/>
<path d="M335.882 212.454C334.892 207.556 330.107 204.391 325.202 205.377C325.202 205.377 325.202 205.377 325.193 205.377L287.43 210.892C287.293 210.91 287.155 210.927 287.017 210.953L286.768 210.987C284.048 211.536 281.862 213.672 281.337 216.459C281.294 216.682 281.268 216.897 281.251 217.111V217.163L274.444 273.63L280.916 274.171L293.575 224.428L325.899 223.202C326.837 223.313 327.809 223.287 328.782 223.09H328.79C333.704 222.104 336.88 217.334 335.89 212.445L335.882 212.454Z" fill="#050F64"/>
<path d="M302.775 279.583L284.151 279.755C284.151 279.12 284.28 278.511 284.659 278.013C285.098 277.439 285.812 277.138 286.518 277.01C287.232 276.881 287.955 276.907 288.678 276.864C290.442 276.761 292.181 276.246 293.721 275.363C294.522 274.908 295.27 274.342 296.139 274.025L301.217 274.11C301.914 274.848 302.37 275.826 302.594 276.83C302.8 277.739 302.826 278.674 302.783 279.6L302.775 279.583Z" fill="#050F64"/>
<path d="M301.905 274.934L295.442 274.239L303.601 217.952V217.9C303.635 217.686 303.67 217.472 303.713 217.257C304.272 214.632 306.303 212.625 308.816 211.999L308.893 211.982C309.074 211.939 309.255 211.905 309.444 211.879L346.958 204.725C346.958 204.725 346.958 204.725 346.966 204.725C351.829 203.524 356.743 206.484 357.947 211.33C358.679 214.264 357.853 217.429 355.796 219.642C353.446 222.172 350.047 222.644 346.777 222.876C345.279 222.987 343.773 223.099 342.276 223.21C340.081 223.373 337.887 223.536 335.701 223.699C333.274 223.879 330.839 224.059 328.412 224.239C326.2 224.402 323.988 224.565 321.777 224.728C320.236 224.84 318.704 224.96 317.164 225.072C317.078 225.072 315.864 225.097 315.847 225.166L301.914 274.934H301.905Z" fill="#050F64"/>
<path d="M302.723 272.009H303.291L311.923 241.198L311.389 241.086L302.723 272.009ZM297.559 255.857L298.093 255.951L303.601 217.952V217.9C303.635 217.677 303.67 217.472 303.713 217.257C304.272 214.624 306.303 212.617 308.816 211.999L308.893 211.982C309.074 211.939 309.255 211.905 309.444 211.879L346.958 204.725C350.219 203.919 353.507 204.991 355.675 207.238L356.76 207.659C354.987 205.351 352.207 203.919 349.144 203.919C348.369 203.919 347.594 204.013 346.829 204.202L309.332 211.356C309.152 211.381 308.954 211.424 308.764 211.467L308.214 211.57V211.613C305.692 212.419 303.739 214.538 303.179 217.146V217.171V217.18C303.171 217.223 303.162 217.266 303.153 217.317V217.377C303.119 217.514 303.102 217.66 303.076 217.815L297.559 255.857Z" fill="#155BCC"/>
<path d="M258.876 141.79C259.599 141.061 260.812 141.061 261.655 141.79C262.679 142.691 263.747 143.583 264.779 144.432L265.537 145.058C265.958 145.401 266.38 145.744 266.802 146.079C267.034 146.268 267.275 146.456 267.507 146.645L268.497 147.434L269.504 148.198C269.745 148.378 269.986 148.558 270.218 148.738C270.64 149.055 271.07 149.39 271.509 149.699L273.54 151.157L275.606 152.538C276.045 152.83 276.501 153.113 276.94 153.379C277.189 153.533 277.447 153.687 277.697 153.85C280.735 155.686 283.558 157.101 286.337 158.165C289.375 159.332 292.396 160.086 295.322 160.404C300.769 161.013 306.63 160.327 313.756 158.242C316.536 157.436 319.573 156.398 323.033 155.086C325.796 154.022 328.747 152.821 332.319 151.303C334.178 150.539 336.269 150.539 338.059 151.303C339.66 151.989 340.865 153.224 341.458 154.777C342.052 156.329 341.958 158.045 341.209 159.606C340.348 161.382 338.722 162.763 336.734 163.397C332.852 164.564 329.642 165.473 326.613 166.271C322.663 167.292 319.332 168.029 316.131 168.587C312.121 169.282 308.532 169.659 305.141 169.719C304.806 169.719 304.461 169.728 304.126 169.728C300.546 169.728 297.095 169.359 293.867 168.638C290.339 167.841 286.793 166.537 283.334 164.753C280.322 163.2 277.344 161.279 274.211 158.877C273.97 158.688 273.73 158.5 273.48 158.302C273.032 157.951 272.568 157.59 272.12 157.222L270.098 155.515L268.144 153.765C267.714 153.387 267.301 152.993 266.896 152.607C266.673 152.392 266.457 152.186 266.234 151.972L265.287 151.071L264.366 150.153C264.151 149.939 263.936 149.725 263.721 149.51C263.325 149.116 262.92 148.721 262.533 148.318L261.862 147.623C260.898 146.628 259.908 145.599 258.962 144.561C258.196 143.737 258.161 142.519 258.884 141.79H258.876Z" fill="#EA8096"/>
<path d="M319.203 171.95L335.555 166.477C340.503 164.821 343.421 159.778 341.76 154.845L341.501 154.554C339.84 149.622 334.488 146.971 329.539 148.618L313.188 154.091L319.203 171.95Z" fill="#84A9FF"/>
<path d="M342.164 147.211C332.078 145.607 322.783 152.941 322.026 163.089L318.825 206.303C328.782 215.679 347.749 219.479 358.197 214.032L360.159 169.17C360.624 158.354 352.887 148.91 342.164 147.203V147.211Z" fill="#84A9FF"/>
<path d="M320.451 177.045L320.985 177.088L322.026 163.089C322.706 153.885 330.434 146.988 339.384 146.988C340.297 146.988 341.226 147.065 342.164 147.211C343.137 147.366 344.075 147.58 344.995 147.855L345.193 147.349C344.247 147.057 343.266 146.834 342.259 146.671C341.312 146.516 340.348 146.448 339.393 146.448C330.047 146.448 322.181 153.739 321.493 163.054L320.46 177.045H320.451ZM318.265 206.526L318.455 206.698C324.126 212.033 332.835 215.773 341.605 216.803V216.254C333.257 215.25 324.556 211.699 318.833 206.312L320.21 187.784H319.668L318.283 206.535L318.265 206.526ZM360.159 169.179L358.67 203.19L359.212 203.207L360.701 169.205C360.77 167.583 360.667 165.997 360.391 164.453L359.884 164.684C360.133 166.142 360.228 167.652 360.168 169.179H360.159Z" fill="#050F64"/>
<path d="M339.057 141.07L337.104 153.284C339.488 155.429 342.147 155.858 345.09 154.554L347.044 142.339L339.057 141.07Z" fill="#F4BCC7"/>
<path d="M339.057 141.07L338.171 146.594C338.696 146.902 339.272 147.134 339.892 147.288C340.09 147.34 340.288 147.374 340.494 147.409C342.689 147.76 344.918 147.074 346.519 145.616L347.044 142.339L339.057 141.07Z" fill="#EA8096"/>
<path d="M336.622 133.024L335.744 140.238C335.391 143.12 337.259 145.805 340.081 146.499C342.655 147.134 345.365 146.139 346.871 143.977C347.87 142.545 348.842 140.855 349.798 139.062C351.329 136.197 351.209 132.681 349.359 130.013C347.784 127.74 345.495 126.745 342.457 127.131C339.384 127.525 336.983 129.961 336.613 133.024H336.622Z" fill="#F4BCC7"/>
<path d="M272.421 178.048L284.444 166.031L290.192 176.195L272.421 178.048Z" fill="#050F64"/>
<path d="M292.247 171.124L272.417 178.061L281.768 204.616L301.598 197.679L292.247 171.124Z" fill="#155BCD"/>
<path d="M278.592 191.207C279.943 191.412 281.32 191.584 282.654 191.747L283.626 191.867C284.169 191.936 284.711 191.987 285.253 192.039C285.554 192.064 285.847 192.099 286.139 192.133L287.396 192.262L288.652 192.356C288.954 192.373 289.246 192.399 289.547 192.425C290.081 192.467 290.623 192.51 291.165 192.536L293.661 192.656L296.157 192.699C296.682 192.708 297.224 192.699 297.74 192.691C298.033 192.691 298.334 192.673 298.627 192.673C302.181 192.579 305.322 192.236 308.231 191.627C311.415 190.966 314.367 189.963 317 188.659C321.914 186.223 326.458 182.483 331.321 176.89C333.223 174.703 335.211 172.198 337.405 169.222C339.152 166.837 340.977 164.238 343.154 161.03C344.298 159.383 346.063 158.251 347.973 157.933C349.694 157.65 351.372 158.036 352.724 159.014C354.066 160.001 354.927 161.485 355.142 163.209C355.391 165.165 354.772 167.206 353.447 168.81C350.813 171.898 348.61 174.403 346.51 176.693C343.748 179.687 341.347 182.106 338.963 184.301C335.976 187.055 333.154 189.302 330.34 191.189C327.061 193.385 323.679 195.127 320.279 196.37C316.88 197.606 313.188 198.42 309.315 198.789C305.942 199.107 302.387 199.107 298.454 198.781C298.145 198.746 297.843 198.721 297.534 198.695C296.966 198.643 296.372 198.592 295.804 198.515L293.179 198.18L290.58 197.76C290.58 197.76 290.554 197.76 290.537 197.76C289.986 197.674 289.435 197.571 288.902 197.468C288.601 197.408 288.299 197.348 287.998 197.297L286.707 197.057L285.434 196.782C285.133 196.713 284.84 196.653 284.539 196.593C283.988 196.473 283.437 196.362 282.886 196.233L281.948 196.01C280.597 195.693 279.203 195.358 277.843 194.998C276.75 194.715 276.062 193.711 276.268 192.716C276.475 191.721 277.499 191.061 278.601 191.215L278.592 191.207Z" fill="#F4BCC7"/>
<path d="M342.913 185.322L353.903 172.07C357.225 168.064 357.035 162.24 353.008 158.929L352.638 158.808C348.619 155.497 342.663 156.064 339.333 160.069L328.343 173.322L342.913 185.314V185.322Z" fill="#84A9FF"/>
<path d="M336.02 163.226L336.458 163.552L339.341 160.078C342.061 156.793 346.545 155.823 350.288 157.393L350.589 156.93C349.815 156.595 348.997 156.355 348.154 156.227C344.686 155.695 341.149 157.033 338.92 159.726L336.02 163.226ZM327.586 173.399L336.872 181.042L337.207 180.613L328.352 173.322L330.649 170.551L330.211 170.225L327.586 173.399ZM353.903 172.07L345.193 182.577L345.675 182.843L354.324 172.413C356.037 170.345 356.906 167.781 356.751 165.207C356.622 162.917 355.701 160.833 354.126 159.229L353.791 159.658C357.044 163.046 356.992 168.347 353.903 172.07Z" fill="#050F64"/>
<path d="M334.642 134.07C334.204 133.453 334.341 132.5 334.591 131.72C334.832 130.948 335.167 130.133 335.021 129.335C334.84 128.315 333.937 127.594 333.963 126.539C333.988 125.51 334.866 124.849 335.632 124.386C337.672 123.159 339.703 121.941 341.742 120.715C342.577 120.217 343.429 119.702 344.35 119.557C345.262 119.411 346.269 119.685 346.854 120.535C347.156 120.981 347.328 121.555 347.655 121.976C348.386 122.936 349.634 122.893 350.718 122.893C352.07 122.893 353.481 123.134 354.539 124.103C355.607 125.081 356.175 126.985 355.495 128.417C355.176 129.095 354.634 129.575 354.178 130.124C353.713 130.673 353.3 131.394 353.36 132.166C353.438 133.204 354.281 133.821 354.866 134.568C355.684 135.623 356.045 137.184 355.796 138.625C355.546 140.066 354.703 141.361 353.593 141.979C352.629 142.519 351.286 142.399 350.83 141.267C350.305 139.972 351.192 138.05 350.297 137.107C349.23 135.974 347.233 138.05 346.183 136.884C345.624 136.258 345.761 135.1 345.331 134.345C344.754 133.35 343.575 133.478 342.689 133.547C341.725 133.624 340.847 133.564 339.892 133.47C339.023 133.384 338.283 133.573 337.457 133.95C336.605 134.328 335.4 135.022 334.66 134.062L334.642 134.07Z" fill="#050F64"/>
<path d="M346.863 137.939C346.631 139.406 347.775 140.804 349.428 141.07C351.08 141.336 352.612 140.358 352.844 138.891C353.076 137.424 351.932 136.026 350.28 135.76C348.627 135.494 347.095 136.472 346.863 137.939Z" fill="#F4BCC7"/>
</g>
<defs>
<clipPath id="clip0_3_2286">
<rect width="440.943" height="311.75" fill="white"/>
</clipPath>
</defs>
</svg>
