<svg viewBox="0 0 476 338" fill="none" xmlns="http://www.w3.org/2000/svg">
<path d="M451.892 213.887C451.892 257.421 438.886 297.908 416.552 331.696C415.224 333.703 413.867 335.681 412.474 337.642H63.5261C62.1325 335.681 60.7762 333.703 59.4477 331.696C37.1141 297.908 24.1079 257.421 24.1079 213.887C24.1079 95.763 119.871 0 237.995 0C356.12 0 451.883 95.763 451.883 213.887H451.892Z" fill="#E5E6EB"/>
<path d="M315.566 204.008L333.887 245.528L338.188 243.63L319.866 202.11L315.566 204.008Z" fill="#84A9FF"/>
<path d="M313.673 199.712L315.57 204.012L319.871 202.115L317.973 197.814L313.673 199.712Z" fill="#155BCD"/>
<path d="M338.701 252.135L339.862 251.615L340.475 254.569L338.701 252.135Z" fill="#050F64"/>
<path d="M333.916 245.539L338.218 243.644L339.862 251.615L338.701 252.135L333.916 245.539Z" fill="#EA8096"/>
<mask id="mask0_6_340" style="mask-type:luminance" maskUnits="userSpaceOnUse" x="75" y="102" width="351" height="192">
<path d="M75.1759 293.374L425.601 293.374V102.117L75.1759 102.117V293.374Z" fill="white"/>
</mask>
<g mask="url(#mask0_6_340)">
<path d="M312.307 187.271C308.675 185.088 304.336 184.605 300.072 185.915C300.007 185.933 299.951 185.952 299.886 185.98C295.706 187.345 292.213 190.188 290.048 194.007C283.071 206.362 274.589 220.669 264.593 233.062C254.012 246.217 243.049 255.489 231.102 261.388C224.785 264.565 217.706 267.148 210.051 269.071C203.157 270.799 195.623 272.072 187.039 272.954L184.075 273.242C182.988 273.354 182.022 273.437 181.112 273.493L175.147 273.893L169.137 274.153C167.845 274.218 166.526 274.236 165.244 274.264C164.538 274.273 163.823 274.292 163.117 274.311L160.097 274.376H157.069C156.353 274.376 155.647 274.376 154.932 274.385C153.622 274.385 152.321 274.394 151.012 274.385L148.643 274.357C145.437 274.311 142.121 274.273 138.86 274.162C136.222 274.088 133.973 275.936 133.75 278.37C133.527 280.804 135.441 283.006 138.098 283.369C141.368 283.842 144.704 284.251 147.937 284.651L150.343 284.948C151.68 285.115 153.018 285.254 154.365 285.394C155.081 285.468 155.787 285.542 156.502 285.626L159.586 285.961L162.68 286.239C163.405 286.295 164.12 286.369 164.845 286.434C166.164 286.555 167.529 286.685 168.886 286.769L175.12 287.187L181.381 287.456C182.338 287.503 183.369 287.531 184.54 287.54L187.698 287.586C197.081 287.661 205.452 287.178 213.284 286.109C220.892 285.078 228.166 283.434 234.967 281.204C236.332 280.758 237.689 280.284 239.017 279.792C239.203 279.727 239.389 279.662 239.575 279.597C239.918 279.476 240.271 279.355 240.615 279.207L245.288 277.246C246.7 276.624 248.103 275.927 249.469 275.258C250.11 274.942 250.751 274.627 251.41 274.301C252.005 273.967 252.609 273.632 253.203 273.298C254.56 272.546 255.953 271.774 257.31 270.957L260.57 268.894C261.379 268.384 262.215 267.854 262.995 267.287C269.907 262.54 276.587 256.938 283.415 250.147C289.24 244.341 294.898 238.014 300.713 230.805C305.553 224.794 310.421 218.365 316.033 210.552C318.718 206.623 319.842 201.885 319.108 197.555C318.383 193.124 315.968 189.473 312.307 187.271Z" fill="#EA8096"/>
<path d="M295.028 251.243L317.909 217.696C324.83 207.552 323.121 193.904 312.976 186.983L312.075 186.788C301.93 179.867 288.088 182.477 281.167 192.632L258.285 226.178L295.028 251.243Z" fill="#FFBD00"/>
<path d="M321.151 175.77C297.155 177.07 279.401 198.624 282.727 222.434L295.316 314.017C310.942 335.886 355.191 342.918 391.218 329.652L373.502 217.557C369.191 192.362 346.681 174.395 321.151 175.779V175.77Z" fill="#FFBD00"/>
<path d="M381.705 261.286L380.451 261.583L391.209 329.643C387.623 330.962 383.944 332.086 380.228 333.006L380.469 334.26C384.297 333.312 388.031 332.17 391.645 330.832L392.63 330.47L381.695 261.277L381.705 261.286ZM323.911 174.414C322.972 174.414 322.015 174.441 321.077 174.488C309.279 175.129 298.205 180.731 290.698 189.844C286.22 195.279 283.22 201.708 281.873 208.499L283.108 208.704C286.657 190.885 301.893 176.81 321.142 175.761C322.071 175.705 322.991 175.686 323.901 175.686C348.279 175.686 369.34 193.254 373.492 217.538L373.511 217.678C373.929 217.594 374.356 217.511 374.774 217.427L374.756 217.325C370.501 192.455 349.115 174.404 323.911 174.404V174.414ZM295.306 314.017L289.23 269.777L287.948 269.889L294.08 314.5L294.266 314.76C300.611 323.641 311.824 330.395 325.75 334.195L326.177 332.997C312.79 329.383 301.661 322.945 295.297 314.026L295.306 314.017Z" fill="#050F64"/>
<path d="M310.198 170.001L315.224 198.772C322.183 201.745 328.435 200.649 333.972 195.502L328.946 166.731L310.198 170.001Z" fill="#F5BDC8"/>
<path d="M310.198 170.001L312.465 183.016C313.868 183.295 315.336 183.379 316.832 183.248C317.315 183.202 317.788 183.137 318.253 183.053C323.409 182.152 327.84 178.919 330.284 174.451L328.937 166.731L310.189 170.001H310.198Z" fill="#EA8096"/>
<path d="M298.604 153.892L302.19 170.67C303.621 177.368 309.836 181.948 316.664 181.344C322.87 180.787 328.147 176.504 329.856 170.521C330.99 166.554 331.844 162.039 332.597 157.301C333.795 149.73 330.841 141.972 324.672 137.429C319.414 133.555 313.571 133.082 307.095 136.277C300.555 139.501 297.081 146.785 298.604 153.91V153.892Z" fill="#F5BDC8"/>
<path d="M338.738 158.054C342.445 146.952 342.695 131.372 325.806 125.009C318.42 122.221 310.858 118.217 310.858 118.217C310.115 121.562 312.893 124.498 312.893 124.498C307.653 123.801 303.928 116.945 303.928 116.945C300.193 122.658 303.723 133.76 303.723 133.76C299.217 133.537 296.579 126.699 296.579 126.699C290.661 141.211 300.5 164.213 300.5 164.213C300.5 164.213 297.49 152.145 301.828 145.577C303.612 142.873 308.08 144.295 311.768 143.747C318.253 142.79 324.152 137.42 326.995 146.571C329.754 155.452 326.131 157.394 326.131 157.394L331.575 159.187C331.575 159.187 332.142 156.874 334.241 153.752C336.406 150.529 338.747 158.054 338.747 158.054H338.738Z" fill="#050F64"/>
<path d="M333.286 162.051C337.168 161.373 339.827 158.026 339.224 154.574C338.622 151.121 334.986 148.872 331.105 149.549C327.223 150.227 324.564 153.575 325.167 157.027C325.769 160.479 329.405 162.728 333.286 162.051Z" fill="#F5BDC8"/>
<path d="M266.869 269.842L271.486 279.922L195.799 276.234V269.842C195.799 269.842 214.268 253.445 236.983 260.97C259.706 268.504 262.735 268.987 266.869 269.842Z" fill="#E5E6EB"/>
<path d="M124.72 269.842L120.103 279.922L195.79 276.234V269.842C195.79 269.842 177.321 253.445 154.607 260.97C131.883 268.504 128.854 268.987 124.72 269.842Z" fill="#E5E6EB"/>
<path d="M121.543 278.733C143.403 276.559 165.616 275.333 187.55 275.091C187.559 275.091 187.577 275.091 187.587 275.091L194.034 270.177C195.298 269.21 197.053 269.21 198.317 270.177L204.764 275.091C204.764 275.091 204.783 275.091 204.801 275.091C226.643 275.342 248.846 276.568 270.808 278.723C271.663 278.807 272.285 279.569 272.202 280.414C272.127 281.213 271.449 281.817 270.659 281.817C270.613 281.817 270.557 281.817 270.501 281.817C248.632 279.671 226.513 278.454 204.764 278.194C204.513 278.194 204.263 278.194 204.021 278.194C202.405 280.832 199.497 281.817 196.18 281.817C192.864 281.817 189.946 280.832 188.33 278.185C188.079 278.185 187.838 278.185 187.587 278.185C165.736 278.426 143.616 279.643 121.85 281.808C120.995 281.891 120.242 281.269 120.149 280.414C120.066 279.56 120.688 278.807 121.543 278.714V278.733Z" fill="#155BCD"/>
<path d="M72.4354 297.118L400.815 297.118V281.901L72.4354 281.901V297.118Z" fill="#050F64"/>
<path d="M361.174 209.159C358.6 205.796 354.726 203.761 350.285 203.417C345.826 203.102 341.46 204.467 337.985 207.264C326.958 216.201 313.831 226.401 299.989 234.279C285.319 242.641 271.728 247.248 258.443 248.354C251.401 248.995 243.867 248.809 236.044 247.787C228.993 246.868 221.524 245.297 213.209 242.966L210.348 242.148C209.307 241.86 208.378 241.581 207.505 241.293L201.81 239.482L196.125 237.522C194.898 237.104 193.663 236.639 192.464 236.193C191.795 235.942 191.136 235.701 190.467 235.45L187.633 234.4L184.818 233.295C184.15 233.034 183.49 232.774 182.821 232.514C181.604 232.04 180.387 231.567 179.179 231.074L176.95 230.155C173.995 228.947 170.939 227.693 167.957 226.401C165.523 225.361 162.754 226.262 161.658 228.445C160.562 230.628 161.537 233.378 163.869 234.688C166.749 236.332 169.713 237.949 172.583 239.51L174.683 240.652C175.853 241.284 177.033 241.907 178.213 242.52C178.863 242.863 179.514 243.198 180.164 243.542L182.914 244.982L185.692 246.375C186.342 246.691 186.983 247.025 187.633 247.351C188.822 247.945 190.039 248.568 191.275 249.144L196.924 251.819L202.646 254.365C203.51 254.755 204.467 255.164 205.554 255.6L208.471 256.799C217.176 260.301 225.138 262.921 232.821 264.798C241.776 266.99 250.611 268.188 259.075 268.356C259.27 268.356 259.465 268.365 259.66 268.374C260.004 268.384 260.357 268.402 260.7 268.402C260.719 268.402 260.747 268.402 260.765 268.402L265.829 268.291C267.371 268.226 268.932 268.096 270.446 267.965C271.161 267.91 271.867 267.845 272.601 267.789C273.279 267.696 273.958 267.603 274.636 267.52C276.169 267.315 277.757 267.111 279.318 266.851L283.071 266.135C284.028 265.95 285.013 265.764 285.951 265.522C294.117 263.646 302.385 260.877 311.239 257.059C318.792 253.789 326.373 249.98 334.427 245.4C341.125 241.591 348.009 237.382 356.11 232.17C360.049 229.495 362.836 225.5 363.738 221.208C364.685 216.823 363.775 212.54 361.183 209.149L361.174 209.159Z" fill="#F5BDC8"/>
<path d="M321.598 262.271L355.219 239.491C365.391 232.598 368.81 219.285 361.926 209.112L361.155 208.601C354.262 198.429 340.438 195.772 330.265 202.665L296.644 225.444L321.598 262.271Z" fill="#FFBD00"/>
<path d="M342.565 197.555C337.911 197.583 333.405 198.986 329.541 201.606L306.501 217.213L307.281 218.235L330.256 202.665C338.942 196.775 350.313 197.862 357.736 204.653L358.721 203.826C354.373 199.804 348.632 197.518 342.556 197.555H342.565ZM365.874 214.491L364.797 215.365C367.212 224.246 363.394 233.954 355.219 239.5L345.176 246.301L345.901 247.351L355.925 240.55C364.964 234.419 368.689 223.884 365.874 214.491ZM321.588 262.271L305.879 239.092L304.857 239.853L321.245 264.045L328.807 258.926L328.082 257.876L321.598 262.271H321.588Z" fill="#050F64"/>
</g>
<path d="M404.15 281.901H67.6788V297.712H404.15V281.901Z" fill="#050F64"/>
<path d="M42.1308 166.164L28.4371 152.47L139.39 41.5177L153.083 55.2114L42.1308 166.164ZM33.2216 152.47L42.1308 161.379L148.299 55.2114L139.39 46.3021L33.2216 152.47Z" fill="#050F64"/>
<path d="M198.521 97.1286C206.407 97.1286 212.8 90.7357 212.8 82.8497C212.8 74.9636 206.407 68.5707 198.521 68.5707C190.635 68.5707 184.242 74.9636 184.242 82.8497C184.242 90.7357 190.635 97.1286 198.521 97.1286Z" fill="#FFBD00"/>
<path d="M153.343 67.9668L125.975 29.97L145.642 10.3027L183.639 37.6715L153.343 67.9668Z" fill="#155BCD"/>
<path d="M160.227 107.803C146.459 94.035 146.459 71.7014 160.227 57.9334L173.605 44.5556C187.373 30.7875 209.707 30.7875 223.475 44.5556L160.227 107.803Z" fill="#84A9FF"/>
<g opacity="0.3">
<path d="M223.475 44.5556L217.297 50.7335C206.595 40.0312 188.73 36.6589 175.733 42.6046C175.853 42.5489 175.603 42.6511 175.733 42.6046L139.464 16.4807L145.642 10.3027L183.518 37.5879C196.589 31.4379 212.661 33.7418 223.475 44.5556Z" fill="#050F64"/>
</g>
<path d="M160.227 107.803L223.475 44.5556C227.154 48.2345 227.154 54.2081 223.475 57.887L173.559 107.803C169.88 111.482 163.906 111.482 160.227 107.803Z" fill="#050F64"/>
<path d="M129.626 26.3097L124.711 19.0076L134.68 9.03931L141.982 13.9538L129.626 26.3097Z" fill="#050F64"/>
<path d="M152.684 310.607L32.0045 157.004L47.2311 145.038L167.91 298.641L152.674 310.607H152.684ZM36.7518 157.58L153.25 305.869L163.163 298.084L46.6644 149.785L36.7518 157.57V157.58Z" fill="#050F64"/>
<path d="M58.3002 166.145C65.8538 158.592 65.8538 146.345 58.3002 138.791C50.7467 131.238 38.4999 131.238 30.9463 138.791C23.3928 146.345 23.3928 158.592 30.9463 166.145C38.4999 173.699 50.7467 173.699 58.3002 166.145Z" fill="#155BCD"/>
<path d="M44.6207 162.708C50.2749 162.708 54.8585 158.124 54.8585 152.47C54.8585 146.816 50.2749 142.232 44.6207 142.232C38.9665 142.232 34.3829 146.816 34.3829 152.47C34.3829 158.124 38.9665 162.708 44.6207 162.708Z" fill="#050F64"/>
<path d="M192.399 293.374H91.5638V312.131H192.399V293.374Z" fill="#155BCD"/>
<path d="M168.449 294.712H115.523L121.274 277.618H162.699L168.449 294.712Z" fill="#155BCD"/>
<path d="M254.56 127.591H113.916V184.521H254.56V127.591Z" fill="#84A9FF"/>
<path d="M242.306 136.565H190.792V141.015H242.306V136.565Z" fill="white"/>
<path d="M186.333 136.565H139.343V141.015H186.333V136.565Z" fill="white"/>
<path d="M139.761 136.565H126.513V141.015H139.761V136.565Z" fill="white"/>
<path d="M242.297 148.076H216.591V152.526H242.297V148.076Z" fill="white"/>
<path d="M212.141 148.076H158.406V152.526H212.141V148.076Z" fill="white"/>
<path d="M153.956 148.076H126.513V152.526H153.956V148.076Z" fill="white"/>
<path d="M242.306 159.596H223.28V164.046H242.306V159.596Z" fill="white"/>
<path d="M227.089 159.596H202.358V164.046H227.089V159.596Z" fill="white"/>
<path d="M197.908 159.596H147.035V164.046H197.908V159.596Z" fill="white"/>
<path d="M142.585 159.596H126.513V164.046H142.585V159.596Z" fill="white"/>
<path d="M214.696 171.106H189.343V175.556H214.696V171.106Z" fill="white"/>
<path d="M184.883 171.106H126.346V175.556H184.883V171.106Z" fill="white"/>
<path d="M254.56 184.531V200.277L232.226 184.531H254.56Z" fill="#155BCD"/>
<path d="M476 334.669C476 335.486 475.666 336.23 475.127 336.768C474.588 337.307 473.845 337.642 473.027 337.642H2.97285C2.62912 337.642 2.31325 337.586 2.00668 337.474C0.836115 337.075 0 335.969 0 334.66C0 333.833 0.334446 333.089 0.873275 332.56C1.18914 332.244 1.57933 331.993 2.00668 331.854C2.31325 331.742 2.62912 331.687 2.97285 331.687H473.018C474.662 331.687 475.991 333.015 475.991 334.66L476 334.669Z" fill="#050F64"/>
</svg>
