<svg width="72" height="19" viewBox="0 0 72 19" fill="none" xmlns="http://www.w3.org/2000/svg">
<path d="M6.504 18.456C5.656 18.456 4.912 18.352 4.272 18.144C3.648 17.936 3.112 17.688 2.664 17.4C2.232 17.096 1.888 16.8 1.632 16.512C1.376 16.224 1.2 16.008 1.104 15.864C0.832 15.512 0.664 15.208 0.6 14.952C0.536 14.68 0.568 14.408 0.696 14.136C0.84 13.864 1.08 13.568 1.416 13.248C1.752 12.96 2.064 12.808 2.352 12.792C2.656 12.76 2.952 12.832 3.24 13.008C3.528 13.184 3.808 13.432 4.08 13.752C4.464 14.216 4.84 14.544 5.208 14.736C5.592 14.912 5.992 15 6.408 15C6.936 15 7.384 14.936 7.752 14.808C8.12 14.68 8.4 14.48 8.592 14.208C8.784 13.92 8.88 13.56 8.88 13.128C8.88 12.776 8.744 12.496 8.472 12.288C8.216 12.064 7.864 11.872 7.416 11.712C6.984 11.552 6.496 11.4 5.952 11.256C5.424 11.096 4.896 10.912 4.368 10.704C4 10.576 3.648 10.416 3.312 10.224C2.976 10.032 2.656 9.816 2.352 9.576C2.048 9.336 1.784 9.048 1.56 8.712C1.352 8.376 1.184 7.992 1.056 7.56C0.944 7.128 0.888 6.632 0.888 6.072C0.888 5.128 1.12 4.288 1.584 3.552C2.048 2.816 2.688 2.24 3.504 1.824C4.336 1.392 5.288 1.176 6.36 1.176C7.08 1.176 7.704 1.24 8.232 1.368C8.776 1.496 9.232 1.648 9.6 1.824C9.968 2 10.256 2.176 10.464 2.352C10.688 2.512 10.84 2.64 10.92 2.736C11.368 3.152 11.616 3.512 11.664 3.816C11.712 4.104 11.544 4.512 11.16 5.04C10.76 5.6 10.36 5.912 9.96 5.976C9.576 6.04 9.136 5.904 8.64 5.568C8.448 5.392 8.256 5.232 8.064 5.088C7.872 4.944 7.64 4.832 7.368 4.752C7.112 4.656 6.768 4.608 6.336 4.608C6.08 4.608 5.84 4.648 5.616 4.728C5.392 4.792 5.2 4.888 5.04 5.016C4.88 5.144 4.752 5.304 4.656 5.496C4.56 5.672 4.512 5.872 4.512 6.096C4.512 6.464 4.632 6.76 4.872 6.984C5.128 7.208 5.456 7.392 5.856 7.536C6.272 7.664 6.728 7.792 7.224 7.92C7.736 8.032 8.256 8.168 8.784 8.328C9.264 8.488 9.728 8.688 10.176 8.928C10.624 9.152 11.024 9.44 11.376 9.792C11.728 10.144 12.008 10.584 12.216 11.112C12.44 11.64 12.552 12.288 12.552 13.056C12.552 14.016 12.368 14.84 12 15.528C11.632 16.216 11.144 16.776 10.536 17.208C9.928 17.64 9.272 17.952 8.568 18.144C7.864 18.352 7.176 18.456 6.504 18.456ZM20.0136 18.312C19.3096 18.312 18.5896 18.184 17.8536 17.928C17.1336 17.656 16.4616 17.264 15.8376 16.752C15.2296 16.224 14.7416 15.584 14.3736 14.832C14.0056 14.064 13.8216 13.184 13.8216 12.192C13.8216 11.2 14.0056 10.328 14.3736 9.576C14.7416 8.824 15.2296 8.192 15.8376 7.68C16.4456 7.168 17.1096 6.784 17.8296 6.528C18.5656 6.256 19.2776 6.12 19.9656 6.12C20.5576 6.12 21.0856 6.192 21.5496 6.336C22.0296 6.464 22.4296 6.624 22.7496 6.816C23.0856 7.008 23.3256 7.176 23.4696 7.32C23.7416 7.528 23.9816 7.736 24.1896 7.944C24.3976 8.152 24.4936 8.424 24.4776 8.76C24.4616 8.936 24.4056 9.12 24.3096 9.312C24.2136 9.488 24.0936 9.672 23.9496 9.864C23.4696 10.536 22.9896 10.84 22.5096 10.776C22.2696 10.728 22.0456 10.648 21.8376 10.536C21.6456 10.424 21.4536 10.312 21.2616 10.2C21.0856 10.072 20.8936 9.968 20.6856 9.888C20.4776 9.808 20.2376 9.768 19.9656 9.768C19.5016 9.768 19.0856 9.872 18.7176 10.08C18.3496 10.288 18.0536 10.576 17.8296 10.944C17.6216 11.312 17.5176 11.736 17.5176 12.216C17.5176 12.68 17.6216 13.096 17.8296 13.464C18.0536 13.832 18.3416 14.128 18.6936 14.352C19.0616 14.56 19.4696 14.664 19.9176 14.664C20.1896 14.664 20.4216 14.632 20.6136 14.568C20.8216 14.504 20.9976 14.432 21.1416 14.352C21.2856 14.256 21.3976 14.184 21.4776 14.136C21.6696 14.008 21.8536 13.896 22.0296 13.8C22.2056 13.688 22.3896 13.632 22.5816 13.632C22.8056 13.632 23.0376 13.72 23.2776 13.896C23.5176 14.056 23.7816 14.32 24.0696 14.688C24.3256 15.024 24.4696 15.336 24.5016 15.624C24.5496 15.912 24.4856 16.184 24.3096 16.44C24.1336 16.696 23.8616 16.944 23.4936 17.184C23.3656 17.296 23.1336 17.44 22.7976 17.616C22.4776 17.792 22.0776 17.952 21.5976 18.096C21.1336 18.24 20.6056 18.312 20.0136 18.312ZM27.7661 18.216C27.1901 18.216 26.7741 18.136 26.5181 17.976C26.2621 17.8 26.1021 17.576 26.0381 17.304C25.9901 17.016 25.9661 16.712 25.9661 16.392V2.568C25.9661 2.248 25.9981 1.952 26.0621 1.68C26.1261 1.408 26.2861 1.192 26.5421 1.032C26.7981 0.855999 27.2141 0.767999 27.7901 0.767999C28.3821 0.767999 28.7981 0.855999 29.0381 1.032C29.2941 1.208 29.4461 1.432 29.4941 1.704C29.5581 1.976 29.5901 2.272 29.5901 2.592V7.488C29.8781 7.184 30.2461 6.896 30.6941 6.624C31.1581 6.352 31.7021 6.216 32.3261 6.216C33.3181 6.216 34.2061 6.472 34.9901 6.984C35.7901 7.48 36.4221 8.168 36.8861 9.048C37.3661 9.928 37.6061 10.936 37.6061 12.072V16.416C37.6061 16.736 37.5741 17.032 37.5101 17.304C37.4461 17.576 37.2941 17.8 37.0541 17.976C36.8141 18.136 36.3901 18.216 35.7821 18.216C35.2221 18.216 34.8061 18.136 34.5341 17.976C34.2781 17.8 34.1181 17.576 34.0541 17.304C34.0061 17.016 33.9821 16.712 33.9821 16.392V12.048C33.9821 11.584 33.9021 11.192 33.7421 10.872C33.5821 10.536 33.3421 10.272 33.0221 10.08C32.7181 9.888 32.3421 9.792 31.8941 9.792C31.3021 9.792 30.7821 9.976 30.3341 10.344C29.9021 10.696 29.6541 11.128 29.5901 11.64V16.416C29.5901 16.736 29.5581 17.032 29.4941 17.304C29.4301 17.576 29.2701 17.8 29.0141 17.976C28.7741 18.136 28.3581 18.216 27.7661 18.216ZM45.0643 18.408C44.3123 18.408 43.5603 18.264 42.8083 17.976C42.0723 17.672 41.4003 17.248 40.7923 16.704C40.1843 16.16 39.7043 15.512 39.3523 14.76C39.0003 13.992 38.8243 13.144 38.8243 12.216C38.8243 11.352 38.9843 10.552 39.3043 9.816C39.6243 9.064 40.0723 8.4 40.6483 7.824C41.2243 7.248 41.8803 6.8 42.6163 6.48C43.3683 6.144 44.1683 5.976 45.0163 5.976C46.1683 5.976 47.2083 6.256 48.1363 6.816C49.0803 7.36 49.8323 8.104 50.3923 9.048C50.9523 9.992 51.2323 11.04 51.2323 12.192C51.2323 13.168 51.0483 14.04 50.6803 14.808C50.3283 15.56 49.8483 16.208 49.2403 16.752C48.6483 17.296 47.9843 17.712 47.2483 18C46.5283 18.272 45.8003 18.408 45.0643 18.408ZM45.0163 14.784C45.4003 14.784 45.7923 14.688 46.1923 14.496C46.5923 14.304 46.9283 14.016 47.2003 13.632C47.4723 13.248 47.6083 12.76 47.6083 12.168C47.6083 11.656 47.4963 11.208 47.2723 10.824C47.0483 10.44 46.7363 10.144 46.3363 9.936C45.9523 9.712 45.5043 9.6 44.9923 9.6C44.5123 9.6 44.0803 9.712 43.6963 9.936C43.3283 10.16 43.0243 10.472 42.7843 10.872C42.5603 11.256 42.4483 11.696 42.4483 12.192C42.4483 12.768 42.5763 13.256 42.8323 13.656C43.1043 14.04 43.4403 14.328 43.8403 14.52C44.2403 14.696 44.6323 14.784 45.0163 14.784ZM57.3186 18.216C56.6626 18.216 56.0786 18.176 55.5666 18.096C55.0706 18.032 54.6386 17.904 54.2706 17.712C53.9186 17.52 53.6306 17.256 53.4066 16.92C53.1826 16.584 53.0146 16.152 52.9026 15.624C52.8066 15.08 52.7586 14.416 52.7586 13.632V2.544C52.7586 2.224 52.7826 1.928 52.8306 1.656C52.8946 1.384 53.0546 1.16 53.3106 0.983999C53.5666 0.807999 53.9826 0.719999 54.5586 0.719999C55.1346 0.719999 55.5426 0.807999 55.7826 0.983999C56.0386 1.16 56.1986 1.384 56.2626 1.656C56.3266 1.928 56.3586 2.224 56.3586 2.544V13.464C56.3586 13.72 56.3666 13.936 56.3826 14.112C56.4146 14.272 56.4626 14.4 56.5266 14.496C56.6066 14.592 56.7106 14.656 56.8386 14.688C56.9666 14.72 57.1346 14.736 57.3426 14.736C57.5346 14.736 57.7266 14.76 57.9186 14.808C58.1266 14.856 58.3026 15 58.4466 15.24C58.5906 15.48 58.6626 15.88 58.6626 16.44C58.6626 17.016 58.5906 17.432 58.4466 17.688C58.3026 17.944 58.1266 18.096 57.9186 18.144C57.7266 18.192 57.5266 18.216 57.3186 18.216ZM65.8813 18.432C64.7613 18.432 63.7933 18.248 62.9773 17.88C62.1773 17.512 61.5213 17.032 61.0093 16.44C60.4973 15.832 60.1133 15.16 59.8573 14.424C59.6173 13.688 59.4973 12.952 59.4973 12.216C59.4973 11.016 59.7693 9.952 60.3133 9.024C60.8573 8.096 61.6093 7.368 62.5693 6.84C63.5293 6.296 64.6333 6.024 65.8813 6.024C66.8093 6.024 67.6093 6.176 68.2813 6.48C68.9693 6.768 69.5293 7.152 69.9613 7.632C70.4093 8.096 70.7373 8.6 70.9453 9.144C71.1693 9.688 71.2813 10.208 71.2813 10.704C71.2813 11.584 71.0653 12.24 70.6333 12.672C70.2173 13.088 69.6813 13.296 69.0253 13.296H63.3133C63.3453 13.712 63.4893 14.064 63.7453 14.352C64.0173 14.64 64.3533 14.864 64.7533 15.024C65.1533 15.184 65.5773 15.264 66.0253 15.264C66.4093 15.264 66.7453 15.248 67.0333 15.216C67.3213 15.168 67.5693 15.112 67.7773 15.048C67.9853 14.968 68.1773 14.896 68.3533 14.832C68.5293 14.752 68.6813 14.688 68.8093 14.64C68.9533 14.592 69.0893 14.56 69.2173 14.544C69.4573 14.528 69.6733 14.6 69.8653 14.76C70.0733 14.904 70.2573 15.128 70.4173 15.432C70.5293 15.608 70.6013 15.776 70.6333 15.936C70.6813 16.096 70.7053 16.256 70.7053 16.416C70.7053 16.8 70.5053 17.144 70.1053 17.448C69.7213 17.752 69.1693 17.992 68.4493 18.168C67.7453 18.344 66.8893 18.432 65.8813 18.432ZM63.3133 11.328H67.1053C67.3613 11.328 67.5453 11.288 67.6573 11.208C67.7853 11.112 67.8493 10.936 67.8493 10.68C67.8493 10.392 67.7613 10.144 67.5853 9.936C67.4093 9.712 67.1693 9.544 66.8653 9.432C66.5773 9.304 66.2413 9.24 65.8573 9.24C65.3613 9.24 64.9213 9.336 64.5373 9.528C64.1533 9.72 63.8493 9.976 63.6253 10.296C63.4173 10.616 63.3133 10.96 63.3133 11.328Z" fill="white"/>
</svg>
