<svg viewBox="0 0 213 273" fill="none" xmlns="http://www.w3.org/2000/svg">
<path d="M174.35 150.4C154.1 106.6 176.43 52.33 142.52 13.41C131.75 1.43 100.97 -4.69 83.32 6.03L77.41 9.45C71.02 14.11 65.9 19.31 61.79 24.92C27.07 72.29 61.37 147.71 2.67001 176.19L196.16 173.18C182.66 163.8 178.69 159.77 174.35 150.4Z" fill="#505050"/>
<path d="M49.75 89.2C49.75 97.54 56.89 104.29 65.69 104.29V74.1C56.89 74.1 49.75 77.82 49.75 89.19V89.2Z" fill="#FFC4AF"/>
<path d="M142.82 74.11V104.3C152.24 104.3 159.88 97.54 159.88 89.21C159.88 77.83 152.24 74.12 142.82 74.12V74.11Z" fill="#FFC4AF"/>
<path d="M131.89 123.12H79.49L76.79 153.83L51.36 162.54L106.44 212.92L156.35 163.96L133.88 154.53L131.89 123.12Z" fill="#FFA490"/>
<path d="M54.32 161.13C54.32 161.13 48.73 164.05 41.12 167.18C63.69 177.76 85.45 191.49 109.14 198.59C126.25 187.55 145.79 174.67 164.35 166.82C158.34 164.49 155.09 161.35 155.09 161.35L54.34 161.14L54.32 161.13Z" fill="white"/>
<path d="M182.99 173.99C175.19 171.01 106.01 202.91 106.01 202.91C106.01 202.91 33.65 170.19 28.26 172.25C-2.14998 183.85 0.350017 209.33 0.350017 209.33V272.9H212.22L210.9 209.35C210.9 209.35 213.4 185.6 182.99 173.99Z" fill="#65D4D2"/>
<path d="M30.22 167.44L105.62 196.49L52.39 155.77L30.22 167.44Z" fill="#65D4D2"/>
<path d="M109.68 193.98L174.56 168.27L151.21 156.84L109.68 193.98Z" fill="#65D4D2"/>
<path d="M109.68 193.98L106.3 197.01L105.62 196.49L30.22 167.44L15.82 175.02C40.68 184.3 80.49 195.38 106.67 201.04L188.84 175.25L174.56 168.26L109.69 193.97L109.68 193.98Z" fill="white"/>
<path d="M73.13 233.14L96.23 242.35L106.44 213.15L89.49 211.51L73.13 233.14Z" fill="#D5C2A7"/>
<path d="M106.08 213.15L116.3 242.35L139.4 233.14L123.03 211.51L106.08 213.15Z" fill="#D5C2A7"/>
<path d="M143.24 191.57L115.64 199.48C114.94 198.66 113.9 200.59 112.74 200.59H99.82C98.88 200.59 98.02 198.48 97.36 199.04L70.64 191.57C68.96 190.79 67.04 192.02 67.04 193.87V219.51C67.04 221.17 68.61 222.38 70.21 221.97C78.18 219.89 99.48 213.94 99.48 213.94H113.3L143.7 222.21C145.3 222.59 146.83 221.39 146.83 219.74V193.88C146.83 192.03 144.91 190.8 143.23 191.58L143.24 191.57Z" fill="#D5C2A7"/>
<path d="M112.65 201.49H99.82V216.28H112.65V201.49Z" fill="#D5C2A7"/>
<path d="M132.19 27.01C131.82 51.64 109.16 62.93 85.84 57.64C85.84 57.64 106.03 43.36 105.05 29.44C101.9 43.34 84.26 65.1 63.68 55.91L62.79 55.17L64.48 100.86C64.48 123.67 82.75 142.33 105.08 142.33C127.41 142.33 145.69 123.67 145.69 100.86C145.69 100.86 148.05 59.76 147.02 53.26C145.06 40.88 132.19 26.99 132.19 26.99V27.01Z" fill="#FFC4AF"/>
<path d="M107.86 116.02C107.86 116.02 107.8 116.03 107.78 116.03C107.87 116.02 107.88 116.02 107.86 116.02Z" fill="#F76E57"/>
<path d="M114.93 112.61C114.21 113.3 113.81 113.62 113.04 114.11C112.37 114.54 111.39 115.05 110.91 115.22C110.08 115.52 109.25 115.77 108.39 115.94C108.21 115.97 108.04 116 107.86 116.03C107.88 116.03 107.86 116.03 107.78 116.04C107.81 116.04 107.84 116.03 107.86 116.03C107.8 116.03 107.38 116.07 107.39 116.07C106.93 116.11 106.48 116.12 106.02 116.11C105.6 116.11 105.19 116.07 104.77 116.03C104.8 116.03 104.79 116.03 104.68 116.03C104.71 116.03 104.74 116.03 104.77 116.03C104.71 116.03 104.51 115.99 104.44 115.98C104.24 115.94 104.04 115.91 103.84 115.86C103.4 115.76 102.97 115.65 102.54 115.51C102.35 115.45 102.15 115.38 101.96 115.31C101.97 115.31 101.55 115.15 101.53 115.15C101.55 115.15 101.57 115.17 101.6 115.18C101.54 115.16 101.53 115.15 101.53 115.15C100.73 114.81 99.96 114.37 99.24 113.89C98.59 113.45 98.13 113.06 97.45 112.38C96.57 111.5 95.08 111.5 94.2 112.38C93.32 113.26 93.32 114.74 94.2 115.63C97.32 118.75 101.6 120.61 106.02 120.7C110.52 120.79 114.94 118.96 118.18 115.86C119.08 115 119.04 113.48 118.18 112.61C117.29 111.72 115.83 111.75 114.93 112.61Z" fill="#F76E57"/>
<path d="M104.77 116.02C104.77 116.02 104.71 116.02 104.68 116.02C104.79 116.03 104.8 116.03 104.77 116.02Z" fill="#F76E57"/>
<path d="M101.6 115.18C101.6 115.18 101.56 115.16 101.53 115.15C101.53 115.15 101.53 115.15 101.6 115.18Z" fill="#F76E57"/>
<path d="M108.57 97.3H105.75C105.16 97.3 104.54 97.56 104.13 97.97C103.91 98.18 103.75 98.42 103.66 98.71C103.52 98.98 103.45 99.28 103.46 99.59C103.49 100.18 103.68 100.8 104.13 101.21C104.58 101.62 105.13 101.88 105.75 101.88H108.57C109.16 101.88 109.78 101.62 110.19 101.21C110.41 101 110.57 100.76 110.66 100.47C110.8 100.2 110.87 99.9 110.86 99.59C110.83 99 110.64 98.38 110.19 97.97C109.74 97.56 109.19 97.3 108.57 97.3Z" fill="#F76E57"/>
</svg>
