<svg viewBox="0 0 250 257" fill="none" xmlns="http://www.w3.org/2000/svg">
<path d="M65.13 89.8401C65.13 98.1801 73.57 104.93 83.98 104.93V74.7501C73.57 74.7501 65.13 78.4601 65.13 89.8401Z" fill="#FFC4AF"/>
<path d="M170.33 76.3101V106.49C179.99 106.49 187.82 99.7301 187.82 91.4001C187.82 80.0201 179.99 76.3101 170.33 76.3101Z" fill="#FFC4AF"/>
<path d="M214.7 170.56C193.87 164.5 155.4 156.91 155.4 156.91H94.92C94.92 156.91 56.45 164.49 35.62 170.55C0.419994 180.78 3.30999 203.26 3.30999 203.26V228.6V254.29H247V228.6V203.27C247 203.27 249.89 180.8 214.7 170.56Z" fill="white"/>
<path d="M94.94 158.84C94.94 158.84 95.03 158.86 95.08 158.86C95.17 158.84 95.26 158.83 95.34 158.8C95.81 158.67 95.04 158.87 94.94 158.83V158.84Z" fill="#E5E5E5"/>
<path d="M155.26 158.87C155.3 158.87 155.34 158.85 155.37 158.84C155.34 158.86 155.3 158.86 155.25 158.87H155.26Z" fill="#E5E5E5"/>
<path d="M244.44 187.14C239.3 179.57 230.7 174.14 221.35 170.69C216.06 168.74 210.5 167.31 204.98 165.9C199.36 164.47 193.71 163.14 188.05 161.86C178.81 159.76 169.53 157.78 160.22 155.89C158.67 155.58 157 155.06 155.4 154.98C154.19 154.92 152.95 154.98 151.73 154.98C144.89 154.98 138.05 154.98 131.22 154.98C123.08 154.98 114.95 154.98 106.81 154.98C102.88 154.98 98.86 154.78 94.93 154.98C93.19 155.07 91.38 155.64 89.7 155.98C85.65 156.81 81.6 157.65 77.55 158.51C66.51 160.86 55.49 163.31 44.59 166.1C33.52 168.93 22.48 172.15 13.79 178.86C8.05 183.29 3.74 189.09 1.92 195.5C1.19 198.09 0.920001 200.7 1.01 203.35C1.21 208.78 1.01 214.24 1.01 219.68C1.01 223.28 1.01 226.88 1.01 230.49C1.01 236.88 1.01 243.27 1.01 249.67C1.01 251.22 1.01 252.77 1.01 254.32C1.01 256.81 5.6 256.81 5.6 254.32C5.6 249.32 5.6 244.33 5.6 239.33C5.6 235.46 5.6 231.6 5.6 227.73C5.6 221.68 5.6 215.63 5.6 209.58C5.6 206.95 5.49 204.3 5.55 201.66C5.57 200.91 5.63 200.15 5.73 199.4C5.77 199.12 5.86 198.64 5.77 199.12C5.82 198.87 5.86 198.63 5.91 198.38C6.02 197.85 6.14 197.32 6.29 196.79C6.62 195.58 7.04 194.38 7.55 193.21C7.69 192.89 7.84 192.57 7.99 192.25C8.03 192.17 8.05 192.12 8.06 192.1C8.08 192.07 8.06 192.08 8.06 192.1C8.06 192.12 8.04 192.15 8.06 192.1C8.17 191.9 8.27 191.69 8.38 191.49C8.75 190.81 9.16 190.13 9.59 189.47C11.66 186.32 14.04 183.87 17.25 181.42C21.37 178.28 26.23 175.89 31.3 174.02C36.36 172.15 41.75 170.85 47.04 169.51C52.61 168.1 58.22 166.78 63.83 165.51C72.97 163.44 82.14 161.48 91.34 159.62C92.41 159.4 93.49 159.19 94.56 158.97C94.73 158.94 94.91 158.9 95.09 158.87C95.04 158.87 94.99 158.86 94.95 158.85C95.05 158.89 95.82 158.69 95.35 158.82C95.27 158.84 95.18 158.86 95.09 158.88C95.37 158.92 95.82 158.86 96.04 158.86C96.9 158.86 97.75 158.86 98.61 158.86C105.37 158.86 112.13 158.86 118.89 158.86C126.97 158.86 135.05 158.86 143.14 158.86C146.03 158.86 148.91 158.86 151.8 158.86C152.65 158.86 153.5 158.86 154.34 158.86C154.54 158.86 155.02 158.93 155.29 158.89C155.01 158.92 154.61 158.73 155.02 158.83C155.11 158.85 155.2 158.87 155.29 158.89C155.33 158.89 155.37 158.88 155.41 158.86C155.38 158.87 155.34 158.88 155.3 158.89C155.49 158.93 155.69 158.96 155.88 159C156.98 159.22 158.08 159.44 159.18 159.67C163.09 160.46 166.99 161.28 170.89 162.11C181.8 164.43 192.69 166.85 203.47 169.58C214.05 172.26 224.87 175.13 233.21 181.54C236.4 183.99 238.76 186.44 240.82 189.59C241.26 190.27 241.68 190.97 242.06 191.68C242.14 191.83 242.22 191.98 242.3 192.14C242.32 192.18 242.3 192.15 242.3 192.14C242.3 192.12 242.28 192.11 242.3 192.14C242.31 192.16 242.33 192.21 242.37 192.29C242.53 192.63 242.69 192.98 242.84 193.32C243.34 194.49 243.76 195.68 244.09 196.89C244.23 197.42 244.35 197.94 244.46 198.48C244.49 198.65 244.52 198.82 244.55 198.99C244.55 199.02 244.57 199.09 244.59 199.21C244.58 199.14 244.56 199.06 244.55 198.99C244.53 198.87 244.6 199.32 244.63 199.49C244.73 200.23 244.79 200.98 244.8 201.73C244.81 202.32 244.76 202.9 244.75 203.49C244.59 209.06 244.75 214.65 244.75 220.22C244.75 223.73 244.75 227.24 244.75 230.74C244.75 237.08 244.75 243.42 244.75 249.77C244.75 251.29 244.75 252.81 244.75 254.33C244.75 256.82 249.34 256.82 249.34 254.33C249.34 249.27 249.34 244.2 249.34 239.14C249.34 235.27 249.34 231.39 249.34 227.52C249.34 221.3 249.34 215.09 249.34 208.87C249.34 206.35 249.49 203.8 249.38 201.29C249.17 196.35 247.38 191.46 244.48 187.18L244.44 187.14Z" fill="#E5E5E5"/>
<path d="M244.51 198.95C244.52 199.02 244.54 199.1 244.55 199.17C244.53 199.05 244.52 198.98 244.51 198.95Z" fill="#E5E5E5"/>
<path d="M161.06 126.91H96.32L96.59 159.73L83.48 162.59C83.48 162.59 102.13 166.17 127.48 166.17C152.83 166.17 173.65 164.2 173.65 164.2L161.1 160.47L161.05 126.9L161.06 126.91Z" fill="#FFA490"/>
<path d="M126.33 25.3401C103.99 25.5501 81.8 35.7301 81.8 55.7801L83.61 111.42C83.61 134.13 103.12 152.72 126.96 152.72C150.81 152.72 170.32 134.14 170.32 111.42L171.74 55.4401C171.74 35.1301 148.96 25.1201 126.33 25.3401Z" fill="#FFC4AF"/>
<path d="M82.82 167.05L117.14 185.58L127.67 168.51L89.98 149.93L82.82 167.05Z" fill="white"/>
<path d="M125.69 167.35C125.26 168.05 124.83 168.75 124.4 169.45C125.11 169.8 125.81 170.15 126.52 170.49C126.25 169.44 125.97 168.4 125.7 167.35H125.69Z" fill="#E5E5E5"/>
<path d="M85.04 167.66C85.27 167.11 85.5 166.56 85.73 166.01C85.15 165.7 84.57 165.38 83.99 165.07C84.34 165.93 84.69 166.8 85.04 167.66Z" fill="#E5E5E5"/>
<path d="M92.19 150.54C91.07 151 89.94 151.45 88.82 151.91C89.59 152.29 90.37 152.67 91.14 153.05C91.2 152.92 91.25 152.78 91.31 152.65C91.61 151.94 91.9 151.24 92.2 150.53L92.19 150.54Z" fill="#E5E5E5"/>
<path d="M118.29 183.6C117.63 183.24 116.97 182.89 116.32 182.53C115.93 183.16 115.54 183.79 115.15 184.42C114.5 185.47 114.92 186.94 115.97 187.56C116.58 187.89 117.29 187.93 117.91 187.71C118.39 187.53 118.82 187.2 119.11 186.74C119.72 185.7 119.38 184.19 118.29 183.6Z" fill="#E5E5E5"/>
<path d="M115.98 187.56C116.6 187.92 117.3 187.94 117.92 187.71C117.3 187.93 116.59 187.89 115.98 187.56Z" fill="#E5E5E5"/>
<path d="M128.83 166.53C124.59 164.44 120.35 162.35 116.11 160.26C109.35 156.93 102.58 153.59 95.82 150.26C94.26 149.49 92.7 148.72 91.14 147.95C89.68 147.23 88.36 147.9 87.77 149.32C85.68 154.32 83.59 159.32 81.5 164.32C81.2 165.03 80.91 165.73 80.62 166.44C80.25 167.34 80.86 168.59 81.67 169.03C85.54 171.12 89.4 173.21 93.27 175.3C99.43 178.63 105.59 181.95 111.75 185.28C113.16 186.04 114.57 186.8 115.98 187.56C114.93 186.95 114.51 185.48 115.16 184.42C115.55 183.79 115.94 183.16 116.33 182.53C113.12 180.8 109.91 179.06 106.7 177.33C100.54 174 94.38 170.68 88.22 167.35C87.39 166.9 86.56 166.46 85.74 166.01C85.51 166.56 85.28 167.11 85.05 167.66C84.7 166.8 84.35 165.93 84 165.07C84.58 165.38 85.16 165.7 85.74 166.01C87.54 161.69 89.35 157.38 91.15 153.06C90.38 152.68 89.6 152.3 88.83 151.92C89.95 151.46 91.08 151.01 92.2 150.55C91.9 151.26 91.61 151.96 91.31 152.67C91.25 152.8 91.2 152.94 91.14 153.07C94.61 154.78 98.07 156.49 101.54 158.19C108.3 161.52 115.07 164.86 121.83 168.19C122.69 168.61 123.54 169.03 124.4 169.45C124.83 168.75 125.26 168.05 125.69 167.35C125.96 168.4 126.24 169.44 126.51 170.49C125.8 170.14 125.1 169.79 124.39 169.45C121.75 173.73 119.1 178.01 116.46 182.29C116.41 182.37 116.36 182.45 116.31 182.53C116.97 182.89 117.63 183.24 118.28 183.6C119.37 184.19 119.71 185.7 119.1 186.74C122.17 181.76 125.25 176.78 128.32 171.8C128.76 171.09 129.2 170.38 129.63 169.67C130.25 168.67 129.9 167.07 128.81 166.53H128.83Z" fill="#E5E5E5"/>
<path d="M117.92 187.71C118.4 187.54 118.83 187.22 119.12 186.74C118.83 187.2 118.41 187.53 117.92 187.71Z" fill="#E5E5E5"/>
<path d="M128.95 167.99L139.48 185.06L173.79 166.53L166.8 148.14L128.95 167.99Z" fill="white"/>
<path d="M175.87 167.48C176.12 166.99 176.2 166.44 176.01 165.92C176 165.89 175.98 165.85 175.97 165.82C176.14 166.36 176.1 166.96 175.87 167.48Z" fill="#E5E5E5"/>
<path d="M141.46 183.9C141.07 183.27 140.68 182.64 140.29 182.01C139.63 182.37 138.97 182.72 138.32 183.08C139.37 183.35 140.41 183.63 141.46 183.9Z" fill="#E5E5E5"/>
<path d="M175.92 165.7C175.92 165.7 175.95 165.78 175.96 165.82C175.95 165.78 175.93 165.74 175.92 165.7Z" fill="#E5E5E5"/>
<path d="M175.87 167.48C175.87 167.48 175.83 167.56 175.81 167.61C175.83 167.57 175.85 167.53 175.87 167.48Z" fill="#E5E5E5"/>
<path d="M174.4 168.74C173.12 169.09 172.02 168.29 171.58 167.14C171.37 166.58 171.15 166.02 170.94 165.46C167.64 167.24 164.33 169.03 161.03 170.81C154.87 174.14 148.71 177.46 142.55 180.79C141.8 181.2 141.05 181.6 140.3 182.01C140.69 182.64 141.08 183.27 141.47 183.9C140.42 183.63 139.38 183.35 138.33 183.08C138.99 182.72 139.65 182.37 140.3 182.01C137.61 177.66 134.93 173.31 132.24 168.96C132.22 168.93 132.21 168.9 132.19 168.88C131.49 169.24 130.8 169.61 130.1 169.97C130.37 168.92 130.65 167.88 130.92 166.83C131.34 167.51 131.76 168.19 132.18 168.88C135.75 167.01 139.33 165.13 142.9 163.26C149.7 159.7 156.5 156.13 163.29 152.57C164.05 152.17 164.81 151.77 165.57 151.38C165.24 150.51 164.91 149.64 164.57 148.76C165.69 149.22 166.82 149.67 167.94 150.13C167.15 150.55 166.36 150.96 165.56 151.38C167.27 155.88 168.98 160.37 170.69 164.87C170.77 165.07 170.84 165.27 170.92 165.47C171.48 165.17 172.05 164.86 172.61 164.56C173.7 163.97 175.11 164.28 175.75 165.38C175.81 165.48 175.86 165.6 175.9 165.71C173.89 160.41 171.87 155.12 169.86 149.82C169.57 149.06 169.28 148.3 168.99 147.54C168.45 146.12 167.03 145.43 165.62 146.17C161.35 148.41 157.08 150.65 152.81 152.88C146.01 156.44 139.21 160.01 132.42 163.57C130.87 164.38 129.32 165.2 127.77 166.01C126.69 166.58 126.32 168.13 126.95 169.15C130.02 174.13 133.1 179.11 136.17 184.09C136.61 184.8 137.05 185.51 137.48 186.22C138.15 187.3 139.5 187.65 140.62 187.04C144.49 184.95 148.35 182.86 152.22 180.77C158.38 177.44 164.54 174.12 170.7 170.79C172.11 170.03 173.52 169.27 174.93 168.51C175.29 168.32 175.55 168.02 175.74 167.68C175.42 168.19 174.92 168.59 174.38 168.74H174.4Z" fill="#E5E5E5"/>
<path d="M175.76 167.69C175.76 167.69 175.79 167.64 175.81 167.61C175.8 167.64 175.78 167.66 175.76 167.69Z" fill="#E5E5E5"/>
<path d="M130.1 169.97C130.8 169.61 131.49 169.24 132.19 168.88C131.77 168.2 131.35 167.52 130.93 166.83C130.66 167.88 130.38 168.92 130.11 169.97H130.1Z" fill="#E5E5E5"/>
<path d="M175.87 167.48C176.1 166.96 176.14 166.36 175.97 165.82C175.96 165.78 175.94 165.74 175.93 165.7C175.89 165.59 175.84 165.48 175.78 165.37C175.14 164.27 173.73 163.96 172.64 164.55C172.08 164.85 171.51 165.16 170.95 165.46C171.16 166.02 171.38 166.58 171.59 167.14C172.03 168.3 173.14 169.09 174.41 168.74C174.95 168.59 175.45 168.19 175.77 167.68C175.79 167.65 175.8 167.63 175.82 167.6C175.84 167.56 175.86 167.52 175.88 167.47L175.87 167.48Z" fill="#E5E5E5"/>
<path d="M164.59 148.75C164.92 149.62 165.25 150.49 165.59 151.37C166.38 150.95 167.17 150.54 167.97 150.12C166.85 149.66 165.72 149.21 164.6 148.75H164.59Z" fill="#E5E5E5"/>
<path d="M159.4 238.79C159.4 246.06 166.39 251.95 175.01 251.95H191.17C199.79 251.95 206.78 246.06 206.78 238.79V205.97H159.39V238.79H159.4Z" fill="white"/>
<path d="M204.49 205.97V207.9H206.78L204.49 205.97Z" fill="#E5E5E5"/>
<path d="M161.8 240.32C161.8 240.37 161.8 240.36 161.8 240.32C161.78 240.24 161.77 240.18 161.8 240.32Z" fill="#E5E5E5"/>
<path d="M161.69 205.97L159.4 207.9H161.74C161.73 207.31 161.72 206.72 161.69 206.13C161.69 206.07 161.69 206.02 161.69 205.96V205.97Z" fill="#E5E5E5"/>
<path d="M162.72 243.17C162.84 243.44 162.59 242.93 162.72 243.17Z" fill="#E5E5E5"/>
<path d="M173.21 249.93C173.52 249.97 172.85 249.9 173.21 249.93Z" fill="#E5E5E5"/>
<path d="M164.51 245.73C164.51 245.73 164.47 245.68 164.45 245.66C164.39 245.59 164.34 245.54 164.51 245.73Z" fill="#E5E5E5"/>
<path d="M166.86 247.69C167.11 247.87 166.58 247.53 166.86 247.69Z" fill="#E5E5E5"/>
<path d="M169.82 249.15C169.98 249.21 169.89 249.17 169.8 249.15C169.72 249.12 169.68 249.11 169.82 249.15Z" fill="#E5E5E5"/>
<path d="M193.08 249.92C193.08 249.92 193.01 249.92 192.97 249.93C192.84 249.95 192.87 249.94 193.08 249.92Z" fill="#E5E5E5"/>
<path d="M193.47 251.95C193.41 250.9 192.46 250.02 191.18 250.02C189.98 250.02 188.83 250.9 188.89 251.95C188.95 252.99 189.9 253.89 191.18 253.88C192.38 253.88 193.53 252.99 193.47 251.95Z" fill="#E5E5E5"/>
<path d="M204.4 240.24C204.4 240.24 204.4 240.28 204.39 240.3C204.37 240.44 204.37 240.43 204.4 240.24Z" fill="#E5E5E5"/>
<path d="M196.45 249.12C196.45 249.12 196.38 249.14 196.34 249.15C196.26 249.18 196.24 249.19 196.45 249.12Z" fill="#E5E5E5"/>
<path d="M209.08 212.68V205.98C209.08 204.93 208.03 204.05 206.79 204.05H159.4C158.16 204.05 157.11 204.94 157.11 205.98V236.86C157.11 238.01 157.06 239.18 157.21 240.32C157.77 244.45 160.17 248.18 164.08 250.73C167.32 252.84 171.24 253.89 175.32 253.89H191.18C189.89 253.89 188.94 253 188.89 251.96C188.83 250.91 189.98 250.03 191.18 250.03H176.62C176.01 250.03 175.41 250.03 174.8 250.03C174.27 250.03 173.74 249.99 173.21 249.94C173.52 249.98 172.85 249.91 173.21 249.94C173.21 249.94 173.21 249.94 173.19 249.94C173.05 249.92 172.92 249.9 172.78 249.88C172.47 249.83 172.17 249.78 171.87 249.72C171.37 249.62 170.88 249.49 170.4 249.35C170.27 249.31 170.15 249.27 170.02 249.23C169.99 249.23 169.88 249.18 169.81 249.16C169.89 249.19 169.99 249.23 169.83 249.16C169.7 249.11 169.74 249.13 169.81 249.16C169.77 249.15 169.74 249.13 169.73 249.13C169.55 249.06 169.36 248.99 169.18 248.91C168.73 248.72 168.29 248.51 167.87 248.28C167.64 248.16 167.42 248.03 167.2 247.91C167.12 247.86 167.04 247.81 166.96 247.76C166.92 247.74 166.9 247.72 166.87 247.71C167.12 247.89 166.59 247.55 166.87 247.71C166.85 247.69 166.83 247.68 166.79 247.65C165.97 247.06 165.23 246.44 164.53 245.75C164.51 245.73 164.48 245.7 164.45 245.67C164.47 245.69 164.49 245.72 164.51 245.74C164.34 245.54 164.38 245.6 164.45 245.67C164.41 245.63 164.37 245.58 164.34 245.54C164.19 245.36 164.03 245.17 163.89 244.98C163.58 244.58 163.3 244.16 163.04 243.73C162.93 243.55 162.84 243.37 162.74 243.19C162.86 243.46 162.61 242.95 162.74 243.19C162.69 243.08 162.64 242.98 162.59 242.87C162.39 242.41 162.22 241.94 162.08 241.47C162.02 241.27 161.97 241.07 161.92 240.87C161.89 240.76 161.87 240.64 161.84 240.52C161.84 240.5 161.82 240.41 161.81 240.35C161.81 240.4 161.81 240.39 161.81 240.35C161.8 240.27 161.79 240.22 161.81 240.35C161.8 240.25 161.76 239.97 161.75 239.9C161.72 239.6 161.7 239.3 161.7 239C161.7 238.89 161.7 238.78 161.7 238.67C161.7 238.27 161.7 237.87 161.7 237.48V216.41C161.7 213.59 161.8 210.75 161.75 207.93H159.41L161.7 206C161.7 206.06 161.7 206.11 161.7 206.17C161.73 206.76 161.74 207.35 161.75 207.94H204.5V206.01L206.79 207.94H204.5V234.13C204.5 235.99 204.61 237.88 204.46 239.73C204.45 239.91 204.42 240.09 204.4 240.26C204.4 240.29 204.4 240.31 204.39 240.33C204.39 240.31 204.39 240.29 204.4 240.27C204.37 240.46 204.37 240.47 204.39 240.33C204.37 240.43 204.35 240.52 204.33 240.62C204.25 241.02 204.14 241.42 204.01 241.81C203.89 242.17 203.76 242.53 203.6 242.88C203.56 242.97 203.52 243.07 203.47 243.16C203.47 243.16 203.46 243.2 203.41 243.28C203.43 243.24 203.45 243.2 203.47 243.16C203.47 243.14 203.26 243.54 203.23 243.6C202.82 244.31 202.32 244.98 201.78 245.63C201.75 245.67 201.74 245.68 201.72 245.7C201.94 245.49 201.53 245.94 201.72 245.7C201.7 245.72 201.68 245.74 201.65 245.77C201.48 245.94 201.31 246.11 201.13 246.28C200.86 246.53 200.58 246.77 200.29 247C199.98 247.25 199.66 247.48 199.32 247.71C199.4 247.66 199.42 247.65 199.23 247.78C199.26 247.76 199.29 247.74 199.32 247.71C199.23 247.76 199.08 247.86 199.06 247.88C198.84 248.01 198.62 248.14 198.4 248.26C198 248.47 197.6 248.67 197.18 248.85C197 248.93 196.82 249 196.64 249.08C196.62 249.08 196.43 249.16 196.34 249.19C196.38 249.18 196.41 249.17 196.45 249.16C196.24 249.23 196.26 249.22 196.34 249.19C195.49 249.48 194.61 249.7 193.71 249.86C193.51 249.9 193.3 249.92 193.1 249.96C193.05 249.96 193.01 249.97 192.98 249.98C193.02 249.98 193.05 249.98 193.09 249.97C192.88 249.99 192.85 250 192.98 249.98C192.88 249.98 192.77 250 192.67 250.01C192.17 250.05 191.68 250.07 191.18 250.07C192.47 250.07 193.42 250.96 193.47 252C193.53 253.04 192.38 253.93 191.18 253.93C198.82 253.89 205.64 249.75 208.14 243.67C209.21 241.07 209.08 238.39 209.08 235.7V212.72V212.68Z" fill="#E5E5E5"/>
<path d="M199.34 247.67C199.34 247.67 199.28 247.71 199.25 247.74C199.44 247.61 199.42 247.63 199.34 247.67Z" fill="#E5E5E5"/>
<path d="M203.48 243.12C203.48 243.12 203.44 243.2 203.42 243.24C203.46 243.16 203.47 243.13 203.48 243.12Z" fill="#E5E5E5"/>
<path d="M201.73 245.66C201.95 245.45 201.54 245.9 201.73 245.66Z" fill="#E5E5E5"/>
<path d="M113.61 6.66006C113.29 6.94006 101.91 4.63004 91.92 11.05C81.93 17.47 82.96 25.7101 76.23 36.6901C74.74 40.1701 69.83 50.0001 69.56 51.0401C68.17 56.3601 75.23 76.4 80.57 76.74C85.91 77.07 91.3 60.04 94.92 49.37C96.6 44.42 106.36 24.2801 110.94 35.3501C120.3 57.9901 165.51 74.5701 170.98 75.1701C176.78 75.8101 181.69 51.3601 183.03 45.6901C183.95 41.7701 176.83 28.0801 167.01 16.6601C154.55 2.16006 127.29 -5.19995 113.61 6.65005V6.66006Z" fill="#505050"/>
<path d="M125.38 113.63C125.38 113.63 125.32 113.63 125.29 113.63C125.4 113.64 125.41 113.64 125.38 113.63Z" fill="#F76E57"/>
<path d="M128.47 113.63C128.47 113.63 128.41 113.64 128.39 113.64C128.48 113.63 128.49 113.63 128.47 113.63Z" fill="#F76E57"/>
<path d="M136.15 118.78C135.43 119.47 135.03 119.79 134.26 120.28C133.59 120.71 132.61 121.22 132.13 121.39C131.3 121.69 130.47 121.94 129.61 122.11C129.43 122.14 129.26 122.17 129.08 122.2C129.1 122.2 129.08 122.2 129 122.21C129.03 122.21 129.06 122.2 129.08 122.2C129.02 122.2 128.6 122.24 128.61 122.24C128.15 122.28 127.7 122.29 127.24 122.28C126.82 122.28 126.41 122.24 125.99 122.2C126.02 122.2 126.01 122.2 125.9 122.2C125.93 122.2 125.96 122.2 125.99 122.2C125.93 122.2 125.73 122.16 125.66 122.15C125.46 122.11 125.26 122.08 125.06 122.03C124.62 121.93 124.19 121.82 123.76 121.68C123.57 121.62 123.37 121.55 123.18 121.48C123.19 121.48 122.77 121.32 122.75 121.32C122.77 121.32 122.79 121.34 122.82 121.35C122.76 121.33 122.75 121.32 122.75 121.32C121.95 120.98 121.18 120.54 120.46 120.06C119.81 119.63 119.35 119.23 118.67 118.55C117.79 117.67 116.3 117.67 115.42 118.55C114.54 119.43 114.54 120.92 115.42 121.8C118.54 124.92 122.82 126.78 127.24 126.87C131.74 126.96 136.16 125.13 139.4 122.03C140.3 121.17 140.26 119.65 139.4 118.78C138.51 117.89 137.05 117.92 136.15 118.78Z" fill="#F76E57"/>
<path d="M122.21 112.79C122.21 112.79 122.17 112.77 122.14 112.76C122.14 112.76 122.14 112.76 122.21 112.79Z" fill="#F76E57"/>
<path d="M129.56 100.58H126.74C126.15 100.58 125.53 100.84 125.12 101.25C124.9 101.46 124.74 101.7 124.65 101.99C124.51 102.26 124.44 102.56 124.45 102.87C124.48 103.46 124.67 104.08 125.12 104.49C125.57 104.9 126.12 105.16 126.74 105.16H129.56C130.15 105.16 130.77 104.9 131.18 104.49C131.4 104.28 131.56 104.04 131.65 103.75C131.79 103.48 131.86 103.18 131.85 102.87C131.82 102.28 131.63 101.66 131.18 101.25C130.73 100.84 130.18 100.58 129.56 100.58Z" fill="#F76E57"/>
<path d="M144.42 22.7401C144.42 22.7401 125.2 14.5901 103.65 25.6501C82.1 36.7201 78.02 48.9501 78.02 54.1901C78.02 59.4301 84.22 71.7101 84.22 71.7101C97.12 66.9301 103.99 62.3801 108.63 47.2301C108.63 47.2301 109.85 38.1701 110.93 35.3601C108.86 57.2601 122.16 62.4901 135.19 65.9801C135.19 65.9801 122.52 46.5601 126.19 30.9701C125.97 51.4901 134.35 59.8401 149.34 66.3101C149.34 66.3101 139.47 53.8001 142.76 39.3201C145.39 47.2201 150.49 55.7801 155.27 60.3901C160.04 65.0001 174.12 74.0001 174.12 74.0001L171.21 36.7201L144.42 22.7401Z" fill="#505050"/>
</svg>
