<svg viewBox="0 0 213 271" fill="none" xmlns="http://www.w3.org/2000/svg">
<path d="M155.55 91.74L56.12 97.66C52.78 124.76 52.73 152.26 55.98 179.36C84.96 175.93 114.54 177.61 142.94 184.33C146.53 185.18 150.27 186.11 153.85 185.23C159.24 183.91 162.89 178.8 164.81 173.58C169.62 160.51 166.42 145.96 162.45 132.6C158.48 119.25 153.72 105.54 155.56 91.73L155.55 91.74Z" fill="#505050"/>
<path d="M104.36 0.99999C81.59 0.99999 63.01 12.89 56.13 34.87C52.41 46.76 52.77 59.14 56.46 71.55L152.37 71.89C158.74 56.46 158.01 42.12 152.2 28.91C143.72 9.63999 124.72 0.98999 104.37 0.98999L104.36 0.99999Z" fill="#505050"/>
<path d="M132.28 120.23H79.87L77.17 150.95L51.74 159.66L106.82 210.03L156.73 161.07L134.26 151.64L132.28 120.23Z" fill="#FFA490"/>
<path d="M156.73 161.07C148.93 158.09 106.4 200.02 106.4 200.02C106.4 200.02 57.14 157.6 51.75 159.66C21.34 171.26 0.73999 206.45 0.73999 206.45V270.02H212.61L211.29 206.47C211.29 206.47 187.15 172.69 156.74 161.08L156.73 161.07Z" fill="#D5C2A7"/>
<path d="M50.13 86.32C50.13 94.66 57.27 101.41 66.07 101.41V71.22C57.27 71.22 50.13 74.94 50.13 86.31V86.32Z" fill="#FFC4AF"/>
<path d="M145.55 71.22V101.41C154.97 101.41 162.61 94.65 162.61 86.32C162.61 74.94 154.97 71.23 145.55 71.23V71.22Z" fill="#FFC4AF"/>
<path d="M82.37 27.7C52.31 30.97 63.17 52.29 63.17 52.29L64.86 97.98C64.86 120.79 83.13 139.45 105.46 139.45C127.79 139.45 146.07 120.79 146.07 97.98L147.4 50.38C147.4 50.38 142.49 33.57 135.95 26.38C129.41 19.19 112.42 24.42 82.36 27.69L82.37 27.7Z" fill="#FFC4AF"/>
<path d="M58.49 45.83L58.78 54.46C69.34 48.8 77.61 39.5 81.62 28.06C81.62 36.63 78.56 45.81 70.61 49.48C87.13 62.94 111.61 55.6 131.19 50.7C140.37 48.86 143.43 39.07 144.04 30.51V28.06C148.32 37.24 147.1 46.42 148.32 56.21C148.72 59.78 151.94 61.03 154.99 60.31L155.39 45.49C155.39 4.01 58.5 4.36 58.49 45.84V45.83Z" fill="#505050"/>
<path d="M103.92 113.88C103.92 113.88 103.86 113.88 103.83 113.88C103.94 113.89 103.95 113.89 103.92 113.88Z" fill="#F76E57"/>
<path d="M114.09 110.47C113.37 111.16 112.97 111.48 112.2 111.97C111.53 112.4 110.55 112.91 110.07 113.08C109.24 113.38 108.41 113.63 107.55 113.8C107.37 113.83 107.2 113.86 107.02 113.89C107.04 113.89 107.02 113.89 106.94 113.9C106.97 113.9 107 113.89 107.02 113.89C106.96 113.89 106.54 113.93 106.55 113.93C106.09 113.97 105.64 113.98 105.18 113.97C104.76 113.97 104.35 113.93 103.93 113.89C103.96 113.89 103.95 113.89 103.84 113.89C103.87 113.89 103.9 113.89 103.93 113.89C103.87 113.89 103.67 113.85 103.6 113.84C103.4 113.8 103.2 113.77 103 113.72C102.56 113.62 102.13 113.51 101.7 113.37C101.51 113.31 101.31 113.24 101.12 113.17C101.13 113.17 100.71 113.01 100.69 113.01C100.71 113.01 100.73 113.03 100.76 113.04C100.7 113.02 100.69 113.01 100.69 113.01C99.89 112.67 99.12 112.23 98.4 111.75C97.75 111.32 97.29 110.92 96.61 110.24C95.73 109.36 94.24 109.36 93.36 110.24C92.48 111.12 92.48 112.61 93.36 113.49C96.48 116.61 100.76 118.47 105.18 118.56C109.68 118.65 114.1 116.82 117.34 113.72C118.24 112.86 118.2 111.34 117.34 110.47C116.45 109.58 114.99 109.61 114.09 110.47Z" fill="#F76E57"/>
<path d="M107.01 113.88C107.01 113.88 106.95 113.89 106.93 113.89C107.02 113.88 107.03 113.88 107.01 113.88Z" fill="#F76E57"/>
<path d="M100.75 113.04C100.75 113.04 100.71 113.02 100.68 113.01C100.68 113.01 100.68 113.01 100.75 113.04Z" fill="#F76E57"/>
<path d="M107.47 94.08H104.65C104.06 94.08 103.44 94.34 103.03 94.75C102.81 94.96 102.65 95.2 102.56 95.49C102.42 95.76 102.35 96.06 102.36 96.37C102.39 96.96 102.58 97.58 103.03 97.99C103.48 98.4 104.03 98.66 104.65 98.66H107.47C108.06 98.66 108.68 98.4 109.09 97.99C109.31 97.78 109.47 97.54 109.56 97.25C109.7 96.98 109.77 96.68 109.76 96.37C109.73 95.78 109.54 95.16 109.09 94.75C108.64 94.34 108.09 94.08 107.47 94.08Z" fill="#F76E57"/>
</svg>
